<?xml version="1.0" encoding="utf-8"?>
<!-- Generator: Adobe Illustrator 18.1.0, SVG Export Plug-In . SVG Version: 6.00 Build 0)  -->
<svg version="1.1" id="Layer_1" xmlns="http://www.w3.org/2000/svg" xmlns:xlink="http://www.w3.org/1999/xlink" x="0px" y="0px"
	 viewBox="0 0 491 369.4" enable-background="new 0 0 491 369.4" xml:space="preserve">
<g>
	<g id="TrexGreen_1_">
		<linearGradient id="SVGID_1_" gradientUnits="userSpaceOnUse" x1="249.3623" y1="69.6968" x2="315.6582" y2="69.6968">
			<stop  offset="0.1882" style="stop-color:#8DE29B"/>
			<stop  offset="1" style="stop-color:#14521F"/>
		</linearGradient>
		<polygon fill="url(#SVGID_1_)" points="272.6,24 315.7,78.8 249.4,115.4 		"/>
		<linearGradient id="SVGID_2_" gradientUnits="userSpaceOnUse" x1="272.5947" y1="46.4648" x2="394.9512" y2="46.4648">
			<stop  offset="0" style="stop-color:#1D722B"/>
			<stop  offset="0.569" style="stop-color:#29A33D"/>
			<stop  offset="0.8574" style="stop-color:#6CDA7E"/>
		</linearGradient>
		<polygon fill="url(#SVGID_2_)" points="272.6,24 395,0 326.8,92.9 		"/>
		<linearGradient id="SVGID_3_" gradientUnits="userSpaceOnUse" x1="326.8027" y1="46.4648" x2="466.586" y2="46.4648">
			<stop  offset="0" style="stop-color:#1D722B"/>
			<stop  offset="0.569" style="stop-color:#29A33D"/>
			<stop  offset="0.8574" style="stop-color:#6CDA7E"/>
		</linearGradient>
		<polygon fill="url(#SVGID_3_)" points="395,0 466.6,71.6 326.8,92.9 		"/>
		<linearGradient id="SVGID_4_" gradientUnits="userSpaceOnUse" x1="456.2119" y1="178.1152" x2="456.2119" y2="71.6318">
			<stop  offset="0" style="stop-color:#DEF7E2"/>
			<stop  offset="1" style="stop-color:#6DDA80"/>
		</linearGradient>
		<polygon fill="url(#SVGID_4_)" points="466.6,71.6 491,120 432.9,178.1 421.4,78.5 		"/>
		<linearGradient id="SVGID_5_" gradientUnits="userSpaceOnUse" x1="326.8027" y1="116.9653" x2="430.2901" y2="116.9653">
			<stop  offset="0" style="stop-color:#5CD670"/>
			<stop  offset="0.824" style="stop-color:#1D742C"/>
			<stop  offset="1" style="stop-color:#1D722B"/>
		</linearGradient>
		<polygon fill="url(#SVGID_5_)" points="326.8,92.9 380.2,146.4 430.3,155.4 421.4,78.5 		"/>
		<linearGradient id="SVGID_6_" gradientUnits="userSpaceOnUse" x1="349.2759" y1="219.8369" x2="349.2759" y2="92.9297">
			<stop  offset="0" style="stop-color:#0C3112"/>
			<stop  offset="0.8294" style="stop-color:#29A33D"/>
			<stop  offset="1" style="stop-color:#6CDA7E"/>
		</linearGradient>
		<polygon fill="url(#SVGID_6_)" points="326.8,92.9 314.1,219.8 362.8,172.3 384.5,150.6 		"/>
		<linearGradient id="SVGID_7_" gradientUnits="userSpaceOnUse" x1="314.0547" y1="196.0723" x2="416.6348" y2="196.0723">
			<stop  offset="0" style="stop-color:#1D722B"/>
			<stop  offset="0.569" style="stop-color:#29A33D"/>
			<stop  offset="0.8574" style="stop-color:#6CDA7E"/>
		</linearGradient>
		<polygon fill="url(#SVGID_7_)" points="314.1,219.8 416.6,191.3 362.8,172.3 		"/>
		<linearGradient id="SVGID_8_" gradientUnits="userSpaceOnUse" x1="353.9082" y1="211.8017" x2="416.6348" y2="211.8017">
			<stop  offset="0" style="stop-color:#DEF7E2"/>
			<stop  offset="1" style="stop-color:#6DDA80"/>
		</linearGradient>
		<polygon fill="url(#SVGID_8_)" points="369.3,204.5 353.9,232.3 416.6,191.3 		"/>
		<linearGradient id="SVGID_9_" gradientUnits="userSpaceOnUse" x1="233.0996" y1="149.2964" x2="326.8027" y2="149.2964">
			<stop  offset="0" style="stop-color:#5CD670"/>
			<stop  offset="0.824" style="stop-color:#1D742C"/>
			<stop  offset="1" style="stop-color:#1D722B"/>
		</linearGradient>
		<polygon fill="url(#SVGID_9_)" points="326.8,92.9 315.7,78.8 249.4,115.4 233.1,140.2 314.1,219.8 		"/>
		<linearGradient id="SVGID_10_" gradientUnits="userSpaceOnUse" x1="209.0918" y1="211.9951" x2="310.6367" y2="211.9951">
			<stop  offset="0.1882" style="stop-color:#8DE29B"/>
			<stop  offset="1" style="stop-color:#14521F"/>
		</linearGradient>
		<polygon fill="url(#SVGID_10_)" points="233.1,140.2 209.1,252.5 241.2,283.8 310.6,214.8 		"/>
		<linearGradient id="SVGID_11_" gradientUnits="userSpaceOnUse" x1="241.2315" y1="249.1675" x2="333.7735" y2="249.1675">
			<stop  offset="0.3398" style="stop-color:#0C3112"/>
			<stop  offset="0.7249" style="stop-color:#29A33D"/>
			<stop  offset="1" style="stop-color:#6CDA7E"/>
		</linearGradient>
		<polygon fill="url(#SVGID_11_)" points="310.5,214.5 333.8,229.2 323.3,281.1 241.2,283.8 		"/>
		<linearGradient id="SVGID_12_" gradientUnits="userSpaceOnUse" x1="312.8633" y1="296.601" x2="388.5586" y2="296.601">
			<stop  offset="0" style="stop-color:#1D722B"/>
			<stop  offset="0.569" style="stop-color:#29A33D"/>
			<stop  offset="0.8574" style="stop-color:#6CDA7E"/>
		</linearGradient>
		<polygon fill="url(#SVGID_12_)" points="333.8,229.2 388.6,284 366.8,310.3 322.2,364 312.9,281.5 323.3,281.1 		"/>
		<linearGradient id="SVGID_13_" gradientUnits="userSpaceOnUse" x1="322.1563" y1="337.1255" x2="430.2901" y2="337.1255">
			<stop  offset="0" style="stop-color:#14521F"/>
			<stop  offset="0.6549" style="stop-color:#8DE29B"/>
		</linearGradient>
		<polygon fill="url(#SVGID_13_)" points="430.3,357 366.8,310.3 322.2,364 		"/>
		<polygon fill="#FFFFFF" points="208.3,255.2 151.8,221.1 151.8,199 233.1,140.2 		"/>
		<linearGradient id="SVGID_14_" gradientUnits="userSpaceOnUse" x1="162.626" y1="347.3252" x2="288.082" y2="347.3252">
			<stop  offset="0" style="stop-color:#1D722B"/>
			<stop  offset="0.569" style="stop-color:#29A33D"/>
			<stop  offset="0.8574" style="stop-color:#6CDA7E"/>
		</linearGradient>
		<polygon fill="url(#SVGID_14_)" points="245.4,325.3 162.6,367.8 288.1,369.4 		"/>
		<linearGradient id="SVGID_15_" gradientUnits="userSpaceOnUse" x1="151.7852" y1="214.125" x2="109.1914" y2="214.125">
			<stop  offset="0" style="stop-color:#0C3112"/>
			<stop  offset="0.7249" style="stop-color:#29A33D"/>
			<stop  offset="1" style="stop-color:#6CDA7E"/>
		</linearGradient>
		<polygon fill="url(#SVGID_15_)" points="151.8,198.6 151.8,221.1 140.1,281.1 109.2,228.5 109.8,205.2 140,147.1 		"/>
		<linearGradient id="SVGID_16_" gradientUnits="userSpaceOnUse" x1="0" y1="206.0591" x2="139.8477" y2="206.0591">
			<stop  offset="0" style="stop-color:#5CD670"/>
			<stop  offset="0.824" style="stop-color:#1D742C"/>
			<stop  offset="1" style="stop-color:#1D722B"/>
		</linearGradient>
		<polygon fill="url(#SVGID_16_)" points="109.2,228.5 0,264.8 0,245.5 139.8,147.3 109.8,205.2 		"/>
		<linearGradient id="SVGID_17_" gradientUnits="userSpaceOnUse" x1="0" y1="288.7593" x2="49.4317" y2="288.7593">
			<stop  offset="0" style="stop-color:#1D722B"/>
			<stop  offset="0.569" style="stop-color:#29A33D"/>
			<stop  offset="0.8574" style="stop-color:#6CDA7E"/>
		</linearGradient>
		<polygon fill="url(#SVGID_17_)" points="49.4,248.4 0,264.8 0,329.1 		"/>
		<linearGradient id="SVGID_18_" gradientUnits="userSpaceOnUse" x1="151.7852" y1="198.2012" x2="233.0996" y2="198.2012">
			<stop  offset="0" style="stop-color:#0C3112"/>
			<stop  offset="0.8294" style="stop-color:#29A33D"/>
			<stop  offset="1" style="stop-color:#6CDA7E"/>
		</linearGradient>
		<polygon fill="url(#SVGID_18_)" points="208.8,256.2 209.1,255.6 233.1,140.2 151.8,198.6 151.8,221.4 		"/>
		<linearGradient id="SVGID_19_" gradientUnits="userSpaceOnUse" x1="140.0586" y1="251.9014" x2="208.7539" y2="251.9014">
			<stop  offset="0" style="stop-color:#5CD670"/>
			<stop  offset="0.824" style="stop-color:#1D742C"/>
			<stop  offset="1" style="stop-color:#1D722B"/>
		</linearGradient>
		<polygon fill="url(#SVGID_19_)" points="208.8,256.2 197.7,282.7 140.1,281.1 151.8,221.1 		"/>
		<linearGradient id="SVGID_20_" gradientUnits="userSpaceOnUse" x1="162.626" y1="310.4912" x2="270.8526" y2="310.4912">
			<stop  offset="0.3398" style="stop-color:#0C3112"/>
			<stop  offset="0.7249" style="stop-color:#29A33D"/>
			<stop  offset="1" style="stop-color:#6CDA7E"/>
		</linearGradient>
		<polygon fill="url(#SVGID_20_)" points="162.6,367.8 208.8,256.2 209.7,253.1 270.9,312.5 		"/>
	</g>
</g>
</svg>
