<?xml version="1.0" encoding="utf-8"?>
<!-- Generator: Adobe Illustrator 18.1.0, SVG Export Plug-In . SVG Version: 6.00 Build 0)  -->
<svg version="1.1" id="Layer_1" xmlns="http://www.w3.org/2000/svg" xmlns:xlink="http://www.w3.org/1999/xlink" x="0px" y="0px"
	 viewBox="0 0 390 504.8" enable-background="new 0 0 390 504.8" xml:space="preserve">
<g>
	<polygon fill="#FDFFFF" points="259.1,277.3 194.3,224.8 129.5,277.3 	"/>
	<polygon fill="#FDFFFF" points="337.5,504.8 390,440 337.5,375.2 	"/>
	<polygon fill="#FDFFFF" points="325.4,104.3 196.8,0 68.1,104.3 	"/>
	<g>
		<polygon fill="#FDFFFF" points="65,378.3 129.8,430.8 194.5,378.3 		"/>
		<polygon fill="#FDFFFF" points="192,378.3 256.8,430.8 321.5,378.3 		"/>
		<polygon fill="#FDFFFF" points="258,431.3 193.3,378.8 128.5,431.3 		"/>
	</g>
	<g>
		<polygon fill="#FDFFFF" points="67,289.3 131.8,341.8 196.5,289.3 		"/>
		<polygon fill="#FDFFFF" points="194,289.3 258.8,341.8 323.5,289.3 		"/>
		<polygon fill="#FDFFFF" points="260,342.3 195.3,289.8 130.5,342.3 		"/>
	</g>
	<g>
		<polygon fill="#FDFFFF" points="71,128.3 135.8,180.8 200.5,128.3 		"/>
		<polygon fill="#FDFFFF" points="198,128.3 262.8,180.8 327.5,128.3 		"/>
		<polygon fill="#FDFFFF" points="264,181.3 199.3,128.8 134.5,181.3 		"/>
	</g>
	<polygon fill="#FDFFFF" points="52.5,375.2 0,440 52.5,504.8 	"/>
	<polyline fill="#FDFFFF" points="64.5,283.3 64.5,137.8 129.5,218.1 	"/>
	<polyline fill="#FDFFFF" points="325.5,283.3 325.5,137.8 260.5,218.1 	"/>
	<polygon fill="#FDFFFF" points="64.5,298 64.5,368.3 66.4,368.3 151.1,368.3 	"/>
	<polygon fill="#FDFFFF" points="324.5,299 324.5,369.3 322.2,369.3 237.5,369.3 	"/>
</g>
</svg>
