<?xml version="1.0" encoding="utf-8"?>
<!-- Generator: Adobe Illustrator 16.0.4, SVG Export Plug-In . SVG Version: 6.00 Build 0)  -->
<!DOCTYPE svg PUBLIC "-//W3C//DTD SVG 1.1//EN" "http://www.w3.org/Graphics/SVG/1.1/DTD/svg11.dtd">
<svg version="1.1" id="Layer_1" xmlns="http://www.w3.org/2000/svg" xmlns:xlink="http://www.w3.org/1999/xlink" x="0px" y="0px"
	 width="292.728px" height="52.727px" viewBox="0 0 292.728 52.727" enable-background="new 0 0 292.728 52.727"
	 xml:space="preserve">
<g>
	<path fill="#222326" d="M292.728,42.727c0,5.5-4.5,10-10,10H10c-5.5,0-10-4.5-10-10V10C0,4.5,4.5,0,10,0h272.728
		c5.5,0,10,4.5,10,10V42.727z"/>
	<path fill="#FFFFFF" d="M61,42.335c0,0.315-0.258,0.573-0.573,0.573H25.573c-0.315,0-0.573-0.258-0.573-0.573V10.48
		c0-0.314,0.258-0.572,0.573-0.572h34.854c0.315,0,0.573,0.258,0.573,0.572V42.335z"/>
	<path fill="none" stroke="#000000" stroke-width="2.292" stroke-miterlimit="10" d="M25.93,9.912l17.242,17.241
		c0.223,0.223,0.588,0.223,0.811,0l17.24-17.241"/>
</g>
<text transform="matrix(1 0 0 1 81.2725 31.6484)" fill="#FFFFFF" font-family="'OpenSans'" font-size="24">Keep in touch </text>
</svg>
