<?xml version="1.0" encoding="utf-8"?>
<!-- Generator: Adobe Illustrator 16.0.4, SVG Export Plug-In . SVG Version: 6.00 Build 0)  -->
<!DOCTYPE svg PUBLIC "-//W3C//DTD SVG 1.1//EN" "http://www.w3.org/Graphics/SVG/1.1/DTD/svg11.dtd">
<svg version="1.1" id="Layer_1" xmlns="http://www.w3.org/2000/svg" xmlns:xlink="http://www.w3.org/1999/xlink" x="0px" y="0px"
	 width="96.289px" height="96.291px" viewBox="0 0 96.289 96.291" enable-background="new 0 0 96.289 96.291" xml:space="preserve">
<g>
	<path fill="#6BB9C6" d="M96.289,48.146C96.289,21.557,74.734,0,48.145,0S0,21.557,0,48.146c0,26.59,21.555,48.146,48.145,48.146
		S96.289,74.735,96.289,48.146"/>
	<path fill="#FFFFFF" d="M51.82,71.238V50.404h6.994l1.047-8.117H51.82v-5.186c0-2.351,0.652-3.953,4.024-3.953l4.299-0.002v-7.262
		c-0.744-0.098-3.295-0.318-6.264-0.318c-6.201,0-10.443,3.785-10.443,10.731v5.989h-7.011v8.117h7.011v20.834H51.82z"/>
</g>
</svg>
