<?xml version="1.0" encoding="utf-8"?>
<!-- Generator: Adobe Illustrator 16.0.4, SVG Export Plug-In . SVG Version: 6.00 Build 0)  -->
<!DOCTYPE svg PUBLIC "-//W3C//DTD SVG 1.1//EN" "http://www.w3.org/Graphics/SVG/1.1/DTD/svg11.dtd">
<svg version="1.1" id="Layer_1" xmlns="http://www.w3.org/2000/svg" xmlns:xlink="http://www.w3.org/1999/xlink" x="0px" y="0px"
	 width="294.727px" height="54.727px" viewBox="0 0 294.727 54.727" enable-background="new 0 0 294.727 54.727"
	 xml:space="preserve">
<g>
	<path fill="#FFFFFF" d="M61.999,43.335c0,0.316-0.258,0.573-0.573,0.573H26.572c-0.315,0-0.573-0.257-0.573-0.573V11.48
		c0-0.314,0.258-0.572,0.573-0.572h34.854c0.315,0,0.573,0.258,0.573,0.572V43.335z"/>
	<path fill="none" stroke="#6BB9C6" stroke-miterlimit="10" d="M26.93,10.912l17.24,17.241c0.223,0.223,0.588,0.223,0.812,0
		l17.239-17.241"/>
	<path fill="none" stroke="#FFFFFF" stroke-width="2" stroke-miterlimit="10" d="M293.727,43.727c0,5.5-4.5,10-10,10H11
		c-5.5,0-10-4.5-10-10V11C1,5.5,5.5,1,11,1h272.727c5.5,0,10,4.5,10,10V43.727z"/>
</g>
<text transform="matrix(1 0 0 1 82.2715 32.6479)" fill="#FFFFFF" font-family="'OpenSans'" font-size="24">Keep in touch </text>
</svg>
