<?xml version="1.0" encoding="utf-8"?>
<!-- Generator: Adobe Illustrator 16.0.4, SVG Export Plug-In . SVG Version: 6.00 Build 0)  -->
<!DOCTYPE svg PUBLIC "-//W3C//DTD SVG 1.1//EN" "http://www.w3.org/Graphics/SVG/1.1/DTD/svg11.dtd">
<svg version="1.1" id="Layer_1" xmlns="http://www.w3.org/2000/svg" xmlns:xlink="http://www.w3.org/1999/xlink" x="0px" y="0px"
	 width="280.602px" height="121.959px" viewBox="0 0 280.602 121.959" enable-background="new 0 0 280.602 121.959"
	 xml:space="preserve">
<g>
	<polygon fill="#222326" points="114.542,7.242 111.498,0.589 101.214,0.589 98.339,7.242 47.994,121.873 60.377,121.873 
		73.195,90.258 106.442,8.275 139.687,90.258 152.508,121.873 164.886,121.873 	"/>
	<rect x="177.781" y="0.503" fill="#FFFFFF" width="10.604" height="121.456"/>
	<polygon fill="#FFFFFF" points="280.602,0 201.276,0 201.276,10.603 235.711,10.603 235.711,121.959 246.317,121.959 
		246.317,10.603 280.602,10.603 	"/>
	<polygon fill="#FFFFFF" points="62.985,49.098 10.604,49.098 10.604,11.191 62.397,11.191 62.397,0.589 10.604,0.589 10.604,0.503 
		0,0.503 0,121.959 10.604,121.959 10.604,59.701 62.985,59.701 	"/>
</g>
</svg>
