<?xml version="1.0" encoding="utf-8"?>
<!-- Generator: Adobe Illustrator 16.0.4, SVG Export Plug-In . SVG Version: 6.00 Build 0)  -->
<!DOCTYPE svg PUBLIC "-//W3C//DTD SVG 1.1//EN" "http://www.w3.org/Graphics/SVG/1.1/DTD/svg11.dtd">
<svg version="1.1" id="Layer_1" xmlns="http://www.w3.org/2000/svg" xmlns:xlink="http://www.w3.org/1999/xlink" x="0px" y="0px"
	 width="79.036px" height="101.011px" viewBox="0 0 79.036 101.011" enable-background="new 0 0 79.036 101.011"
	 xml:space="preserve">
<g id="Award_5_">
	<path fill="#EFDF7D" d="M39.846,33.93c-18.524,0-33.541,15.019-33.541,33.542c0,18.525,15.017,33.539,33.541,33.539
		c18.523,0,33.54-15.014,33.54-33.539C73.386,48.948,58.369,33.93,39.846,33.93z M39.846,93.067
		c-14.199,0-25.712-11.508-25.712-25.709s11.513-25.709,25.712-25.709c14.198,0,25.711,11.508,25.711,25.709
		S54.044,93.067,39.846,93.067z"/>
	<polygon fill="#EFDF7D" points="39.823,53.501 44.269,62.632 54.312,64.147 47.001,71.196 48.663,81.216 39.7,76.442 
		30.686,81.119 32.456,71.118 25.222,63.99 35.28,62.583 	"/>
	<polygon fill="#EFDF7D" points="0,0 27.471,0 37.241,16.946 29.438,31.662 20.995,35.312 	"/>
	<path fill="#EFDF7D" d="M51.841,0.226h27.195L58.553,35.312c0,0-8.232-5.295-23.911-4.357L51.841,0.226z"/>
</g>
</svg>
