<?xml version="1.0" encoding="utf-8"?>
<!-- Generator: Adobe Illustrator 16.0.4, SVG Export Plug-In . SVG Version: 6.00 Build 0)  -->
<!DOCTYPE svg PUBLIC "-//W3C//DTD SVG 1.1//EN" "http://www.w3.org/Graphics/SVG/1.1/DTD/svg11.dtd">
<svg version="1.1" id="Layer_1" xmlns="http://www.w3.org/2000/svg" xmlns:xlink="http://www.w3.org/1999/xlink" x="0px" y="0px"
	 width="106.983px" height="83.937px" viewBox="0 0 106.983 83.937" enable-background="new 0 0 106.983 83.937"
	 xml:space="preserve">
<g id="Picture_3_">
	<g>
		<g>
			<path fill="#D77676" d="M51.62,29.208c9.617,4.802,17.035,16.078,17.035,16.078C68.298,27.821,51.62,29.208,51.62,29.208z"/>
		</g>
		<g>
			<g>
				<path fill="#D77676" d="M1.707,4.037C0.768,4.037,0,4.805,0,5.744V82.23c0,0.938,0.768,1.707,1.707,1.707h103.57
					c0.938,0,1.707-0.768,1.707-1.707V5.744c0-0.938-0.768-1.707-1.707-1.707H1.707z M19.033,25.704c-3.904,0-7.07-3.104-7.07-6.937
					s3.166-6.937,7.07-6.937s7.07,3.104,7.07,6.937S22.937,25.704,19.033,25.704z M55.105,69.806
					c-13.8,0-24.994-10.977-24.994-24.52c0-13.536,11.194-24.514,24.994-24.514c13.8,0,24.994,10.978,24.994,24.514
					C80.099,58.829,68.905,69.806,55.105,69.806z"/>
			</g>
		</g>
		<rect id="Button_1_" x="7.011" fill="#D77676" width="19.234" height="6.682"/>
	</g>
</g>
</svg>
