<?xml version="1.0" encoding="utf-8"?>
<!-- Generator: Adobe Illustrator 16.0.4, SVG Export Plug-In . SVG Version: 6.00 Build 0)  -->
<!DOCTYPE svg PUBLIC "-//W3C//DTD SVG 1.1//EN" "http://www.w3.org/Graphics/SVG/1.1/DTD/svg11.dtd">
<svg version="1.1" id="Layer_1" xmlns="http://www.w3.org/2000/svg" xmlns:xlink="http://www.w3.org/1999/xlink" x="0px" y="0px"
	 width="141.615px" height="114.616px" viewBox="0 0 141.615 114.616" enable-background="new 0 0 141.615 114.616"
	 xml:space="preserve">
<g id="HeadohonesPlug_10_">
	<path fill="none" stroke="#9F7D92" stroke-width="3" stroke-miterlimit="10" d="M19.824,55.569c0,0-2.419-54.068,51.834-54.068
		c0,0,49.095-0.889,49.095,54.068"/>
	<path fill="#9F7D92" d="M114.938,51.093v53.354c0,0,1.325,8.818,11.464,0c0,0,14.775-9.09,15.213-24.719
		C141.615,79.728,141.615,44.698,114.938,51.093z"/>
	<path fill="#9F7D92" d="M26.674,51.093v53.354c0,0-1.322,8.818-11.461,0c0,0-14.773-9.09-15.213-24.719
		C0,79.728,0,44.698,26.674,51.093z"/>
	<path fill="#9F7D92" d="M18.613,81.222l1.899-8.285c0,0,1.006-3.012,3.014-3.012c0,0,2.511,1.504,2.762,7.279l1.004,6.277
		c0,0,0.753,6.027,2.008,0l2.01-14.561c0,0,1.004-4.521,2.511-4.521c0,0,3.012,0.67,3.012,10.881l1.004,12.217
		c0,0,0.503,4.27,1.507-2.508l2.258-22.096c0,0,0.503-6.275,2.511-6.025c0,0,3.515,1.758,4.018,21.342l1.004,16.318l2.761-37.668
		c0,0,0.503-6.77,2.258-6.77c0,0,3.015,3.516,3.265,18.576l1.507,25.861c0,0,1.004,3.266,1.254,0l2.761-44.438
		c0,0,0.754-4.27,1.758-4.27c0,0,2.261,1.256,2.261,6.277l2.762,48.205c0,0,0.503,0.504,1.254-7.281l2.511-44.439
		c0,0,0.253-4.268,2.261-4.521c0,0,1.254,1.258,1.507,4.771l2.258,43.436c0,0,1.257,0.754,1.507-5.271l2.761-35.904
		c0,0,0.754-4.268,2.261-4.268c0,0,2.008,2.26,2.008,4.02l2.258,41.424c0,0,0.753-1.004,1.256-5.773l2.259-30.127
		c0,0,0.753-3.016,2.261-3.016c0,0,2.008,2.512,2.008,3.516l2.261,32.891c0,0,2.509,2.762,2.258-1.508c0,0,1.257-23.35,1.757-24.354
		c0,0,0.754-2.762,2.261-2.762c0,0,2.008,1.006,2.008,2.512l2.261,22.096c0,0,2.008,1.004,2.508-3.516l2.261-12.053
		c0,0,4.52-3.766,4.77,0l1.507,18.33l-3.265-13.309c0,0-1.254,0-1.505,3.014l-2.261,10.545c0,0-4.269,8.033-5.773,1.506
		l-2.261-19.582c0,0-1.507,0.006-1.507,1.51l-1.254,25.104c0,0-1.004,4.77-2.762,5.02c0,0-2.762-2.508-2.762-5.02l-2.261-28.371
		c0,0-2.008,1.506-1.757,4.268c0,0-2.008,30.883-2.258,33.393c0,0-2.762,3.514-3.515,0l-2.261-46.197c0,0-1.758,2.26-1.758,4.77
		l-1.757,42.99c0,0-0.25,5.217-2.511,5.217c0,0-2.761-4.02-2.761-5.525L75.75,68.417c0,0-1.757,4.02-1.757,6.279l-1.507,37.406
		c0,0,0.36,2.514-2.205,2.514c0,0-2.565-1.006-3.068-13.809l-1.758-32.641c0,0-1.004,0.754-1.004,3.262l-2.258,34.148
		c0,0-0.503,6.275-2.764,6.275c0,0-3.012-6.275-3.263-15.818l-1.004-25.105c0,0-1.757,0-1.757,2.762c0,0-2.01,26.865-2.511,28.873
		c0,0-3.515,3.264-4.269-3.014l-2.008-30.629c0,0-1.507,0.5-1.758,2.008l-2.01,22.344c0,0-1.254,4.02-2.258,4.02
		c0,0-2.511-1.758-3.265-12.805l-1.004-11.551c0,0-1.758,4.463-1.758,6.373l-1.507,8.941c0,0-4.266,5.525-5.773-0.5L24.027,76.2
		c0,0-1.755,3.766-2.259,5.773l-3.155,3.016V81.222z"/>
</g>
</svg>
