<?xml version="1.0" encoding="utf-8"?>
<!-- Generator: Adobe Illustrator 16.0.4, SVG Export Plug-In . SVG Version: 6.00 Build 0)  -->
<!DOCTYPE svg PUBLIC "-//W3C//DTD SVG 1.1//EN" "http://www.w3.org/Graphics/SVG/1.1/DTD/svg11.dtd">
<svg version="1.1" id="Layer_1" xmlns="http://www.w3.org/2000/svg" xmlns:xlink="http://www.w3.org/1999/xlink" x="0px" y="0px"
	 width="49.29px" height="49.291px" viewBox="0 0 49.29 49.291" enable-background="new 0 0 49.29 49.291" xml:space="preserve">
<g>
	<path fill="#3B5991" d="M49.29,24.646C49.29,11.035,38.256,0,24.645,0S0,11.035,0,24.646c0,13.611,11.034,24.646,24.645,24.646
		S49.29,38.257,49.29,24.646"/>
	<path fill="#FFFFFF" d="M26.526,36.467V25.802h3.58l0.536-4.155h-4.116v-2.654c0-1.203,0.334-2.023,2.06-2.023l2.201-0.001V13.25
		c-0.381-0.05-1.687-0.163-3.207-0.163c-3.174,0-5.346,1.938-5.346,5.494v3.065h-3.589v4.155h3.589v10.665H26.526z"/>
</g>
</svg>
