<?xml version="1.0" encoding="utf-8"?>
<!-- Generator: Adobe Illustrator 16.0.4, SVG Export Plug-In . SVG Version: 6.00 Build 0)  -->
<!DOCTYPE svg PUBLIC "-//W3C//DTD SVG 1.1//EN" "http://www.w3.org/Graphics/SVG/1.1/DTD/svg11.dtd">
<svg version="1.1" id="Layer_1" xmlns="http://www.w3.org/2000/svg" xmlns:xlink="http://www.w3.org/1999/xlink" x="0px" y="0px"
	 width="68.909px" height="68.501px" viewBox="0 0 68.909 68.501" enable-background="new 0 0 68.909 68.501" xml:space="preserve">
<g id="Video_2_">
	<g id="CameBody_4_">
		<path fill="#FFFFFF" d="M54.822,65.278c0,0.947-0.775,1.723-1.723,1.723H1.723C0.775,67.001,0,66.226,0,65.278v-37.5
			c0-0.947,0.775-1.723,1.723-1.723H53.1c0.947,0,1.723,0.775,1.723,1.723V65.278z"/>
	</g>
	<g id="CamLens_4_">
		<path fill="#FFFFFF" d="M68.909,25.452c0-0.947-0.554-1.18-1.229-0.516L54.706,37.663c-0.676,0.664-1.229,1.982-1.229,2.93
			l-0.002,11.918c0,0.947,0.555,2.265,1.231,2.928l12.971,12.686c0.677,0.663,1.231,0.43,1.231-0.518L68.909,25.452z"/>
	</g>
	<g id="Film_1_">
		<path id="Left_2_" fill="#FFFFFF" d="M26.263,11.933c0,6.59-5.446,11.934-12.163,11.934l0,0c-6.719,0-12.164-5.344-12.164-11.934
			l0,0C1.936,5.343,7.381,0,14.1,0l0,0C20.816,0,26.263,5.343,26.263,11.933L26.263,11.933z"/>
		<path id="Right_2_" fill="#FFFFFF" d="M50.588,11.933c0,6.59-5.443,11.934-12.162,11.934l0,0c-6.718,0-12.163-5.344-12.163-11.934
			l0,0C26.263,5.343,31.708,0,38.426,0l0,0C45.145,0,50.588,5.343,50.588,11.933L50.588,11.933z"/>
		<path id="Bottom_1_" fill="#FFFFFF" d="M1.865,11.528c0,0-0.742,11.562,12.234,12.201h26.154c0,0,10.297-1.523,10.334-12.201
			H1.865z"/>
	</g>
</g>
<polygon fill="#6BB9C6" points="19.554,46.151 19.554,34.746 29.146,40.448 38.882,46.151 29.218,51.853 19.554,57.556 "/>
</svg>
