<?xml version="1.0" standalone="no"?>
<!DOCTYPE svg PUBLIC "-//W3C//DTD SVG 1.1//EN" "http://www.w3.org/Graphics/SVG/1.1/DTD/svg11.dtd" >
<svg xmlns="http://www.w3.org/2000/svg">
<metadata></metadata>
<defs>
<font id="patinio_iagency_roundedRg" horiz-adv-x="1723" >
<font-face units-per-em="2048" ascent="1638" descent="-410" />
<missing-glyph horiz-adv-x="699" />
<glyph horiz-adv-x="2048" />
<glyph horiz-adv-x="2048" />
<glyph unicode="&#xd;" horiz-adv-x="696" />
<glyph unicode=" "  horiz-adv-x="699" />
<glyph unicode="&#x09;" horiz-adv-x="699" />
<glyph unicode="&#xa0;" horiz-adv-x="699" />
<glyph unicode="!" horiz-adv-x="672" d="M44 1435h531v-877h-350zM221 172q0 71 53 122q52 50 126 50t126 -50q53 -51 53 -122t-53 -122q-52 -50 -126 -50t-126 50q-53 51 -53 122z" />
<glyph unicode="&#x22;" horiz-adv-x="900" d="M57 1105q35 20 70 72q69 105 69 267q0 58 41 99t100 41q58 0 99 -41t41 -99q0 -172 -210 -273q-105 -50 -210 -66zM381 1105q35 20 70 72q69 105 69 267q0 58 41 99t100 41q58 0 99 -41t41 -99q0 -172 -210 -273q-105 -50 -210 -66z" />
<glyph unicode="#" horiz-adv-x="1625" d="M0 451q0 70 50 119q49 50 119 50h172v185h-169q-70 0 -120 50q-49 49 -49 119t49 120q50 50 120 50h169v119q0 70 50 120q49 49 120 49q70 0 119 -49q50 -50 50 -120v-119h191v122q0 70 49 119q50 50 120 50t120 -50q49 -49 49 -119v-122h146q71 0 120 -50 q50 -50 50 -120t-50 -119q-49 -50 -120 -50h-146v-185h146q71 0 120 -50q50 -49 50 -119q0 -71 -50 -120q-49 -50 -120 -50h-146v-112q0 -70 -49 -119q-50 -50 -120 -50t-120 50q-49 49 -49 119v112h-191v-104q0 -70 -50 -119q-49 -50 -119 -50q-71 0 -120 50 q-50 49 -50 119v104h-172q-70 0 -119 50q-50 49 -50 120zM680 620h191v185h-191v-185z" />
<glyph unicode="$" horiz-adv-x="1732" d="M104 881q-1 225 2 249q0 188 165 263q83 38 165 38h353v173h149v-173h115q18 1 16 1q70 0 120 -50t50 -120q0 -71 -50 -120q-50 -50 -120 -50v-2h-131v-202h340q85 0 171 -42q170 -83 170 -292l4 -209q0 -85 -42 -170q-83 -171 -292 -171h-351v-157h-149v157h-224v2 q-71 0 -121 49q-49 50 -49 121q0 70 49 120q50 50 121 50h3q3 -1 4 -1h217v202h-344q-85 0 -171 42q-170 84 -170 292zM445 989q0 -59 35 -83q28 -19 84 -19l225 1v202h-228q-43 0 -73 -18q-43 -26 -43 -83zM938 345h226q113 0 113 93q0 53 -34 82q-30 26 -80 27h-225v-202z " />
<glyph unicode="%" horiz-adv-x="1498" d="M95 3l970 1432h337l-970 -1432h-337zM98 1030v274q0 31 15 63q31 63 108 63h307q77 0 108 -63q16 -32 16 -63v-274q0 -78 -62 -110q-31 -15 -62 -15h-307q-25 0 -53 11q-54 23 -67 81h-1l1 1q-3 17 -3 32zM223 1102l234 202h-191q-18 0 -30 -13q-13 -13 -13 -31v-158z M263 1029q6 0 3 0h219q18 0 31 13q13 12 13 30v186zM852 126v273q0 32 16 63q30 63 107 63h308q77 0 108 -63q15 -31 15 -63v-273q0 -79 -62 -110q-30 -16 -61 -16h-308q-25 0 -52 12q-55 23 -67 80h-1l1 1q-4 17 -4 33zM977 198l234 201h-190q-18 0 -31 -12 q-13 -13 -13 -31v-158zM1018 124q5 0 3 0h219q18 0 31 13q12 13 12 31v185z" />
<glyph unicode="&#x26;" horiz-adv-x="1707" d="M103 344v202q0 42 20 85q39 85 134 85q-95 0 -134 83q-20 42 -20 84v208q0 215 155 301q78 43 155 43h500q77 0 154 -43q154 -86 154 -301v-199l215 -1q43 1 85 -20q85 -42 85 -148q0 -105 -85 -147q-42 -21 -85 -21h-128l1 -84q0 -50 32 -85t78 -35h17q43 -1 85 -23 q85 -45 85 -150t-85 -148q-42 -22 -85 -23h-133q-87 0 -152 38q-76 -43 -151 -45h-589q-77 0 -154 43q-154 86 -154 301zM418 446q0 -41 32 -70q32 -30 77 -30l468 -1v6v196h-468q-45 0 -77 -30t-32 -71zM418 974q0 -81 109 -81h386v81q0 67 -46 100q-23 16 -46 19h-294 q-27 0 -54 -15q-55 -31 -55 -104z" />
<glyph unicode="'" horiz-adv-x="557" d="M40 1105q35 20 70 72q69 105 69 267q0 58 41 99t100 41q58 0 99 -41t41 -99q0 -172 -210 -273q-105 -50 -210 -66z" />
<glyph unicode="(" horiz-adv-x="780" d="M96 210v994q0 79 38 157q77 156 268 156h116v-1q64 -2 108 -47q44 -46 44 -109q0 -65 -46 -111t-110 -46q3 0 -3 1q-43 -2 -73 -34q-30 -31 -30 -74v-777q0 -45 31 -77q32 -31 77 -32l1 1h1q65 0 110 -46q46 -46 46 -111q0 -64 -46 -110q-45 -46 -110 -46v-1h-116 q-77 0 -153 39q-153 78 -153 274z" />
<glyph unicode=")" horiz-adv-x="780" d="M96 54q0 65 46 111t110 46h1l1 -1q45 1 77 32q31 32 31 77v777q0 43 -30 74q-29 32 -73 34q-5 -1 -2 -1q-65 0 -111 46t-46 111q0 63 44 109q45 45 108 47v1h116q191 0 268 -156q38 -78 38 -157v-994q0 -196 -153 -274q-76 -39 -153 -39h-116v1q-64 0 -110 46t-46 110z " />
<glyph unicode="*" horiz-adv-x="1134" d="M103 1135l162 215l164 -123v210h269v-208l162 123l163 -215l-236 -180l237 -179l-162 -215l-298 224l-296 -226l-164 214l237 181z" />
<glyph unicode="+" horiz-adv-x="1739" d="M103 715q0 70 50 120t120 50h424v376q0 70 50 120t121 50q70 0 120 -50t50 -120v-376h424q71 0 120 -50q50 -50 50 -120q0 -71 -50 -121q-49 -49 -120 -49h-424v-375q0 -70 -50 -120t-120 -50q-71 0 -121 50t-50 120v375h-424q-70 0 -120 49q-50 50 -50 121z" />
<glyph unicode="," horiz-adv-x="580" d="M-83 -239q46 27 93 97q93 139 93 355q0 78 55 133t133 55q77 0 132 -55t55 -133q0 -229 -280 -363q-141 -67 -281 -89z" />
<glyph unicode="-" horiz-adv-x="1701" d="M97 714q0 69 49 119q49 49 119 49h1176q70 0 119 -49q49 -50 49 -119q0 -70 -49 -119t-119 -49h-1176q-70 0 -119 49t-49 119z" />
<glyph unicode="." horiz-adv-x="606" d="M105 200q0 83 59 141q58 59 141 59t141 -59q59 -58 59 -141t-59 -141q-58 -59 -141 -59t-141 59q-59 58 -59 141z" />
<glyph unicode="/" horiz-adv-x="1430" d="M39 0l987 1435h343l-987 -1435h-343z" />
<glyph unicode="0" horiz-adv-x="1698" d="M104 343v749q0 85 42 172q84 171 294 171h840q212 0 296 -171q42 -87 42 -172v-749q0 -215 -168 -300q-84 -43 -170 -43h-840q-69 0 -143 32q-150 63 -183 221h-2l2 1q-10 46 -10 89zM446 459q0 -49 35 -84q32 -31 75 -34v-1h5q3 -1 4 -1h598q50 0 85 35q32 33 34 80 l1 -1v433v80v7q0 49 -35 84q-35 36 -86 36h-431l1 -1h-167q-49 0 -84 -35t-35 -85v-432v-81z" />
<glyph unicode="1" horiz-adv-x="1200" d="M105 1262q0 107 85 148q43 21 86 21h831v-1260q0 -42 -21 -85q-42 -86 -149 -86q-106 0 -148 86q-21 44 -21 87v920h-491q-43 -1 -86 20q-86 42 -86 149z" />
<glyph unicode="2" d="M102 551q0 210 157 293q78 42 157 42h767q46 2 74 28q31 29 31 82q0 93 -104 93h-524q-43 0 -85 21q-86 44 -86 151q0 108 86 150q42 21 85 20h639q192 0 269 -171q38 -86 38 -171l-3 -210q0 -209 -157 -293q-78 -41 -157 -41h-764q-52 0 -77 -19q-32 -24 -32 -83 q0 -57 39 -83q28 -18 68 -18h905q42 0 85 -21q84 -43 84 -149q0 -107 -84 -150q-43 -22 -85 -22h-1020q-76 0 -152 38q-152 75 -152 263q-3 25 -2 250z" />
<glyph unicode="3" horiz-adv-x="1726" d="M92 171q0 106 86 149q42 22 85 23h939q45 0 77 35t32 84v84h-696q-42 0 -84 21q-84 42 -84 148q0 107 84 147q42 21 84 20h696v87q0 50 -32 85t-77 35h-939q-43 0 -85 21q-86 43 -86 150t86 150q42 22 85 22h1054q77 0 153 -43q154 -85 154 -300v-746q0 -86 -38 -172 q-77 -171 -269 -171h-1054q-43 1 -85 22q-86 44 -86 149z" />
<glyph unicode="4" horiz-adv-x="1625" d="M102 888v391q0 39 20 78q39 78 138 78t138 -78q19 -39 19 -78l-1 -273q0 -49 33 -84q32 -35 77 -35h668v392q-1 39 17 78q36 78 134 78q99 0 137 -78q20 -39 19 -78v-1124q0 -38 -20 -77q-39 -78 -135 -78t-134 78q-19 39 -18 77l-1 393h-780q-193 0 -271 170 q-39 85 -40 170z" />
<glyph unicode="5" horiz-adv-x="1708" d="M100 170q0 108 86 151q42 22 85 22h916q104 0 104 94q0 53 -32 82q-28 26 -73 27h-1080l-2 889h1326q43 0 86 -22q85 -43 85 -150t-85 -150q-43 -21 -86 -21h-1013v-204l875 1q78 0 157 -42q157 -84 157 -294l4 -210q0 -86 -39 -171q-77 -172 -269 -172h-1031 q-43 -1 -85 20q-86 42 -86 150z" />
<glyph unicode="6" horiz-adv-x="1726" d="M95 344v747q0 215 154 301q77 43 154 43h741q43 -1 87 -22q87 -44 87 -150q0 -107 -87 -150q-44 -22 -87 -23h-625q-46 0 -78 -35t-32 -84v-80h908q193 0 270 -172q39 -86 39 -172v-37v-166q0 -86 -38 -172q-78 -172 -272 -172h-913q-192 0 -269 172q-39 86 -39 172z M409 463q0 -49 32 -84t78 -35h690q45 0 75 31q31 32 31 78q0 47 -29 77t-74 30l-803 -2v-95z" />
<glyph unicode="7" horiz-adv-x="1715" d="M101 1253q0 106 90 152q44 24 89 26h836q193 0 270 -172q38 -86 38 -172v-221q45 1 90 -19q89 -41 89 -149t-89 -151q-45 -21 -90 -20v-368q0 -40 -19 -79q-39 -80 -137 -80q-97 0 -137 80q-20 39 -21 79v368h-412q-44 -1 -89 20q-90 42 -90 151q0 108 90 149 q45 20 89 19h412v101q0 50 -32 85t-78 35h-720q-45 -1 -89 20q-90 41 -90 146z" />
<glyph unicode="8" horiz-adv-x="1726" d="M108 304v317q0 68 22 98q11 15 22 16q-44 22 -44 71v290q0 155 96 251q89 88 216 88h909q150 0 237 -114q75 -97 75 -231v-241q0 -87 -44 -114q11 -1 22 -16q22 -30 22 -98v-319q0 -136 -91 -220q-88 -82 -221 -82h-909q-118 0 -206 69q-106 84 -106 235zM442 442 q0 -102 140 -102h546q162 0 162 102q0 63 -11 79q-15 22 -73 22h-677q-59 0 -75 -22q-12 -17 -12 -79zM442 993q0 -62 10 -78q15 -22 74 -22h676q60 0 76 22q12 17 12 78q0 103 -140 103h-546q-162 0 -162 -103z" />
<glyph unicode="9" d="M95 925v166q0 86 39 172q77 172 271 172h913q193 0 270 -172q38 -86 38 -172v-747q0 -215 -154 -301q-77 -43 -154 -43h-740q-44 1 -87 22q-88 44 -88 150q0 107 88 150q43 22 87 23h625q45 0 77 35t32 84v80h-908q-193 0 -270 172q-38 86 -38 172v37h-1zM407 982 q0 -47 29 -77q28 -30 74 -30l802 2v95q0 49 -32 84t-77 35h-690q-46 0 -76 -31q-30 -32 -30 -78z" />
<glyph unicode=":" horiz-adv-x="600" d="M105 200q0 83 59 141q58 59 141 59t141 -59q59 -58 59 -141t-59 -141q-58 -59 -141 -59t-141 59q-59 58 -59 141zM105 1234q0 83 59 141q58 59 141 59t141 -59q59 -58 59 -141t-59 -141q-58 -59 -141 -59t-141 59q-59 58 -59 141z" />
<glyph unicode=";" horiz-adv-x="600" d="M-73 -239q46 27 93 97q93 139 93 355q0 78 55 133t133 55q77 0 132 -55t55 -133q0 -229 -280 -363q-141 -67 -281 -89zM105 1234q0 83 59 141q58 59 141 59t141 -59q59 -58 59 -141t-59 -141q-58 -59 -141 -59t-141 59q-59 58 -59 141z" />
<glyph unicode="&#x3c;" horiz-adv-x="858" d="M100 733l422 421q39 39 93 39q55 0 94 -39t39 -94t-39 -93l-234 -234l234 -235q39 -38 39 -93t-39 -94t-94 -39q-54 0 -93 39z" />
<glyph unicode="=" horiz-adv-x="1713" d="M97 436q0 69 49 119q49 49 119 49h1176q70 0 119 -49q49 -50 49 -119q0 -70 -49 -119t-119 -49h-1176q-70 0 -119 49t-49 119zM97 1019q0 69 49 119q49 49 119 49h1176q70 0 119 -49q49 -50 49 -119q0 -70 -49 -119t-119 -49h-1176q-70 0 -119 49t-49 119z" />
<glyph unicode="&#x3e;" horiz-adv-x="862" d="M100 405q0 55 39 93l234 235l-234 234q-39 38 -39 93t39 94t94 39t93 -39l422 -421l-422 -422q-38 -39 -93 -39t-94 39t-39 94z" />
<glyph unicode="?" horiz-adv-x="1726" d="M99 703v4v4q1 2 1 4v377q0 86 42 171q84 172 295 172h848q210 0 294 -172q42 -85 42 -171l-4 -225q0 -210 -172 -294q-86 -42 -171 -42h-243q-66 0 -100 -59q-17 -30 -20 -60h-347l5 126q0 210 171 294q86 42 172 42h246q48 1 81 35q34 34 34 81q-2 37 -20 62 q-29 40 -94 40h-604q-50 0 -85 -35t-35 -85l2 -262v-2v-1q0 3 0 -4v-5h-1q-3 -67 -52 -114q-48 -47 -116 -47q-67 0 -116 47q-49 46 -52 114q0 2 -1 5zM575 172q0 71 51 121q50 50 121 50t121 -50q51 -50 51 -121t-51 -122q-50 -50 -121 -50t-121 50q-51 51 -51 122z M1274 978v8v-8z" />
<glyph unicode="@" horiz-adv-x="2330" d="M103 648q41 593 454 875q198 135 424 176l186 13q445 0 755 -312q309 -310 309 -752q0 -472 -261 -590q-165 -75 -360 -3q-91 33 -141 138q-26 52 -33 98h-537q-134 0 -188 109q-27 54 -27 109v105h1v24q0 55 27 109q53 109 186 109h534v50q0 32 -22 54t-54 22h-457v1 q-44 2 -74 34q-31 31 -31 75q0 45 32 77t77 32h533q53 0 107 -27q106 -55 106 -191v-670q-7 -78 55 -98q163 -53 256 100q77 129 77 333q0 360 -255 615t-615 255t-615 -255t-255 -615t255 -615t615 -255q1001 0 1050 1q-1 -29 0 -97q1 -62 0 -97q-61 -1 -1050 -1 q-441 0 -752 312q-312 311 -312 752zM900 578q0 -29 21 -49t53 -20h382q32 0 54 22t22 54v60l-460 1q-32 0 -52 -19t-20 -49z" />
<glyph unicode="A" d="M102 170v918q0 216 170 304q85 43 170 43h852q85 0 171 -43q171 -88 171 -304v-918q0 -42 -22 -85q-42 -85 -148 -85q-105 0 -149 85q-22 43 -23 85v375h-852v-375q0 -42 -22 -85q-42 -85 -148 -85t-149 85q-21 43 -21 85zM442 884h848v82q0 51 -36 86q-36 36 -85 36 h-607q-49 0 -85 -36q-35 -35 -35 -86v-82z" />
<glyph unicode="B" horiz-adv-x="1720" d="M99 0v971v118q0 214 154 299q76 43 153 43h908q78 0 155 -43q154 -85 154 -299v-201q0 -42 -20 -83q-39 -84 -133 -84q94 0 133 -84q20 -43 20 -85v-209q0 -214 -154 -300q-76 -43 -153 -43h-1217zM405 344l795 1q46 0 78 27q32 28 32 71q0 44 -32 77q-33 33 -78 33h-794 zM405 972l1 -81h794q47 0 78 30q32 31 32 80q0 22 -13 45q-27 45 -97 45h-685q-46 0 -78 -35t-32 -84z" />
<glyph unicode="C" horiz-adv-x="1730" d="M98 342v747q0 85 38 171q77 171 269 171h1056q42 -1 85 -22q85 -44 85 -150q0 -105 -85 -149q-43 -21 -85 -21h-941q-45 0 -77 -35t-32 -85v-507q0 -49 32 -84t77 -35h941q42 0 85 -21q85 -43 85 -149t-85 -150q-43 -22 -85 -23h-1056q-77 0 -153 43q-154 85 -154 299z " />
<glyph unicode="D" horiz-adv-x="1726" d="M102 0v1435h1230q194 0 271 -172q39 -86 39 -171v-749q0 -214 -155 -300q-77 -43 -155 -43h-1230zM410 344h815q45 0 77 35t32 85v508q0 50 -32 85t-77 35h-815v-748z" />
<glyph unicode="E" horiz-adv-x="1720" d="M99 342v747q0 85 38 171q77 171 269 171h1053q43 -1 85 -22q86 -44 86 -149q0 -106 -86 -149q-42 -22 -85 -22h-938q-45 0 -77 -35t-32 -85v-83h695q42 0 84 -22q84 -42 84 -148t-84 -147q-40 -19 -80 -19h-4h-695v-88q0 -49 32 -84t77 -35h938q43 0 85 -21 q86 -44 86 -150q0 -107 -86 -150q-42 -22 -85 -22h-1053q-77 0 -153 43q-154 85 -154 299z" />
<glyph unicode="F" horiz-adv-x="1726" d="M102 159v933q0 85 38 171q77 172 270 172h1054q44 0 87 -21q86 -43 86 -150t-86 -151q-43 -21 -87 -21h-939q-45 0 -77 -35t-32 -85v-84h698q42 -1 84 -22q84 -43 84 -146q0 -104 -84 -147q-42 -21 -84 -22h-698v-392q0 -40 -19 -80q-38 -79 -136 -79t-139 79 q-20 40 -20 80z" />
<glyph unicode="G" d="M100 344v750q0 85 42 172q84 172 295 172h1014q43 0 85 -21q85 -42 85 -149t-85 -151q-42 -22 -85 -23h-888q-50 0 -85 -35q-35 -34 -35 -85v-509q0 -50 35 -85t85 -35l723 -1v208h-347q-42 0 -85 21q-84 43 -84 147q0 105 85 148q42 21 85 22h682v-890h-1185 q-84 0 -169 43q-168 86 -168 301z" />
<glyph unicode="H" horiz-adv-x="1726" d="M102 157v1119q-1 39 18 77q37 78 135 78q99 0 136 -78q19 -38 18 -77v-394h892v394q0 39 20 77q39 78 135 78q97 0 134 -78q19 -38 18 -77v-1120q1 -39 -18 -78q-37 -78 -134 -78q-96 0 -135 78q-20 39 -20 78v390h-892v-389q1 -40 -18 -79q-38 -78 -134 -78t-135 78 q-19 39 -20 79z" />
<glyph unicode="I" horiz-adv-x="515" d="M103 157v1122q-1 39 18 78q37 78 136 78t136 -78q19 -39 18 -78v-1122q0 -39 -18 -78q-38 -79 -134 -79q-97 0 -136 79q-19 39 -20 78z" />
<glyph unicode="J" d="M99 172q0 105 86 149q42 22 85 22h941q45 0 77 35t32 85v635h-347q-42 0 -85 21q-85 42 -85 147t85 148q43 21 85 21h661v-1092q0 -85 -38 -171q-77 -172 -270 -172h-1056q-43 1 -85 23q-86 44 -86 149z" />
<glyph unicode="K" horiz-adv-x="1715" d="M96 156v1122q1 39 20 78q39 78 135 78q97 0 134 -78q19 -39 19 -78v-392h569l314 493q14 26 44 43q24 14 50 14q37 0 80 -28q61 -41 61 -100q0 -9 -1 -19q-6 -36 -26 -62l-214 -341h29q193 0 271 -170q39 -85 40 -169v-391q0 -39 -20 -78q-39 -78 -138 -78t-138 78 q-19 39 -18 78v272q0 50 -32 85t-78 35h-793l-1 -392v-7q0 -35 -17 -71q-36 -78 -134 -78t-137 78q-19 39 -19 78z" />
<glyph unicode="L" d="M102 343v935q0 39 20 78q39 79 137 79q99 0 138 -79q19 -39 19 -78v-815q0 -50 32 -85t77 -35h940h4l82 -20q86 -42 86 -150t-86 -151q-43 -22 -86 -22h-1055q-193 0 -270 172q-38 86 -38 171z" />
<glyph unicode="M" horiz-adv-x="1733" d="M107 173l1 1258h1185q85 0 170 -42q171 -84 171 -293v-922q1 -43 -20 -86q-43 -87 -150 -87t-150 87q-21 43 -21 86v797q0 49 -35 85q-35 34 -85 34h-130v-662q0 -43 -21 -86q-42 -87 -147 -87t-147 87q-21 43 -20 86v662h-254v-916q0 -44 -22 -87q-43 -87 -151 -87 q-109 0 -152 86q-22 43 -22 87z" />
<glyph unicode="N" horiz-adv-x="1704" d="M99 165v1103q0 42 20 84q41 83 141 83q69 0 128 -43q28 -20 43 -41l838 -834l1 752q-1 41 20 83q41 83 146 83q106 0 146 -84q20 -41 19 -83v-1083q1 -43 -19 -85q-40 -85 -145 -85q-74 0 -128 50q-27 26 -40 51l-838 844v-795q1 -41 -20 -82q-41 -83 -144 -83 q-104 0 -147 82q-21 42 -21 83z" />
<glyph unicode="O" horiz-adv-x="1713" d="M104 343v749q0 85 42 172q84 171 294 171h840q212 0 296 -171q42 -87 42 -172v-749q0 -215 -168 -300q-84 -43 -170 -43h-840q-69 0 -143 32q-150 63 -183 221h-2l2 1q-10 46 -10 89zM446 459q0 -49 35 -84q32 -31 75 -34v-1h5q3 -1 4 -1h598q50 0 85 35q32 33 34 80 l1 -1v433v80v7q0 49 -35 84q-35 36 -86 36h-431l1 -1h-167q-49 0 -84 -35t-35 -85v-432v-81z" />
<glyph unicode="P" horiz-adv-x="1720" d="M102 172v1259l1218 -2q77 0 154 -43q153 -85 153 -297v-200q0 -83 -39 -166q-77 -167 -269 -167h-876v-384q0 -43 -21 -86q-42 -86 -148 -86q-105 0 -149 86q-22 43 -23 86zM443 892h764q46 0 74 22q33 26 33 78t-33 77q-28 22 -74 22h-764v-199z" />
<glyph unicode="Q" horiz-adv-x="1716" d="M101 338v751q0 86 42 172q85 172 295 172h843q212 0 296 -172q42 -87 42 -172v-751q0 -215 -169 -301q-84 -43 -169 -43h-263v-28q0 -40 -20 -79q-40 -79 -139 -79t-138 79q-19 39 -19 79v28h-264q-69 0 -143 32q-151 64 -184 221h-2l2 1q-10 46 -10 90zM444 455 q0 -49 35 -85q32 -31 75 -34v-1h6q2 -1 4 -1h138q0 39 19 77q39 78 138 78t139 -78q20 -38 20 -77h145q50 0 85 35q33 34 34 80l1 -1v435h1v79l-1 1v7q0 49 -35 84t-86 35h-432h-166q-50 0 -85 -35t-35 -86v-432v-1v-80z" />
<glyph unicode="R" horiz-adv-x="1704" d="M97 155v1280l1193 -6q78 0 155 -43q155 -86 155 -300v-201q0 -42 -20 -84q-39 -83 -134 -83q95 0 134 -85q20 -43 20 -85v-390q0 -40 -20 -79q-39 -79 -138 -79q-98 0 -137 79q-20 39 -19 79v272q0 49 -32 84q-33 35 -78 35h-771l-1 -394q1 -39 -18 -78q-38 -77 -135 -77 q-96 0 -135 77q-19 39 -19 78zM405 887h771q41 0 71 30q31 28 37 71q-7 43 -37 71q-30 29 -71 29h-771v-201z" />
<glyph unicode="S" horiz-adv-x="1720" d="M103 170q0 108 86 151q42 22 85 22h916q104 0 104 94q0 53 -32 82q-28 26 -73 27h-770q-79 0 -158 42q-157 84 -157 294v100q0 132 2 151q0 189 152 264q76 38 153 38h1022q43 0 86 -22q85 -43 85 -150t-85 -150q-43 -21 -86 -21h-907q-40 0 -68 -18q-39 -26 -39 -83 q0 -60 32 -84q25 -19 77 -19l767 1q78 0 157 -42q157 -84 157 -294l4 -210q0 -86 -39 -171q-77 -172 -269 -172h-1031h-4q-41 0 -81 20q-86 42 -86 150z" />
<glyph unicode="T" d="M98 1264q0 106 84 149q42 22 85 22h1160q42 0 85 -22q85 -43 85 -149t-85 -150q-43 -22 -85 -22h-408v-923q0 -42 -21 -84q-43 -85 -151 -85t-150 85q-21 42 -21 84v923h-409q-43 0 -85 22q-84 43 -84 150z" />
<glyph unicode="U" horiz-adv-x="1716" d="M96 344v932q1 40 21 79q40 80 136 80q97 0 137 -80q20 -39 21 -79v-816q0 -50 32 -85t77 -35h666q45 0 78 35q32 35 32 85v816q0 40 19 79q38 80 134 80t135 -80q20 -39 20 -79v-932q0 -215 -155 -301q-77 -43 -155 -43h-889q-77 0 -155 43q-154 86 -154 301z" />
<glyph unicode="V" horiz-adv-x="1697" d="M106 0v1281q0 39 19 77q38 77 134 77q95 0 134 -77q20 -38 20 -77v-938l511 -4q45 0 77 34q32 35 32 85l202 823q4 39 28 77q46 77 144 77t135 -77q19 -38 18 -77l-214 -938q-15 -86 -60 -172q-92 -171 -247 -171h-933z" />
<glyph unicode="W" horiz-adv-x="1720" d="M107 335v922q0 43 21 86q42 87 149 87q108 0 151 -87q21 -43 21 -86v-797q0 -49 35 -85q35 -34 85 -34h130v662q-1 43 20 86q42 87 147 87t147 -87q21 -43 21 -86v-662h253v917q1 43 22 86q44 87 152 87t152 -86q22 -43 22 -87l-1 -1258h-1185q-85 0 -171 42 q-171 84 -171 293z" />
<glyph unicode="X" horiz-adv-x="1474" d="M108 168q8 38 31 66l395 484l-396 485q-22 28 -30 67q-3 15 -3 30q0 59 55 102q42 33 86 33q28 0 56 -13q37 -17 60 -45l355 -435l355 435q24 28 60 45q29 13 56 13q44 0 87 -33q55 -43 55 -102q0 -14 -3 -30q-9 -39 -31 -67l-396 -485l396 -484q22 -28 31 -66 q3 -15 3 -30q0 -59 -56 -104q-43 -34 -87 -34q-27 0 -55 13q-36 17 -58 45l-357 436l-356 -436q-22 -28 -58 -45q-28 -13 -55 -13q-44 0 -87 34q-56 45 -56 104q0 15 3 30z" />
<glyph unicode="Y" horiz-adv-x="1730" d="M103 171q0 107 86 150q43 22 86 22h893q50 0 87 34q37 37 37 86v89h-851q-210 0 -295 169q-43 85 -43 170v372q0 43 21 86q43 85 149 85q107 0 150 -85q22 -43 22 -86v-254q0 -50 35 -84q35 -35 85 -35h727v373q0 43 20 86q41 86 148 86q106 0 147 -86q21 -43 20 -86 l3 -920q0 -86 -42 -172q-84 -171 -294 -171h-1019q-43 0 -86 22q-86 43 -86 149z" />
<glyph unicode="Z" horiz-adv-x="1719" d="M101 1258q0 106 85 149q42 21 84 22l1146 2q49 -1 98 -31q99 -60 99 -207q0 -89 -23 -145q-28 -68 -99 -115q-44 -29 -1009 -589h963q44 0 88 -21q88 -42 88 -148t-88 -151q-44 -23 -88 -24h-1160q-45 1 -90 29q-90 56 -90 194q0 109 23 168q33 83 129 144q91 57 978 552 h-965q-42 1 -84 22q-85 44 -85 149z" />
<glyph unicode="[" horiz-adv-x="758" d="M92 1520h425v-1q63 -2 107 -47q44 -46 44 -109q0 -65 -46 -110q-45 -46 -110 -46q3 0 -3 0l-103 2v-994h108h2q65 0 111 -46q45 -46 45 -111q0 -64 -45 -110q-46 -46 -111 -46v-1h-419z" />
<glyph unicode="\" horiz-adv-x="1415" d="M39 1435h343l987 -1435h-343z" />
<glyph unicode="]" horiz-adv-x="758" d="M92 58q0 65 46 111q45 46 110 46h2h108v994l-103 -2q-6 0 -3 0q-64 0 -110 46q-46 45 -46 110q0 63 44 109q45 45 108 47v1h424l-4 -1619h-420v1q-64 0 -110 46t-46 110z" />
<glyph unicode="^" horiz-adv-x="1107" d="M100 541q0 55 39 94l421 422l422 -422q39 -39 39 -94t-39 -94t-94 -39t-93 39l-235 234l-234 -234q-38 -39 -93 -39t-94 39t-39 94z" />
<glyph unicode="_" horiz-adv-x="1518" d="M1 -264q0 69 49 119q49 49 119 49h1176q70 0 119 -49q49 -50 49 -119q0 -70 -49 -119t-119 -49h-1176q-70 0 -119 49t-49 119z" />
<glyph unicode="`" horiz-adv-x="594" d="M205 1704h201v-215h-132z" />
<glyph unicode="a" horiz-adv-x="1716" d="M98 344v166h1v37q0 86 38 172q77 172 270 172h906h1h1v80q0 49 -32 84t-77 35h-625q-44 1 -87 23q-88 43 -88 150q0 106 88 150q43 21 87 22h740q77 0 154 -43q154 -86 154 -301v-747q0 -86 -38 -172q-77 -172 -270 -172h-913q-194 0 -271 172q-39 86 -39 172zM410 453 q0 -46 30 -78q30 -31 76 -31h690q45 0 77 35t32 84v95l-802 2q-46 0 -74 -30q-29 -30 -29 -77z" />
<glyph unicode="b" d="M101 343v935q0 39 20 79q39 78 137 78t137 -78q19 -40 19 -79v-389h1h1h901q192 0 269 -171q39 -86 39 -172v-37v-166q0 -86 -38 -172q-78 -171 -271 -171h-907q-193 0 -269 171q-39 86 -39 172zM414 462q0 -49 33 -84q32 -35 77 -35h684q45 0 76 31q30 30 30 73 q0 44 -29 77q-30 34 -74 34l-797 -1v-95z" />
<glyph unicode="c" d="M98 342v747q0 85 38 171q77 171 269 171h1056q42 -1 85 -22q85 -44 85 -150q0 -105 -85 -149q-43 -21 -85 -21h-941q-45 0 -77 -35t-32 -85v-507q0 -49 32 -84t77 -35h941q42 0 85 -21q85 -43 85 -149t-85 -150q-43 -22 -85 -23h-1056q-77 0 -153 43q-154 85 -154 299z " />
<glyph unicode="d" horiz-adv-x="1716" d="M101 343v166h1v37q0 86 38 172q77 171 269 171h901h1h1v389q0 39 19 79q40 78 138 78t137 -78q19 -40 19 -79v-935q0 -86 -38 -172q-77 -171 -269 -171h-908q-193 0 -270 171q-39 86 -39 172zM412 447q0 -43 30 -73q31 -31 76 -31h684q46 0 78 35t32 84v95l-797 1 q-44 0 -74 -34q-29 -33 -29 -77z" />
<glyph unicode="e" horiz-adv-x="1720" d="M102 344v747q0 86 39 172q77 172 269 172h913q194 0 272 -172q38 -86 38 -172v-166v-37q0 -86 -39 -172q-77 -172 -270 -172h-906h-1h-1v-80q0 -49 32 -84t78 -35h915q43 -1 87 -23q87 -43 87 -150q0 -106 -87 -150q-44 -21 -87 -22h-1031q-77 0 -154 43 q-154 86 -154 301zM416 877l803 -2q45 0 74 30t29 76q0 47 -31 79q-30 31 -75 31h-690q-46 0 -78 -35t-32 -84v-95z" />
<glyph unicode="f" horiz-adv-x="1698" d="M102 159v932q0 86 38 171q77 172 270 172h1053q44 0 87 -21q86 -43 86 -150t-86 -151q-43 -21 -87 -21h-938q-45 0 -77 -35t-32 -85v-84h299q42 0 84 -22q84 -42 84 -146q0 -103 -84 -146q-42 -21 -84 -22h-299v-392q0 -40 -19 -80q-39 -79 -137 -79q-97 0 -138 79 q-20 40 -20 80z" />
<glyph unicode="g" horiz-adv-x="1823" d="M94 924v166q0 85 39 171q77 172 271 172h917q43 0 86 -11l78 85q16 17 38 17q23 0 39 -17l139 -152q16 -17 16 -42t-16 -42l-84 -91q12 -52 12 -90v-202v-5q0 -49 -17 -108q-35 -124 -127 -179v-253q0 -214 -154 -300q-77 -43 -153 -43h-908q-42 0 -85 21q-85 43 -85 151 t85 151q43 21 85 21h792q46 0 78 35t32 85v91q-210 0 -769 1q-193 0 -270 172q-38 86 -38 172v24h-1zM404 995q0 -43 30 -75q31 -32 74 -32l807 1v81q0 50 -32 85t-77 35h-695q-40 0 -72 -26q-35 -28 -35 -69z" />
<glyph unicode="h" horiz-adv-x="1711" d="M100 156v1124q1 38 20 77q39 78 135 78q97 0 135 -78q18 -39 18 -77v-393h883q194 0 272 -170q39 -85 39 -170v-391q1 -39 -19 -78q-39 -78 -138 -78t-138 78q-20 39 -19 78v273q0 49 -32 84t-77 35h-771v-392q1 -39 -17 -78q-37 -78 -135 -78t-137 78q-19 39 -19 78z " />
<glyph unicode="i" horiz-adv-x="573" d="M102 175v545q-1 44 20 87q41 87 152 87q110 0 152 -87q20 -39 20 -80v-7v-545q1 -43 -20 -87q-43 -88 -150 -88t-151 88q-22 44 -23 87zM102 1257q0 70 50 120t120 50q71 0 121 -50t50 -120q0 -71 -50 -121t-121 -50q-70 0 -120 50t-50 121z" />
<glyph unicode="j" horiz-adv-x="1725" d="M104 170q0 107 86 149q43 22 86 22h931q45 0 77 34q31 35 31 84v101q-41 0 -83 21q-83 43 -83 148t84 145q39 20 79 20h4h311v-553q0 -86 -39 -171q-76 -170 -267 -170h-1045q-43 0 -86 21q-86 42 -86 149zM1278 1264q0 71 50 121q51 50 121 50q71 0 121 -50 q51 -50 51 -121t-51 -121q-50 -50 -121 -50q-70 0 -121 50q-50 50 -50 121z" />
<glyph unicode="k" horiz-adv-x="1722" d="M98 155v1121q1 39 20 78q39 77 135 77t134 -77q19 -39 18 -78v-392h442l140 222q15 26 44 43q24 14 51 14q38 0 79 -28q61 -41 61 -100q0 -9 -1 -19q-6 -36 -26 -62l-41 -70h163q193 0 271 -169q39 -85 39 -169v-391q0 -39 -19 -77q-40 -78 -138 -78q-99 0 -138 78 q-19 38 -19 77l1 272q0 50 -32 85t-78 35h-799v-392q1 -39 -17 -77q-36 -78 -134 -78t-137 78q-19 38 -19 77z" />
<glyph unicode="l" horiz-adv-x="865" d="M99 343v935q0 39 20 78q39 79 137 79q99 0 138 -79q19 -39 19 -78v-815q0 -50 32 -85t77 -35h51h4l82 -20q86 -42 86 -150t-86 -151q-43 -22 -86 -22h-166q-193 0 -270 172q-38 86 -38 171z" />
<glyph unicode="m" horiz-adv-x="1732" d="M103 172v952q0 76 43 153q86 154 300 154h841q85 0 171 -38q171 -77 171 -269v-952q1 -43 -21 -86q-42 -86 -149 -86q-108 0 -151 86q-21 43 -21 86v836q0 46 -35 78t-85 32h-130v-692q0 -43 -21 -86q-42 -87 -147 -87t-147 87q-21 43 -22 86v692h-134q-49 0 -84 -32 t-35 -78v-836q0 -43 -22 -86q-43 -86 -151 -86q-107 0 -150 86q-21 43 -21 86z" />
<glyph unicode="n" horiz-adv-x="1726" d="M100 171l1 1260h1185q85 0 170 -42q171 -84 171 -293v-923q1 -43 -20 -86q-42 -86 -150 -86q-107 0 -150 86q-21 43 -21 86v798q0 50 -35 85q-35 34 -85 34h-719v-918q1 -43 -20 -86q-43 -86 -152 -86t-153 85q-22 43 -22 86z" />
<glyph unicode="o" d="M104 344v750q0 86 42 172q85 172 295 172h842q212 0 296 -172q42 -86 42 -172v-750q0 -216 -168 -301q-84 -43 -170 -43h-842q-69 0 -143 32q-151 63 -184 221h-2l2 1q-10 46 -10 90zM447 460q0 -49 35 -84q31 -31 75 -35h5q3 -1 4 -1h599q50 0 86 35q32 33 33 80l1 -1 v434h1v80h-1v7q0 49 -35 85q-35 35 -85 35h-432v-1h-167q-49 0 -84 -35t-35 -85v-432v-1v-81z" />
<glyph unicode="p" horiz-adv-x="1720" d="M102 172v1263l1222 -2q77 0 154 -43q154 -85 154 -298v-200q-1 -84 -39 -167q-78 -167 -270 -167h-879v-386q0 -43 -22 -86q-42 -86 -147 -86q-106 0 -150 86q-22 43 -23 86zM444 895h766q46 0 74 22q34 26 34 78q0 51 -34 77q-28 22 -73 22h-767v-199z" />
<glyph unicode="q" horiz-adv-x="1726" d="M102 892v200q0 213 154 298q77 43 154 43l1222 2v-1263q-1 -43 -24 -86q-44 -86 -149 -86q-106 0 -148 86q-21 43 -21 86v386h-879q-192 0 -270 167q-39 83 -39 167zM416 995q0 -52 33 -78q29 -22 74 -22h766l1 199h-767q-46 0 -74 -22q-33 -26 -33 -77z" />
<glyph unicode="r" horiz-adv-x="1716" d="M104 145v944q0 214 154 299q76 43 153 43h1011q44 0 88 -22q88 -43 88 -149t-88 -148q-44 -21 -88 -21h-902q-45 0 -77 -35t-32 -84v-827q0 -36 -20 -72q-40 -73 -137 -73t-133 73q-18 36 -17 72z" />
<glyph unicode="s" horiz-adv-x="1704" d="M88 1089q0 85 38 171q77 171 269 171h639h4l82 -20q85 -42 85 -150q0 -107 -85 -151q-43 -21 -86 -21h-524q-104 0 -104 -93q0 -53 31 -82q28 -26 74 -28h768q78 0 157 -42q156 -83 156 -293v-100q0 -131 -2 -150q0 -188 -152 -263q-75 -38 -151 -38h-1020q-43 0 -85 22 q-85 43 -85 150q0 106 85 149q42 21 85 21h905q40 0 67 18q39 26 39 83q0 59 -32 83q-25 19 -76 19h-765q-78 0 -157 41q-156 84 -156 293z" />
<glyph unicode="t" d="M100 735q0 109 89 151q45 21 90 21v368q0 40 20 80q39 80 137 80q97 0 138 -80q20 -40 20 -80v-368h827q44 0 89 -21q90 -42 90 -151q0 -108 -90 -149q-41 -19 -81 -19h-8h-827v-102q0 -50 32 -85q33 -35 78 -35h723h4q42 0 85 -20q90 -41 90 -147q0 -105 -90 -152 q-45 -24 -89 -26h-839q-193 0 -270 173q-39 86 -39 172v222h-4l-86 19q-89 41 -89 149z" />
<glyph unicode="u" d="M96 344v932q1 40 21 79q40 80 136 80q97 0 137 -80q20 -39 21 -79v-816q0 -50 32 -85t77 -35h666q45 0 78 35q32 35 32 85v816q0 40 19 79q38 80 134 80t135 -80q20 -39 20 -79v-932q0 -215 -155 -301q-77 -43 -155 -43h-889q-77 0 -155 43q-154 86 -154 301z" />
<glyph unicode="v" horiz-adv-x="1670" d="M106 0v1281q0 39 19 77q38 77 134 77q95 0 134 -77q20 -38 20 -77v-938l511 -4q45 0 77 34q32 35 32 85l202 823q4 39 28 77q46 77 144 77t135 -77q19 -38 18 -77l-214 -938q-15 -86 -60 -172q-92 -171 -247 -171h-933z" />
<glyph unicode="w" d="M103 307v952q0 43 21 86q43 86 150 86q108 0 151 -86q22 -43 22 -86v-836q0 -46 35 -78t84 -32h134v692q1 43 22 86q42 87 147 87t147 -87q21 -43 21 -86v-692h130q50 0 85 32t35 78v836q0 43 21 86q43 86 151 86q107 0 149 -86q22 -43 21 -86v-952q0 -192 -171 -269 q-86 -38 -171 -38h-841q-214 0 -300 154q-43 77 -43 153z" />
<glyph unicode="x" horiz-adv-x="1450" d="M108 168q8 38 31 66l395 484l-396 485q-22 28 -30 67q-3 15 -3 30q0 59 55 102q42 33 86 33q28 0 56 -13q37 -17 60 -45l355 -435l355 435q24 28 60 45q29 13 56 13q44 0 87 -33q55 -43 55 -102q0 -14 -3 -30q-9 -39 -31 -67l-396 -485l396 -484q22 -28 31 -66 q3 -15 3 -30q0 -59 -56 -104q-43 -34 -87 -34q-27 0 -55 13q-36 17 -58 45l-357 436l-356 -436q-22 -28 -58 -45q-28 -13 -55 -13q-44 0 -87 34q-56 45 -56 104q0 15 3 30z" />
<glyph unicode="y" horiz-adv-x="1730" d="M99 889v371q0 42 21 85q43 85 149 85t149 -85q22 -43 22 -85v-253q0 -50 35 -84q34 -35 84 -35h726v372q-1 43 20 85q41 86 147 86t147 -86q20 -42 20 -85l3 -918q0 -86 -42 -171q-84 -171 -293 -171h-696q-43 0 -86 22q-85 43 -85 149t85 149q43 22 86 22h570 q50 0 87 34q37 36 37 85v89h-849q-209 0 -294 169q-43 85 -43 170z" />
<glyph unicode="z" horiz-adv-x="1716" d="M101 1258q0 106 85 149q42 21 84 22l1146 2q49 -1 98 -31q99 -60 99 -207q0 -89 -23 -145q-28 -68 -99 -115q-44 -29 -1009 -589h963q44 0 88 -21q88 -42 88 -148t-88 -151q-44 -23 -88 -24h-1160q-45 1 -90 29q-90 56 -90 194q0 109 23 168q33 83 129 144q91 57 978 552 h-965q-42 1 -84 22q-85 44 -85 149z" />
<glyph unicode="{" horiz-adv-x="928" d="M100 731q96 0 135 76q19 39 19 77v322q0 194 152 272q76 39 152 39h93q1 0 4 1h4h3q3 -1 4 -1h2q62 -4 105 -49t43 -108q0 -65 -46 -111t-111 -46h-1q-40 -6 -67 -36t-27 -71v-217q7 -38 -3 -77q-18 -76 -97 -76q79 0 97 -77q10 -39 3 -77v-251q0 -45 32 -77 q31 -31 76 -31v-2q58 -6 97 -50q40 -43 40 -102q0 -60 -41 -104q-41 -43 -100 -49v-2h-108q-77 0 -153 39q-153 78 -153 272v364q-1 38 -21 76q-39 76 -133 76z" />
<glyph unicode="|" horiz-adv-x="1014" d="M354 -252v1802q0 69 49 119q50 49 119 49q70 0 119 -49q49 -50 49 -119v-1802q0 -70 -49 -119t-119 -49q-69 0 -119 49q-49 49 -49 119z" />
<glyph unicode="}" horiz-adv-x="908" d="M100 1360q0 63 43 108t105 49h3q1 0 3 1h4h3q3 -1 4 -1h94q76 0 152 -39q152 -78 152 -272v-322q0 -38 19 -77q38 -76 134 -76q-94 0 -133 -76q-19 -38 -20 -76v-364q0 -194 -153 -272q-77 -39 -153 -39h-109v2q-59 6 -100 49q-40 44 -40 104q0 59 39 102q39 44 97 50v2 q45 0 77 31q31 32 31 77v251q-6 38 3 77q18 77 97 77q-79 0 -97 76q-9 39 -3 77v217q0 41 -27 71q-26 30 -66 36h-1q-66 0 -112 46t-46 111z" />
<glyph unicode="~" horiz-adv-x="1707" d="M97 714q0 69 49 119q49 49 119 49h1176q70 0 119 -49q49 -50 49 -119q0 -70 -49 -119t-119 -49h-1176q-70 0 -119 49t-49 119z" />
<glyph unicode="&#xa1;" horiz-adv-x="672" d="M95 1263q0 71 52 122q53 50 127 50t126 -50q52 -51 52 -122t-52 -122q-52 -50 -126 -50t-127 50q-52 51 -52 122zM99 0v877h349l182 -877h-531z" />
<glyph unicode="&#xa2;" horiz-adv-x="1716" d="M-53 -99l1112 1617h387l-1112 -1617h-387zM103 343v749q0 85 42 171q84 172 294 172h1017q70 -2 119 -52t49 -120t-49 -120t-119 -51h-3h-1h-1h-887q-49 0 -84 -35t-35 -85v-508q0 -50 35 -85t84 -35h875q1 0 6 1q4 1 7 1q71 0 122 -51q50 -50 50 -122q0 -70 -49 -120 t-119 -51v-2h-1017q-84 0 -168 43q-168 86 -168 300z" />
<glyph unicode="&#xa3;" horiz-adv-x="1014" d="M76 673v60h135q-58 143 -58 253q0 226 123.5 347t306.5 121h4q75 0 185.5 -14t110.5 -34v-161h-58q-5 61 -77 102q-72 31 -160 31h-2q-100 0 -190 -101q-84 -93 -84 -241q0 -15 1 -30q0 -135 53 -273h360v-60h-334q14 -30 31 -60q35 -63 35 -138q0 -161 -162 -375h402 q130 0 189 132l49 -1l-103 -231h-719l1 50q187 238 187 418q0 77 -34 143q-17 32 -31 62h-161z" />
<glyph unicode="&#xa4;" horiz-adv-x="1014" d="M122 413l118 117q-32 46 -48 103q-12 42 -12 84q0 44 13 87q16 55 47 99l-118 118l80 81l118 -118q44 30 99 46q44 14 89 14q41 0 83 -12q57 -17 102 -48l118 118l80 -81l-117 -117q31 -46 48 -102q12 -42 12 -85q0 -42 -12 -85q-17 -56 -48 -102l117 -117l-80 -81 l-118 118q-45 -32 -101 -48q-42 -12 -85 -12q-42 0 -85 12q-57 16 -102 48l-118 -118zM284 716q0 -28 9 -56q16 -59 57 -100q41 -40 99 -57q29 -8 58 -8t58 8q58 17 99 57q40 41 57 99q9 29 9 58t-9 58q-17 58 -57 99q-41 40 -100 57q-29 8 -58 8t-58 -9q-58 -17 -98 -56 q-39 -40 -56 -98q-10 -30 -10 -60z" />
<glyph unicode="&#xa6;" horiz-adv-x="1014" d="M354 -252v1802q0 69 49 119q50 49 119 49q70 0 119 -49q49 -50 49 -119v-1802q0 -70 -49 -119t-119 -49q-69 0 -119 49q-49 49 -49 119z" />
<glyph unicode="&#xa7;" horiz-adv-x="1014" d="M170 1130q0 148 89 237q82 79 216 86q8 1 17 1h3q66 0 163 -16.5t97 -41.5v-194h-51q-5 81 -80 132q-70 47 -149 51h-15q-78 0 -125 -44.5t-47 -117.5q0 -132 287 -269q149 -67 204.5 -143.5t55.5 -187.5q0 -171 -101 -282q-47 -39 -99 -64q108 -56 154 -118 q55 -77 55 -187q0 -171 -101 -283q-124 -102 -277 -105v1q-6 -1 -13 -1h-3q-66 0 -163 16.5t-97 41.5v194h51q5 -81 80 -132q68 -45 145 -50q113 6 185 69q72 64 72 165q0 125 -316 276q-123 64 -175.5 137t-52.5 177q0 148 89 237q67 65 170 82l-40 19q-123 64 -175.5 137 t-52.5 177zM297 571q0 -123 248 -250q56 16 97 53q73 65 73 166q0 5 -1 10h-2q-1 14 -4 27q-22 61 -113 127q-59 29 -126 29q-78 0 -125 -44.5t-47 -117.5z" />
<glyph unicode="&#xa8;" horiz-adv-x="897" d="M203 1607q0 42 30 72t73 30q42 0 72 -30t30 -72q0 -43 -30 -73t-72 -30q-43 0 -73 30t-30 73zM508 1607q0 42 30 72t72 30t73 -30q30 -30 30 -72q0 -43 -30 -73q-31 -30 -73 -30t-72 30t-30 73z" />
<glyph unicode="&#xa9;" horiz-adv-x="1630" d="M93 714q0 296 209 505t505 209t505 -209t209 -505t-209 -505t-505 -209t-505 209t-209 505zM272 714q0 -221 157 -378t378 -157t378 157t157 378t-157 378t-378 157t-378 -157t-157 -378zM481 556v321q0 36 18 73q36 74 126 74h436q30 -1 51 -22q21 -22 21 -52t-21 -51 q-21 -22 -51 -22h-382q-21 0 -36 -15t-15 -37v-218q0 -21 15 -36t36 -15h374q10 1 6 1q31 0 52 -22q22 -21 22 -52q0 -30 -21 -52q-21 -21 -51 -22h-436q-36 0 -72 18q-72 37 -72 129z" />
<glyph unicode="&#xaa;" horiz-adv-x="1107" d="M104 800v97v22q0 50 25 100q49 100 171 100h490v46q0 29 -21 49q-20 20 -49 20h-419v1q-41 2 -68 31q-28 29 -28 69q0 41 29 71q29 29 71 29h489q49 0 97 -25q98 -50 98 -175v-435q0 -50 -24 -100q-49 -100 -171 -100h-493q-123 0 -172 100q-25 50 -25 100zM302 864 q0 -27 19 -46q19 -18 48 -18h351q29 0 49 20q21 21 21 50v55h-423q-29 0 -47 -17t-18 -44z" />
<glyph unicode="&#xab;" horiz-adv-x="1359" d="M100 733l422 421q39 39 93 39q55 0 94 -39t39 -94t-39 -93l-234 -234l234 -235q39 -38 39 -93t-39 -94t-94 -39q-54 0 -93 39zM611 733l422 421q39 39 93 39q55 0 94 -39t39 -94t-39 -93l-234 -234l234 -235q39 -38 39 -93t-39 -94t-94 -39q-54 0 -93 39z" />
<glyph unicode="&#xac;" horiz-adv-x="1014" d="M87 667v100h840v-491l-1 -1h-98v392h-741z" />
<glyph unicode="&#xad;" horiz-adv-x="1701" d="M97 714q0 69 49 119q49 49 119 49h1176q70 0 119 -49q49 -50 49 -119q0 -70 -49 -119t-119 -49h-1176q-70 0 -119 49t-49 119z" />
<glyph unicode="&#xae;" horiz-adv-x="1644" d="M106 719q0 298 211 508q210 211 508 211t508 -211q211 -210 211 -508t-211 -508q-210 -211 -508 -211t-508 211q-211 210 -211 508zM286 719q0 -223 158 -381t381 -158t381 158t158 381t-158 381t-381 158t-381 -158t-158 -381zM497 484q0 2 1 10v388q0 93 72 130 q36 18 73 18h364q37 0 73 -18q73 -37 73 -130v-87q0 -18 -9 -36q-18 -36 -63 -36q45 0 63 -37q9 -18 9 -36v-164q0 -31 -21 -53q-22 -21 -53 -21q-30 0 -52 21q-22 22 -22 52v114q0 21 -15 36t-36 15h-311l-1 -165v-1q0 -30 -21 -51t-52 -21q-30 0 -51 21t-21 51zM642 831 l1 -35h311q19 0 33 13q14 12 17 31q-3 18 -17 31q-14 12 -33 12h-260q-21 0 -37 -15q-15 -15 -15 -37z" />
<glyph unicode="&#xaf;" horiz-adv-x="1521" d="M1 1684q0 69 49 119q49 49 119 49h1176q70 0 119 -49q49 -50 49 -119q0 -70 -49 -119t-119 -49h-1176q-70 0 -119 49t-49 119z" />
<glyph unicode="&#xb0;" horiz-adv-x="674" d="M60 1164q0 116 81.5 197t197.5 81q115 0 196 -81.5t81 -196.5q0 -114 -82 -196t-197 -82q-117 0 -197 81t-80 197zM130 1163q0 -87 61 -147t148 -60t147 60t60 147t-60.5 148t-146.5 61t-147.5 -61t-61.5 -148z" />
<glyph unicode="&#xb1;" horiz-adv-x="1344" d="M97 270q0 49 35 85q35 35 86 35h844q50 0 85 -35q35 -36 35 -85q0 -51 -35 -86t-85 -35h-844q-51 0 -86 35t-35 86zM101 1054q0 50 36 86t86 36h305v270q0 50 36 86q35 36 86 36t87 -36q35 -36 35 -86v-270h305q51 0 86 -36q36 -36 36 -86q0 -51 -36 -87q-35 -35 -86 -35 h-305v-269q0 -50 -35 -86q-36 -36 -87 -36t-86 36q-36 36 -36 86v269h-305q-50 0 -86 35q-36 36 -36 87z" />
<glyph unicode="&#xb2;" horiz-adv-x="997" d="M103 875l2 108q0 108 88 151q44 22 88 22h366q30 0 44 9q18 12 18 43q0 27 -30 42q-16 7 -31 9h-371h-1h-1q-36 0 -62 26q-25 25 -25 62q0 36 25 62q26 26 62 26h1l1 -1v1h436q43 0 85 -19q86 -39 86 -136q1 -13 1 -128q0 -107 -88 -151q-44 -21 -88 -21h-368 q-26 -1 -42 -15q-18 -15 -18 -40q-1 -12 6 -25q13 -25 53 -25h461q36 -1 61 -26q26 -26 26 -62t-26 -62q-25 -25 -61 -26h-1h-1h-523q-108 0 -151 88q-22 44 -22 88z" />
<glyph unicode="&#xb3;" horiz-adv-x="978" d="M105 788q0 36 25 62q26 25 62 26l453 1q20 0 39 13q23 15 23 38q0 24 -18 40t-44 16h-225q-36 0 -61 26q-26 25 -26 61t26 61q25 26 61 26h225q62 0 62 44q0 25 -18 42q-18 16 -44 16h-454q-36 1 -61 26q-25 26 -25 61q0 36 25 62q26 25 62 26h1h516q44 0 87 -22 q87 -44 87 -155v-101q0 -22 -11 -43q-22 -43 -75 -43q53 0 75 -44q11 -22 11 -44v-107q0 -111 -86 -155q-44 -22 -87 -22h-516h-4q-35 2 -60 27q-25 26 -25 62z" />
<glyph unicode="&#xb4;" horiz-adv-x="606" d="M201 1489v215h201l-69 -215h-132z" />
<glyph unicode="&#xb6;" horiz-adv-x="1024" d="M93 1086q0 157 107.5 253t285.5 96h443v-70h-127v-1365h-82v1365h-166v-1365h-84v738q-174 8 -275.5 102.5t-101.5 245.5z" />
<glyph unicode="&#xb7;" horiz-adv-x="603" d="M105 684q0 83 59 141q58 59 141 59t141 -59q59 -58 59 -141t-59 -141q-58 -59 -141 -59t-141 59q-59 58 -59 141z" />
<glyph unicode="&#xb8;" horiz-adv-x="780" d="M202 -294q0 61 54 91q8 7 26 11q4 1 8 1q36 7 46 12q22 11 22 35q0 44 31 75q31 30 74 30h1h1q43 0 73 -30q31 -31 31 -74q0 -127 -123 -204q-61 -39 -122 -52q0 1 -1 1q-11 -1 -16 -1q-43 0 -74 31q-31 30 -31 74z" />
<glyph unicode="&#xb9;" horiz-adv-x="808" d="M102 1336q0 41 29 70t70 29h482h4v-735v-1v-1q0 -40 -29 -70q-29 -28 -70 -28t-70 28q-29 30 -29 70v540h-284h-3h-1q-41 0 -70 29q-29 28 -29 69z" />
<glyph unicode="&#xba;" horiz-adv-x="1060" d="M104 831v418q0 48 23 96q47 96 165 96h470q118 0 165 -96q24 -48 24 -96v-418q0 -120 -95 -168q-47 -24 -94 -24h-470q-47 0 -94 24q-94 48 -94 168zM295 895q0 -27 20 -47q19 -19 47 -19h334q28 0 47 19q20 20 20 47v239v48q0 28 -20 48q-19 19 -47 19h-334 q-28 0 -47 -19q-20 -20 -20 -48v-287z" />
<glyph unicode="&#xbb;" horiz-adv-x="1369" d="M100 405q0 55 39 93l234 235l-234 234q-39 38 -39 93t39 94t94 39t93 -39l422 -421l-422 -422q-38 -39 -93 -39t-94 39t-39 94zM611 405q0 55 39 93l234 235l-234 234q-39 38 -39 93t39 94t94 39t93 -39l422 -421l-422 -422q-38 -39 -93 -39t-94 39t-39 94z" />
<glyph unicode="&#xbc;" horiz-adv-x="2179" d="M102 1335q0 42 30 70q28 30 70 30h486h3v-741v-1v-1q0 -41 -28 -71q-30 -28 -71 -28q-42 0 -70 28q-30 30 -30 71v544h-286h-3h-1q-42 0 -70 29q-30 29 -30 70zM376 0l987 1435h212l-987 -1435h-212zM1260 516v227q0 23 12 46q22 45 80 45t80 -45q11 -23 11 -46v-159 q0 -28 19 -49q19 -20 45 -20h388v228q0 23 10 46q21 45 78 45q58 0 80 -45q12 -23 11 -46v-654q0 -22 -12 -45q-22 -45 -78 -45t-78 45q-11 23 -11 45v229h-454q-112 0 -158 99q-22 49 -23 99z" />
<glyph unicode="&#xbd;" horiz-adv-x="2052" d="M102 1335q0 42 30 70q28 30 70 30h486h3v-741v-1v-1q0 -41 -28 -71q-30 -28 -71 -28q-42 0 -70 28q-30 30 -30 71v544h-286h-3h-1q-42 0 -70 29q-30 29 -30 70zM376 0l987 1435h212l-987 -1435h-212zM1168 177l2 108q0 108 88 151q44 22 88 22h366q30 0 44 9q18 12 18 43 q0 27 -30 42q-16 7 -31 9h-371h-1h-1q-36 0 -62 26q-25 25 -25 62q0 36 25 62q26 26 62 26h1l1 -1v1h436q43 0 85 -19q86 -39 86 -136q1 -13 1 -128q0 -107 -88 -151q-44 -21 -88 -21h-368q-26 -1 -42 -15q-18 -15 -18 -40q-1 -12 6 -25q13 -25 53 -25h461q36 -1 61 -26 q26 -26 26 -62t-26 -62q-25 -25 -61 -26h-1h-1h-523q-108 0 -151 88q-22 44 -22 88z" />
<glyph unicode="&#xbe;" horiz-adv-x="2275" d="M105 788q0 36 25 62q26 25 62 26l453 1q20 0 39 13q23 15 23 38q0 24 -18 40t-44 16h-225q-36 0 -61 26q-26 25 -26 61t26 61q25 26 61 26h225q62 0 62 44q0 25 -18 42q-18 16 -44 16h-454q-36 1 -61 26q-25 26 -25 61q0 36 25 62q26 25 62 26h1h516q44 0 87 -22 q87 -44 87 -155v-101q0 -22 -11 -43q-22 -43 -75 -43q53 0 75 -44q11 -22 11 -44v-107q0 -111 -86 -155q-44 -22 -87 -22h-516h-4q-35 2 -60 27q-25 26 -25 62zM469 0l987 1435h212l-987 -1435h-212zM1353 516v227q0 23 12 46q22 45 80 45t80 -45q11 -23 11 -46v-159 q0 -28 19 -49q19 -20 45 -20h388v228q0 23 10 46q21 45 78 45q58 0 80 -45q12 -23 11 -46v-654q0 -22 -12 -45q-22 -45 -78 -45t-78 45q-11 23 -11 45v229h-454q-112 0 -158 99q-22 49 -23 99z" />
<glyph unicode="&#xbf;" horiz-adv-x="1733" d="M99 343l4 225q0 210 172 294q85 42 171 42h242q67 0 100 59q17 30 21 60h347l-5 -126q0 -210 -172 -294q-85 -42 -171 -42h-246q-48 -1 -81 -35q-34 -34 -35 -81q2 -37 21 -62q29 -40 94 -40h604q49 0 84 35t35 85l-1 262v2v1q0 -3 0 4v5h1q3 68 52 114q48 47 116 47 q67 0 116 -47q48 -46 52 -114v-5q1 -2 1 -4q0 -1 -1 -4v-4v-377q0 -86 -42 -171q-85 -172 -296 -172h-847q-210 0 -294 172q-42 85 -42 171zM801 1263q0 71 50 122q51 50 122 50t121 -50q50 -51 50 -122t-50 -121t-121 -50t-122 50q-50 50 -50 121z" />
<glyph unicode="&#xc0;" horiz-adv-x="1720" d="M102 170v918q0 216 170 304q85 43 170 43h852q85 0 171 -43q171 -88 171 -304v-918q0 -42 -22 -85q-42 -85 -148 -85q-105 0 -149 85q-22 43 -23 85v375h-852v-375q0 -42 -22 -85q-42 -85 -148 -85t-149 85q-21 43 -21 85zM442 884h848v82q0 51 -36 86q-36 36 -85 36 h-607q-49 0 -85 -36q-35 -35 -35 -86v-82zM598 1704h201v-215h-132z" />
<glyph unicode="&#xc1;" horiz-adv-x="1720" d="M102 170v918q0 216 170 304q85 43 170 43h852q85 0 171 -43q171 -88 171 -304v-918q0 -42 -22 -85q-42 -85 -148 -85q-105 0 -149 85q-22 43 -23 85v375h-852v-375q0 -42 -22 -85q-42 -85 -148 -85t-149 85q-21 43 -21 85zM442 884h848v82q0 51 -36 86q-36 36 -85 36 h-607q-49 0 -85 -36q-35 -35 -35 -86v-82zM837 1489v215h201l-69 -215h-132z" />
<glyph unicode="&#xc2;" horiz-adv-x="1730" d="M102 170v918q0 216 170 304q85 43 170 43h852q85 0 171 -43q171 -88 171 -304v-918q0 -42 -22 -85q-42 -85 -148 -85q-105 0 -149 85q-22 43 -23 85v375h-852v-375q0 -42 -22 -85q-42 -85 -148 -85t-149 85q-21 43 -21 85zM442 884h848v82q0 51 -36 86q-36 36 -85 36 h-607q-49 0 -85 -36q-35 -35 -35 -86v-82zM710 1526q0 19 13 32l145 145l144 -145q13 -13 13 -32t-13 -32q-14 -13 -32 -13q-19 0 -32 13l-80 80l-81 -80q-13 -13 -32 -13q-18 0 -32 13q-13 13 -13 32z" />
<glyph unicode="&#xc3;" d="M102 170v918q0 216 170 304q85 43 170 43h852q85 0 171 -43q171 -88 171 -304v-918q0 -42 -22 -85q-42 -85 -148 -85q-105 0 -149 85q-22 43 -23 85v375h-852v-375q0 -42 -22 -85q-42 -85 -148 -85t-149 85q-21 43 -21 85zM442 884h848v82q0 51 -36 86q-36 36 -85 36 h-607q-49 0 -85 -36q-35 -35 -35 -86v-82zM626 1617q0 38 26 67q26 27 64 31v1h326q41 0 70 -29t29 -70t-29 -70t-70 -29h-326v1q-38 4 -64 32t-26 66z" />
<glyph unicode="&#xc4;" horiz-adv-x="1726" d="M102 170v918q0 216 170 304q85 43 170 43h852q85 0 171 -43q171 -88 171 -304v-918q0 -42 -22 -85q-42 -85 -148 -85q-105 0 -149 85q-22 43 -23 85v375h-852v-375q0 -42 -22 -85q-42 -85 -148 -85t-149 85q-21 43 -21 85zM442 884h848v82q0 51 -36 86q-36 36 -85 36 h-607q-49 0 -85 -36q-35 -35 -35 -86v-82zM595 1607q0 42 30 72t73 30q42 0 72 -30t30 -72q0 -43 -30 -73t-72 -30q-43 0 -73 30t-30 73zM900 1607q0 42 30 72t72 30t73 -30q30 -30 30 -72q0 -43 -30 -73q-31 -30 -73 -30t-72 30t-30 73z" />
<glyph unicode="&#xc6;" horiz-adv-x="2909" d="M101 169v924q0 215 169 302q84 43 169 43h847q85 0 170 -43q170 -87 170 -302v-924h-1q0 -70 -49 -120q-50 -49 -120 -49t-119 49q-50 50 -50 120h-1v384h-847v-384q0 -70 -50 -120q-49 -49 -119 -49t-119 49q-50 50 -50 120zM439 890h843v82q0 50 -35 85q-36 36 -85 36 h-603q-50 0 -85 -36q-35 -35 -35 -85v-82zM1288 346v747q0 85 42 171q84 171 293 171h1015q17 -1 37 -6q60 -9 100 -56q40 -46 40 -108q0 -55 -32 -99q-31 -42 -82 -59q-30 -13 -63 -14h-889q-50 0 -85 -35t-35 -85v-83h668l1 -1q69 0 118 -49t49 -119q0 -69 -49 -118 t-118 -49h-1h-668v-88q0 -49 35 -84t85 -35h871q2 0 7 1q197 0 195 -183q-21 -165 -182 -166l-1017 5q-84 0 -167 43q-168 85 -168 299z" />
<glyph unicode="&#xc7;" horiz-adv-x="1720" d="M98 342v747q0 85 38 171q77 171 269 171h1056q42 -1 85 -22q85 -44 85 -150q0 -105 -85 -149q-43 -21 -85 -21h-941q-45 0 -77 -35t-32 -85v-507q0 -49 32 -84t77 -35h941q42 0 85 -21q85 -43 85 -149t-85 -150q-43 -22 -85 -23h-1056q-77 0 -153 43q-154 85 -154 299z M690 -294q0 61 53 91q8 7 26 11q5 1 9 1q35 7 46 12q22 11 22 35q0 44 31 75q31 30 74 30h1h1q43 0 73 -30q31 -31 31 -74q0 -127 -123 -204q-61 -39 -122 -52q-1 1 -2 1q-10 -1 -15 -1q-44 0 -74 31q-31 30 -31 74z" />
<glyph unicode="&#xc8;" horiz-adv-x="1726" d="M99 342v747q0 85 38 171q77 171 269 171h1053q43 -1 85 -22q86 -44 86 -149q0 -106 -86 -149q-42 -22 -85 -22h-938q-45 0 -77 -35t-32 -85v-83h695q42 0 84 -22q84 -42 84 -148t-84 -147q-42 -20 -84 -19h-695v-88q0 -49 32 -84t77 -35h938q43 0 85 -21q86 -44 86 -150 q0 -107 -86 -150q-42 -22 -85 -22h-1053q-77 0 -153 43q-154 85 -154 299zM598 1704h201v-215h-132z" />
<glyph unicode="&#xc9;" horiz-adv-x="1726" d="M99 342v747q0 85 38 171q77 171 269 171h1053q43 -1 85 -22q86 -44 86 -149q0 -106 -86 -149q-42 -22 -85 -22h-938q-45 0 -77 -35t-32 -85v-83h695q42 0 84 -22q84 -42 84 -148t-84 -147q-42 -20 -84 -19h-695v-88q0 -49 32 -84t77 -35h938q43 0 85 -21q86 -44 86 -150 q0 -107 -86 -150q-42 -22 -85 -22h-1053q-77 0 -153 43q-154 85 -154 299zM837 1489v215h201l-69 -215h-132z" />
<glyph unicode="&#xca;" horiz-adv-x="1733" d="M99 342v747q0 85 38 171q77 171 269 171h1053q43 -1 85 -22q86 -44 86 -149q0 -106 -86 -149q-42 -22 -85 -22h-938q-45 0 -77 -35t-32 -85v-83h695q42 0 84 -22q84 -42 84 -148t-84 -147q-42 -20 -84 -19h-695v-88q0 -49 32 -84t77 -35h938q43 0 85 -21q86 -44 86 -150 q0 -107 -86 -150q-42 -22 -85 -22h-1053q-77 0 -153 43q-154 85 -154 299zM710 1526q0 19 13 32l145 145l144 -145q13 -13 13 -32t-13 -32q-14 -13 -32 -13q-19 0 -32 13l-80 80l-81 -80q-13 -13 -32 -13q-18 0 -32 13q-13 13 -13 32z" />
<glyph unicode="&#xcb;" horiz-adv-x="1720" d="M99 342q0 -214 154 -299q76 -43 153 -43h1053q43 0 85 22q86 43 86 150q0 106 -86 150q-42 21 -85 21h-938q-45 0 -77 35t-32 84v88h695q42 -1 84 19q84 41 84 147t-84 148q-42 22 -84 22h-695v83q0 50 32 85t77 35h938q43 0 85 22q86 43 86 149q0 105 -86 149 q-42 21 -85 22h-1053q-192 0 -269 -171q-38 -86 -38 -171v-747zM595 1607q0 42 30 72t73 30q42 0 72 -30t30 -72q0 -43 -30 -73t-72 -30q-43 0 -73 30t-30 73zM900 1607q0 42 30 72t72 30t73 -30q30 -30 30 -72q0 -43 -30 -73q-31 -30 -73 -30t-72 30t-30 73z" />
<glyph unicode="&#xcc;" horiz-adv-x="522" d="M84 1704h201v-215h-132zM104 157v1122q-2 39 17 78q37 78 136 78t137 -78q18 -39 17 -78v-1122q1 -39 -18 -78q-38 -79 -134 -79t-135 79q-20 39 -20 78z" />
<glyph unicode="&#xcd;" horiz-adv-x="505" d="M103 157v1122q-1 39 18 78q37 78 136 78t136 -78q19 -39 18 -78v-1122q0 -39 -18 -78q-38 -79 -134 -79q-97 0 -136 79q-19 39 -20 78zM234 1489v215h201l-69 -215h-132z" />
<glyph unicode="&#xce;" horiz-adv-x="515" d="M103 157v1122q-1 39 18 78q37 78 136 78t136 -78q19 -39 18 -78v-1122q0 -39 -18 -78q-38 -79 -134 -79q-97 0 -136 79q-19 39 -20 78zM105 1526q0 19 13 32l145 145l144 -145q13 -13 13 -32t-13 -32q-14 -13 -32 -13q-19 0 -32 13l-80 80l-81 -80q-13 -13 -32 -13 q-18 0 -32 13q-13 13 -13 32z" />
<glyph unicode="&#xcf;" horiz-adv-x="550" d="M35 1607q0 42 30 72t73 30q42 0 72 -30t30 -72q0 -43 -30 -73t-72 -30q-43 0 -73 30t-30 73zM125 157q0 -39 20 -78q39 -79 135 -79t134 79q19 39 18 78v1122q1 39 -17 78q-38 78 -137 78t-136 -78q-19 -39 -17 -78v-1122zM340 1607q0 42 30 72t72 30t73 -30 q30 -30 30 -72q0 -43 -30 -73q-31 -30 -73 -30t-72 30t-30 73z" />
<glyph unicode="&#xd1;" horiz-adv-x="1713" d="M99 165v1103q0 42 20 84q41 83 141 83q69 0 128 -43q28 -20 43 -41l838 -834l1 752q-1 41 20 83q41 83 146 83q106 0 146 -84q20 -41 19 -83v-1083q1 -43 -19 -85q-40 -85 -145 -85q-74 0 -128 50q-27 26 -40 51l-838 844v-795q1 -41 -20 -82q-41 -83 -144 -83 q-104 0 -147 82q-21 42 -21 83zM626 1617q0 38 26 67q26 27 64 31v1h326q41 0 70 -29t29 -70t-29 -70t-70 -29h-326v1q-38 4 -64 32t-26 66z" />
<glyph unicode="&#xd2;" horiz-adv-x="1720" d="M104 343v749q0 85 42 172q84 171 294 171h840q212 0 296 -171q42 -87 42 -172v-749q0 -215 -168 -300q-84 -43 -170 -43h-840q-69 0 -143 32q-150 63 -183 221h-2l2 1q-10 46 -10 89zM446 459q0 -49 35 -84q32 -31 75 -34v-1h5q3 -1 4 -1h598q50 0 85 35q32 33 34 80 l1 -1v433v80v7q0 49 -35 84q-35 36 -86 36h-431l1 -1h-167q-49 0 -84 -35t-35 -85v-432v-81zM598 1704h201v-215h-132z" />
<glyph unicode="&#xd3;" horiz-adv-x="1720" d="M104 343v749q0 85 42 172q84 171 294 171h840q212 0 296 -171q42 -87 42 -172v-749q0 -215 -168 -300q-84 -43 -170 -43h-840q-69 0 -143 32q-150 63 -183 221h-2l2 1q-10 46 -10 89zM446 459q0 -49 35 -84q32 -31 75 -34v-1h5q3 -1 4 -1h598q50 0 85 35q32 33 34 80 l1 -1v433v80v7q0 49 -35 84q-35 36 -86 36h-431l1 -1h-167q-49 0 -84 -35t-35 -85v-432v-81zM837 1489v215h201l-69 -215h-132z" />
<glyph unicode="&#xd4;" horiz-adv-x="1716" d="M104 343v749q0 85 42 172q84 171 294 171h840q212 0 296 -171q42 -87 42 -172v-749q0 -215 -168 -300q-84 -43 -170 -43h-840q-69 0 -143 32q-150 63 -183 221h-2l2 1q-10 46 -10 89zM446 459q0 -49 35 -84q32 -31 75 -34v-1h5q3 -1 4 -1h598q50 0 85 35q32 33 34 80 l1 -1v433v80v7q0 49 -35 84q-35 36 -86 36h-431l1 -1h-167q-49 0 -84 -35t-35 -85v-432v-81zM710 1526q0 19 13 32l145 145l144 -145q13 -13 13 -32t-13 -32q-14 -13 -32 -13q-19 0 -32 13l-80 80l-81 -80q-13 -13 -32 -13q-18 0 -32 13q-13 13 -13 32z" />
<glyph unicode="&#xd5;" horiz-adv-x="1716" d="M104 343v749q0 85 42 172q84 171 294 171h840q212 0 296 -171q42 -87 42 -172v-749q0 -215 -168 -300q-84 -43 -170 -43h-840q-69 0 -143 32q-150 63 -183 221h-2l2 1q-10 46 -10 89zM446 459q0 -49 35 -84q32 -31 75 -34v-1h5q3 -1 4 -1h598q50 0 85 35q32 33 34 80 l1 -1v433v80v7q0 49 -35 84q-35 36 -86 36h-431l1 -1h-167q-49 0 -84 -35t-35 -85v-432v-81zM613 1617q0 38 26 67q26 27 63 31v1h327q41 0 70 -29t29 -70t-29 -70t-70 -29h-327v1q-37 4 -63 32t-26 66z" />
<glyph unicode="&#xd6;" horiz-adv-x="1716" d="M104 343q0 -43 10 -89l-2 -1h2q33 -158 183 -221q74 -32 143 -32h840q86 0 170 43q168 85 168 300v749q0 85 -42 172q-84 171 -296 171h-840q-210 0 -294 -171q-42 -87 -42 -172v-749zM446 459v81v432q0 50 35 85t84 35h167l-1 1h431q51 0 86 -36q35 -35 35 -84v-7v-80 v-433l-1 1q-2 -47 -34 -80q-35 -35 -85 -35h-598q-1 0 -4 1h-5v1q-43 3 -75 34q-35 35 -35 84zM595 1607q0 42 30 72t73 30q42 0 72 -30t30 -72q0 -43 -30 -73t-72 -30q-43 0 -73 30t-30 73zM900 1607q0 42 30 72t72 30t73 -30q30 -30 30 -72q0 -43 -30 -73q-31 -30 -73 -30 t-72 30t-30 73z" />
<glyph unicode="&#xd7;" horiz-adv-x="1617" d="M96 206q0 86 60 146l364 364l-364 364q-60 60 -60 146q0 85 60 146q61 60 146 60q86 0 146 -60l364 -364l364 364q60 60 146 60q85 0 146 -60q60 -61 60 -146q0 -86 -60 -146l-364 -364l364 -364q60 -60 60 -146q0 -85 -60 -146q-61 -60 -146 -60q-86 0 -146 60l-364 364 l-364 -364q-60 -60 -146 -60q-85 0 -146 60q-60 61 -60 146z" />
<glyph unicode="&#xd8;" horiz-adv-x="1716" d="M-53 -99l1112 1617h387l-1112 -1617h-387zM104 345v751q0 86 42 173q84 172 295 172h844q212 0 297 -172q43 -87 43 -173v-751q0 -216 -170 -302q-85 -43 -170 -43h-844q-84 0 -169 43q-168 86 -168 302zM448 461q0 -50 35 -85t84 -35h600q50 0 85 35t35 85v429h1v86 q0 50 -36 85q-35 35 -84 35h-601q-49 0 -84 -35t-35 -85v-515z" />
<glyph unicode="&#xd9;" horiz-adv-x="1716" d="M96 344v932q1 40 21 79q40 80 136 80q97 0 137 -80q20 -39 21 -79v-816q0 -50 32 -85t77 -35h666q45 0 78 35q32 35 32 85v816q0 40 19 79q38 80 134 80t135 -80q20 -39 20 -79v-932q0 -215 -155 -301q-77 -43 -155 -43h-889q-77 0 -155 43q-154 86 -154 301zM598 1704 h201v-215h-132z" />
<glyph unicode="&#xda;" d="M96 344v932q1 40 21 79q40 80 136 80q97 0 137 -80q20 -39 21 -79v-816q0 -50 32 -85t77 -35h666q45 0 78 35q32 35 32 85v816q0 40 19 79q38 80 134 80t135 -80q20 -39 20 -79v-932q0 -215 -155 -301q-77 -43 -155 -43h-889q-77 0 -155 43q-154 86 -154 301zM837 1489 v215h201l-69 -215h-132z" />
<glyph unicode="&#xdb;" d="M96 344v932q1 40 21 79q40 80 136 80q97 0 137 -80q20 -39 21 -79v-816q0 -50 32 -85t77 -35h666q45 0 78 35q32 35 32 85v816q0 40 19 79q38 80 134 80t135 -80q20 -39 20 -79v-932q0 -215 -155 -301q-77 -43 -155 -43h-889q-77 0 -155 43q-154 86 -154 301zM710 1526 q0 19 13 32l145 145l144 -145q13 -13 13 -32t-13 -32q-14 -13 -32 -13q-19 0 -32 13l-80 80l-81 -80q-13 -13 -32 -13q-18 0 -32 13q-13 13 -13 32z" />
<glyph unicode="&#xdc;" horiz-adv-x="1730" d="M96 344q0 -215 154 -301q78 -43 155 -43h889q78 0 155 43q155 86 155 301v932q0 40 -20 79q-39 80 -135 80t-134 -80q-19 -39 -19 -79v-816q0 -50 -32 -85q-33 -35 -78 -35h-666q-45 0 -77 35t-32 85v816q-1 40 -21 79q-40 80 -137 80q-96 0 -136 -80q-20 -39 -21 -79 v-932zM595 1607q0 42 30 72t73 30q42 0 72 -30t30 -72q0 -43 -30 -73t-72 -30q-43 0 -73 30t-30 73zM900 1607q0 42 30 72t72 30t73 -30q30 -30 30 -72q0 -43 -30 -73q-31 -30 -73 -30t-72 30t-30 73z" />
<glyph unicode="&#xdd;" d="M96 344v932q1 40 21 79q40 80 136 80q97 0 137 -80q20 -39 21 -79v-816q0 -50 32 -85t77 -35h666q45 0 78 35q32 35 32 85v816q0 40 19 79q38 80 134 80t135 -80q20 -39 20 -79v-932q0 -215 -155 -301q-77 -43 -155 -43h-889q-77 0 -155 43q-154 86 -154 301zM837 1489 v215h201l-69 -215h-132z" />
<glyph unicode="&#xe0;" horiz-adv-x="1720" d="M98 344v166h1v37q0 86 38 172q77 172 270 172h906h1h1v80q0 49 -32 84t-77 35h-625q-44 1 -87 23q-88 43 -88 150q0 106 88 150q43 21 87 22h740q77 0 154 -43q154 -86 154 -301v-747q0 -86 -38 -172q-77 -172 -270 -172h-913q-194 0 -271 172q-39 86 -39 172zM410 453 q0 -46 30 -78q30 -31 76 -31h690q45 0 77 35t32 84v95l-802 2q-46 0 -74 -30q-29 -30 -29 -77zM598 1704h201v-215h-132z" />
<glyph unicode="&#xe1;" horiz-adv-x="1720" d="M98 344v166h1v37q0 86 38 172q77 172 270 172h906h1h1v80q0 49 -32 84t-77 35h-625q-44 1 -87 23q-88 43 -88 150q0 106 88 150q43 21 87 22h740q77 0 154 -43q154 -86 154 -301v-747q0 -86 -38 -172q-77 -172 -270 -172h-913q-194 0 -271 172q-39 86 -39 172zM410 453 q0 -46 30 -78q30 -31 76 -31h690q45 0 77 35t32 84v95l-802 2q-46 0 -74 -30q-29 -30 -29 -77zM837 1489v215h201l-69 -215h-132z" />
<glyph unicode="&#xe2;" d="M98 344v166h1v37q0 86 38 172q77 172 270 172h906h1h1v80q0 49 -32 84t-77 35h-625q-44 1 -87 23q-88 43 -88 150q0 106 88 150q43 21 87 22h740q77 0 154 -43q154 -86 154 -301v-747q0 -86 -38 -172q-77 -172 -270 -172h-913q-194 0 -271 172q-39 86 -39 172zM410 453 q0 -46 30 -78q30 -31 76 -31h690q45 0 77 35t32 84v95l-802 2q-46 0 -74 -30q-29 -30 -29 -77zM710 1526q0 19 13 32l145 145l144 -145q13 -13 13 -32t-13 -32q-14 -13 -32 -13q-19 0 -32 13l-80 80l-81 -80q-13 -13 -32 -13q-18 0 -32 13q-13 13 -13 32z" />
<glyph unicode="&#xe3;" horiz-adv-x="1716" d="M98 344v166h1v37q0 86 38 172q77 172 270 172h906h1h1v80q0 49 -32 84t-77 35h-625q-44 1 -87 23q-88 43 -88 150q0 106 88 150q43 21 87 22h740q77 0 154 -43q154 -86 154 -301v-747q0 -86 -38 -172q-77 -172 -270 -172h-913q-194 0 -271 172q-39 86 -39 172zM410 453 q0 -46 30 -78q30 -31 76 -31h690q45 0 77 35t32 84v95l-802 2q-46 0 -74 -30q-29 -30 -29 -77zM626 1617q0 38 26 67q26 27 64 31v1h326q41 0 70 -29t29 -70t-29 -70t-70 -29h-326v1q-38 4 -64 32t-26 66z" />
<glyph unicode="&#xe4;" d="M98 344q0 -86 39 -172q77 -172 271 -172h913q193 0 270 172q38 86 38 172v747q0 215 -154 301q-77 43 -154 43h-740q-44 -1 -87 -22q-88 -44 -88 -150q0 -107 88 -150q43 -22 87 -23h625q45 0 77 -35t32 -84v-80h-1h-1h-906q-193 0 -270 -172q-38 -86 -38 -172v-37h-1 v-166zM410 453q0 47 29 77q28 30 74 30l802 -2v-95q0 -49 -32 -84t-77 -35h-690q-46 0 -76 31q-30 32 -30 78zM595 1607q0 42 30 72t73 30q42 0 72 -30t30 -72q0 -43 -30 -73t-72 -30q-43 0 -73 30t-30 73zM900 1607q0 42 30 72t72 30t73 -30q30 -30 30 -72q0 -43 -30 -73 q-31 -30 -73 -30t-72 30t-30 73z" />
<glyph unicode="&#xe6;" horiz-adv-x="2899" d="M104 344v166h1v37q0 86 42 172q84 172 294 172h842v80q0 49 -35 84t-85 35h-721v2q-69 3 -117 52q-48 50 -48 119q0 71 50 122q51 50 122 50h840q84 0 168 -43q168 -86 168 -301v-747q0 -86 -42 -172q-84 -172 -294 -172h-847q-211 0 -296 172q-42 86 -42 172zM444 453 q0 -46 33 -78q33 -31 83 -31h603q50 0 85 35t35 84v95l-727 1q-49 0 -80 -29q-32 -30 -32 -77zM1285 344v747q0 86 42 172q84 172 294 172h849q211 0 296 -172q42 -86 42 -172v-166h-1v-24q0 -86 -42 -172q-84 -172 -294 -172h-841h-2v-93q0 -49 35 -84t84 -35h882h1h1 q71 0 122 -50q50 -51 50 -122t-50 -121t-121 -51v-1h-1011q-84 0 -168 43q-168 86 -168 301zM1628 890l728 -1q116 0 116 97q0 105 -120 105h-605q-49 0 -84 -35t-35 -84v-82z" />
<glyph unicode="&#xe7;" horiz-adv-x="1720" d="M98 342v747q0 85 38 171q77 171 269 171h1056q42 -1 85 -22q85 -44 85 -150q0 -105 -85 -149q-43 -21 -85 -21h-941q-45 0 -77 -35t-32 -85v-507q0 -49 32 -84t77 -35h941q42 0 85 -21q85 -43 85 -149t-85 -150q-43 -22 -85 -23h-1056q-77 0 -153 43q-154 85 -154 299z M690 -294q0 61 53 91q8 7 26 11q5 1 9 1q35 7 46 12q22 11 22 35q0 44 31 75q31 30 74 30h1h1q43 0 73 -30q31 -31 31 -74q0 -127 -123 -204q-61 -39 -122 -52q-1 1 -2 1q-10 -1 -15 -1q-44 0 -74 31q-31 30 -31 74z" />
<glyph unicode="&#xe8;" d="M102 344v747q0 86 39 172q77 172 269 172h913q194 0 272 -172q38 -86 38 -172v-166v-37q0 -86 -39 -172q-77 -172 -270 -172h-906h-1h-1v-80q0 -49 32 -84t78 -35h915q43 -1 87 -23q87 -43 87 -150q0 -106 -87 -150q-44 -21 -87 -22h-1031q-77 0 -154 43 q-154 86 -154 301zM416 877l803 -2q45 0 74 30t29 76q0 47 -31 79q-30 31 -75 31h-690q-46 0 -78 -35t-32 -84v-95zM598 1704h201v-215h-132z" />
<glyph unicode="&#xe9;" horiz-adv-x="1716" d="M102 344v747q0 86 39 172q77 172 269 172h913q194 0 272 -172q38 -86 38 -172v-166v-37q0 -86 -39 -172q-77 -172 -270 -172h-906h-1h-1v-80q0 -49 32 -84t78 -35h915q43 -1 87 -23q87 -43 87 -150q0 -106 -87 -150q-44 -21 -87 -22h-1031q-77 0 -154 43 q-154 86 -154 301zM416 877l803 -2q45 0 74 30t29 76q0 47 -31 79q-30 31 -75 31h-690q-46 0 -78 -35t-32 -84v-95zM837 1489v215h201l-69 -215h-132z" />
<glyph unicode="&#xea;" horiz-adv-x="1720" d="M102 344v747q0 86 39 172q77 172 269 172h913q194 0 272 -172q38 -86 38 -172v-166v-37q0 -86 -39 -172q-77 -172 -270 -172h-906h-1h-1v-80q0 -49 32 -84t78 -35h915q43 -1 87 -23q87 -43 87 -150q0 -106 -87 -150q-44 -21 -87 -22h-1031q-77 0 -154 43 q-154 86 -154 301zM416 877l803 -2q45 0 74 30t29 76q0 47 -31 79q-30 31 -75 31h-690q-46 0 -78 -35t-32 -84v-95zM710 1526q0 19 13 32l145 145l144 -145q13 -13 13 -32t-13 -32q-14 -13 -32 -13q-19 0 -32 13l-80 80l-81 -80q-13 -13 -32 -13q-18 0 -32 13q-13 13 -13 32 z" />
<glyph unicode="&#xeb;" horiz-adv-x="1720" d="M102 344q0 -215 154 -301q77 -43 154 -43h1031q43 1 87 22q87 44 87 150q0 107 -87 150q-44 22 -87 23h-915q-46 0 -78 35t-32 84v80h1h1h906q193 0 270 172q39 86 39 172v37v166q0 86 -38 172q-78 172 -272 172h-913q-192 0 -269 -172q-39 -86 -39 -172v-747zM416 877 v95q0 49 32 84t78 35h690q45 0 75 -31q31 -32 31 -79q0 -46 -29 -76t-74 -30zM595 1607q0 42 30 72t73 30q42 0 72 -30t30 -72q0 -43 -30 -73t-72 -30q-43 0 -73 30t-30 73zM900 1607q0 42 30 72t72 30t73 -30q30 -30 30 -72q0 -43 -30 -73q-31 -30 -73 -30t-72 30t-30 73z " />
<glyph unicode="&#xec;" horiz-adv-x="547" d="M101 1429h201v-215h-132zM103 175v545q-2 44 19 87q42 87 152 87q111 0 153 -87q21 -43 20 -87v-545q0 -43 -21 -87q-42 -88 -149 -88q-108 0 -152 88q-22 44 -22 87z" />
<glyph unicode="&#xed;" horiz-adv-x="534" d="M102 175v545q-1 44 20 87q41 87 152 87q110 0 152 -87q22 -43 20 -87v-545q1 -43 -20 -87q-43 -88 -150 -88t-151 88q-22 44 -23 87zM234 1218v215h201l-69 -215h-132z" />
<glyph unicode="&#xee;" horiz-adv-x="547" d="M102 175v545q-1 44 20 87q41 87 152 87q110 0 152 -87q22 -43 20 -87v-545q1 -43 -20 -87q-43 -88 -150 -88t-151 88q-22 44 -23 87zM133 1251q0 19 13 32l145 145l144 -145q13 -13 13 -32t-13 -32q-14 -13 -32 -13q-19 0 -32 13l-80 80l-81 -80q-13 -13 -32 -13 q-18 0 -32 13q-13 13 -13 32z" />
<glyph unicode="&#xef;" horiz-adv-x="550" d="M35 1329q0 42 30 72t73 30q42 0 72 -30t30 -72q0 -43 -30 -73t-72 -30q-43 0 -73 30t-30 73zM103 175q0 -43 22 -87q44 -88 152 -88q107 0 149 88q21 44 21 87v545q1 44 -20 87q-42 87 -153 87q-110 0 -152 -87q-21 -43 -19 -87v-545zM340 1329q0 42 30 72t72 30t73 -30 q30 -30 30 -72q0 -43 -30 -73q-31 -30 -73 -30t-72 30t-30 73z" />
<glyph unicode="&#xf1;" horiz-adv-x="1734" d="M100 171l1 1260h1185q85 0 170 -42q171 -84 171 -293v-923q1 -43 -20 -86q-42 -86 -150 -86q-107 0 -150 86q-21 43 -21 86v798q0 50 -35 85q-35 34 -85 34h-719v-918q1 -43 -20 -86q-43 -86 -152 -86t-153 85q-22 43 -22 86zM626 1617q0 38 26 67q26 27 64 31v1h326 q41 0 70 -29t29 -70t-29 -70t-70 -29h-326v1q-38 4 -64 32t-26 66z" />
<glyph unicode="&#xf2;" horiz-adv-x="1720" d="M104 343v749q0 85 42 172q84 171 294 171h840q212 0 296 -171q42 -87 42 -172v-749q0 -215 -168 -300q-84 -43 -170 -43h-840q-69 0 -143 32q-150 63 -183 221h-2l2 1q-10 46 -10 89zM446 459q0 -49 35 -84q32 -31 75 -34v-1h5q3 -1 4 -1h598q50 0 85 35q32 33 34 80 l1 -1v433v80v7q0 49 -35 84q-35 36 -86 36h-431l1 -1h-167q-49 0 -84 -35t-35 -85v-432v-81zM598 1704h201v-215h-132z" />
<glyph unicode="&#xf3;" horiz-adv-x="1716" d="M104 343v749q0 85 42 172q84 171 294 171h840q212 0 296 -171q42 -87 42 -172v-749q0 -215 -168 -300q-84 -43 -170 -43h-840q-69 0 -143 32q-150 63 -183 221h-2l2 1q-10 46 -10 89zM446 459q0 -49 35 -84q32 -31 75 -34v-1h5q3 -1 4 -1h598q50 0 85 35q32 33 34 80 l1 -1v433v80v7q0 49 -35 84q-35 36 -86 36h-431l1 -1h-167q-49 0 -84 -35t-35 -85v-432v-81zM837 1489v215h201l-69 -215h-132z" />
<glyph unicode="&#xf4;" horiz-adv-x="1720" d="M104 343v749q0 85 42 172q84 171 294 171h840q212 0 296 -171q42 -87 42 -172v-749q0 -215 -168 -300q-84 -43 -170 -43h-840q-69 0 -143 32q-150 63 -183 221h-2l2 1q-10 46 -10 89zM446 459q0 -49 35 -84q32 -31 75 -34v-1h5q3 -1 4 -1h598q50 0 85 35q32 33 34 80 l1 -1v433v80v7q0 49 -35 84q-35 36 -86 36h-431l1 -1h-167q-49 0 -84 -35t-35 -85v-432v-81zM710 1526q0 19 13 32l145 145l144 -145q13 -13 13 -32t-13 -32q-14 -13 -32 -13q-19 0 -32 13l-80 80l-81 -80q-13 -13 -32 -13q-18 0 -32 13q-13 13 -13 32z" />
<glyph unicode="&#xf5;" d="M104 343v749q0 85 42 172q84 171 294 171h840q212 0 296 -171q42 -87 42 -172v-749q0 -215 -168 -300q-84 -43 -170 -43h-840q-69 0 -143 32q-150 63 -183 221h-2l2 1q-10 46 -10 89zM446 459q0 -49 35 -84q32 -31 75 -34v-1h5q3 -1 4 -1h598q50 0 85 35q32 33 34 80 l1 -1v433v80v7q0 49 -35 84q-35 36 -86 36h-431l1 -1h-167q-49 0 -84 -35t-35 -85v-432v-81zM613 1617q0 38 26 67q26 27 63 31v1h327q41 0 70 -29t29 -70t-29 -70t-70 -29h-327v1q-37 4 -63 32t-26 66z" />
<glyph unicode="&#xf6;" d="M104 343q0 -43 10 -89l-2 -1h2q33 -158 183 -221q74 -32 143 -32h840q86 0 170 43q168 85 168 300v749q0 85 -42 172q-84 171 -296 171h-840q-210 0 -294 -171q-42 -87 -42 -172v-749zM446 459v81v432q0 50 35 85t84 35h167l-1 1h431q51 0 86 -36q35 -35 35 -84v-7v-80 v-433l-1 1q-2 -47 -34 -80q-35 -35 -85 -35h-598q-1 0 -4 1h-5v1q-43 3 -75 34q-35 35 -35 84zM595 1607q0 42 30 72t73 30q42 0 72 -30t30 -72q0 -43 -30 -73t-72 -30q-43 0 -73 30t-30 73zM900 1607q0 42 30 72t72 30t73 -30q30 -30 30 -72q0 -43 -30 -73q-31 -30 -73 -30 t-72 30t-30 73z" />
<glyph unicode="&#xf7;" horiz-adv-x="1736" d="M100 717q0 71 50 121t121 50h1195q71 0 121 -50t50 -121t-50 -121t-121 -50h-1195q-71 0 -121 50t-50 121zM696 172q0 72 51 122q50 51 121 51q72 0 122 -51q51 -50 51 -122q0 -71 -51 -121q-50 -51 -122 -51q-71 0 -121 51q-51 50 -51 121zM696 1264q0 71 51 122 q50 50 121 50q72 0 122 -50q51 -51 51 -122q0 -72 -51 -122q-50 -51 -122 -51q-71 0 -121 51q-51 50 -51 122z" />
<glyph unicode="&#xf8;" horiz-adv-x="1716" d="M-53 -99l1112 1617h387l-1112 -1617h-387zM104 345v751q0 86 42 173q84 172 295 172h844q212 0 297 -172q43 -87 43 -173v-751q0 -216 -170 -302q-85 -43 -170 -43h-844q-84 0 -169 43q-168 86 -168 302zM448 461q0 -50 35 -85t84 -35h600q50 0 85 35t35 85v429h1v86 q0 50 -36 85q-35 35 -84 35h-601q-49 0 -84 -35t-35 -85v-515z" />
<glyph unicode="&#xf9;" horiz-adv-x="1726" d="M96 344v932q1 40 21 79q40 80 136 80q97 0 137 -80q20 -39 21 -79v-816q0 -50 32 -85t77 -35h666q45 0 78 35q32 35 32 85v816q0 40 19 79q38 80 134 80t135 -80q20 -39 20 -79v-932q0 -215 -155 -301q-77 -43 -155 -43h-889q-77 0 -155 43q-154 86 -154 301zM598 1704 h201v-215h-132z" />
<glyph unicode="&#xfa;" d="M96 344v932q1 40 21 79q40 80 136 80q97 0 137 -80q20 -39 21 -79v-816q0 -50 32 -85t77 -35h666q45 0 78 35q32 35 32 85v816q0 40 19 79q38 80 134 80t135 -80q20 -39 20 -79v-932q0 -215 -155 -301q-77 -43 -155 -43h-889q-77 0 -155 43q-154 86 -154 301zM837 1489 v215h201l-69 -215h-132z" />
<glyph unicode="&#xfb;" horiz-adv-x="1726" d="M96 344v932q1 40 21 79q40 80 136 80q97 0 137 -80q20 -39 21 -79v-816q0 -50 32 -85t77 -35h666q45 0 78 35q32 35 32 85v816q0 40 19 79q38 80 134 80t135 -80q20 -39 20 -79v-932q0 -215 -155 -301q-77 -43 -155 -43h-889q-77 0 -155 43q-154 86 -154 301zM710 1526 q0 19 13 32l145 145l144 -145q13 -13 13 -32t-13 -32q-14 -13 -32 -13q-19 0 -32 13l-80 80l-81 -80q-13 -13 -32 -13q-18 0 -32 13q-13 13 -13 32z" />
<glyph unicode="&#xfc;" horiz-adv-x="1720" d="M96 344q0 -215 154 -301q78 -43 155 -43h889q78 0 155 43q155 86 155 301v932q0 40 -20 79q-39 80 -135 80t-134 -80q-19 -39 -19 -79v-816q0 -50 -32 -85q-33 -35 -78 -35h-666q-45 0 -77 35t-32 85v816q-1 40 -21 79q-40 80 -137 80q-96 0 -136 -80q-20 -39 -21 -79 v-932zM595 1607q0 42 30 72t73 30q42 0 72 -30t30 -72q0 -43 -30 -73t-72 -30q-43 0 -73 30t-30 73zM900 1607q0 42 30 72t72 30t73 -30q30 -30 30 -72q0 -43 -30 -73q-31 -30 -73 -30t-72 30t-30 73z" />
<glyph unicode="&#xfd;" d="M96 344v932q1 40 21 79q40 80 136 80q97 0 137 -80q20 -39 21 -79v-816q0 -50 32 -85t77 -35h666q45 0 78 35q32 35 32 85v816q0 40 19 79q38 80 134 80t135 -80q20 -39 20 -79v-932q0 -215 -155 -301q-77 -43 -155 -43h-889q-77 0 -155 43q-154 86 -154 301zM837 1489 v215h201l-69 -215h-132z" />
<glyph unicode="&#xff;" horiz-adv-x="1726" d="M103 891q0 -85 43 -169q85 -170 296 -170h851v-90q0 -49 -37 -84t-87 -35h-563q-71 0 -121 -50q-50 -51 -50 -122t50 -121t121 -50q-3 0 4 0h685q209 0 293 172q42 85 42 171l-2 920v2q1 1 1 2q0 69 -50 118q-49 50 -119 50q-69 0 -118 -50q-50 -49 -50 -118q0 5 1 -11 v-366h-729q-49 0 -84 35t-35 85v250q1 7 1 3q0 71 -50 121q-51 51 -122 51q-70 0 -120 -50q-50 -49 -51 -119v-375zM595 1607q0 42 30 72t73 30q42 0 72 -30t30 -72q0 -43 -30 -73t-72 -30q-43 0 -73 30t-30 73zM900 1607q0 42 30 72t72 30t73 -30q30 -30 30 -72 q0 -43 -30 -73q-31 -30 -73 -30t-72 30t-30 73z" />
<glyph unicode="&#x2c6;" horiz-adv-x="704" d="M198 1526q0 19 13 32l145 145l144 -145q13 -13 13 -32t-13 -32q-14 -13 -32 -13q-19 0 -32 13l-80 80l-81 -80q-13 -13 -32 -13q-18 0 -32 13q-13 13 -13 32z" />
<glyph unicode="&#x2dc;" horiz-adv-x="1024" d="M255 1617q0 38 26 67q26 27 64 31v1h326q41 0 70 -29t29 -70t-29 -70t-70 -29h-326v1q-38 4 -64 32t-26 66z" />
<glyph unicode="&#x2000;" horiz-adv-x="926" />
<glyph unicode="&#x2001;" horiz-adv-x="1852" />
<glyph unicode="&#x2002;" horiz-adv-x="926" />
<glyph unicode="&#x2003;" horiz-adv-x="1852" />
<glyph unicode="&#x2004;" horiz-adv-x="617" />
<glyph unicode="&#x2005;" horiz-adv-x="463" />
<glyph unicode="&#x2006;" horiz-adv-x="308" />
<glyph unicode="&#x2007;" horiz-adv-x="308" />
<glyph unicode="&#x2008;" horiz-adv-x="231" />
<glyph unicode="&#x2009;" horiz-adv-x="370" />
<glyph unicode="&#x200a;" horiz-adv-x="102" />
<glyph unicode="&#x2010;" horiz-adv-x="1701" d="M97 714q0 69 49 119q49 49 119 49h1176q70 0 119 -49q49 -50 49 -119q0 -70 -49 -119t-119 -49h-1176q-70 0 -119 49t-49 119z" />
<glyph unicode="&#x2011;" horiz-adv-x="1701" d="M97 714q0 69 49 119q49 49 119 49h1176q70 0 119 -49q49 -50 49 -119q0 -70 -49 -119t-119 -49h-1176q-70 0 -119 49t-49 119z" />
<glyph unicode="&#x2012;" horiz-adv-x="1701" d="M97 714q0 69 49 119q49 49 119 49h1176q70 0 119 -49q49 -50 49 -119q0 -70 -49 -119t-119 -49h-1176q-70 0 -119 49t-49 119z" />
<glyph unicode="&#x2013;" horiz-adv-x="1697" d="M93 856q0 69 49 119q49 49 119 49h1176q70 0 119 -49q49 -50 49 -119q0 -70 -49 -119t-119 -49h-1176q-70 0 -119 49t-49 119z" />
<glyph unicode="&#x2014;" horiz-adv-x="2406" d="M93 856q0 69 49 119q49 49 119 49h1865q70 0 119 -49q49 -50 49 -119q0 -70 -49 -119t-119 -49h-1865q-70 0 -119 49t-49 119z" />
<glyph unicode="&#x2018;" horiz-adv-x="557" d="M91 1246q0 172 210 272q105 50 210 66q-35 -20 -69 -72q-70 -104 -70 -266q0 -58 -41 -99q-41 -42 -99 -42q-59 0 -100 42q-41 41 -41 99z" />
<glyph unicode="&#x2019;" horiz-adv-x="557" d="M91 1105q35 20 70 72q69 105 69 267q0 58 41 99t100 41q58 0 99 -41t41 -99q0 -172 -210 -273q-105 -50 -210 -66z" />
<glyph unicode="&#x201a;" horiz-adv-x="580" d="M4 -239q39 23 79 82q78 117 78 300q0 66 47 113q46 46 112 46q65 0 112 -46q46 -47 46 -113q0 -193 -236 -307q-120 -56 -238 -75z" />
<glyph unicode="&#x201c;" horiz-adv-x="910" d="M124 1246q0 172 210 272q105 50 210 66q-35 -20 -69 -72q-70 -104 -70 -266q0 -58 -41 -99q-41 -42 -99 -42q-59 0 -100 42q-41 41 -41 99zM448 1246q0 172 210 272q105 50 210 66q-35 -20 -69 -72q-70 -104 -70 -266q0 -58 -41 -99q-41 -42 -99 -42q-59 0 -100 42 q-41 41 -41 99z" />
<glyph unicode="&#x201d;" horiz-adv-x="910" d="M91 1105q35 20 70 72q69 105 69 267q0 58 41 99t100 41q58 0 99 -41t41 -99q0 -172 -210 -273q-105 -50 -210 -66zM415 1105q35 20 70 72q69 105 69 267q0 58 41 99t100 41q58 0 99 -41t41 -99q0 -172 -210 -273q-105 -50 -210 -66z" />
<glyph unicode="&#x201e;" horiz-adv-x="910" d="M32 -171q35 20 70 72q69 105 69 267q0 58 41 99t100 41q58 0 99 -41t41 -99q0 -172 -210 -273q-105 -50 -210 -66zM356 -171q35 20 70 72q69 105 69 267q0 58 41 99t100 41q58 0 99 -41t41 -99q0 -172 -210 -273q-105 -50 -210 -66z" />
<glyph unicode="&#x2022;" horiz-adv-x="1216" d="M221 692q0 166 117.5 282t283.5 116q165 0 281.5 -116.5t116.5 -281.5t-118 -283t-283 -118q-166 0 -282 117.5t-116 283.5z" />
<glyph unicode="&#x2026;" horiz-adv-x="2005" d="M105 200q0 83 59 141q58 59 141 59t141 -59q59 -58 59 -141t-59 -141q-58 -59 -141 -59t-141 59q-59 58 -59 141zM811 200q0 83 59 141q58 59 141 59t141 -59q59 -58 59 -141t-59 -141q-58 -59 -141 -59t-141 59q-59 58 -59 141zM1500 200q0 83 59 141q58 59 141 59 t141 -59q59 -58 59 -141t-59 -141q-58 -59 -141 -59t-141 59q-59 58 -59 141z" />
<glyph unicode="&#x202f;" horiz-adv-x="370" />
<glyph unicode="&#x2039;" horiz-adv-x="828" d="M100 733l422 421q39 39 93 39q55 0 94 -39t39 -94t-39 -93l-234 -234l234 -235q39 -38 39 -93t-39 -94t-94 -39q-54 0 -93 39z" />
<glyph unicode="&#x203a;" horiz-adv-x="828" d="M100 405q0 55 39 93l234 235l-234 234q-39 38 -39 93t39 94t94 39t93 -39l422 -421l-422 -422q-38 -39 -93 -39t-94 39t-39 94z" />
<glyph unicode="&#x205f;" horiz-adv-x="463" />
<glyph unicode="&#x20ac;" horiz-adv-x="1014" d="M-44 653l17 60h87v29q0 16 1 31h-71l17 60h58q14 145 76 281q81 178 226 274t298 96q43 0 87 -8q40 -10 82 -29q8 -6 16 -6q20 0 34 45h41l84 -281l-40 -1q-49 134 -138 178q-43 22 -81 32v3q-50 16 -101 16q-17 0 -34 -2q-120 -12 -226 -113.5t-157 -273.5 q-32 -104 -39 -211h706l-17 -60h-692q0 -30 2 -60h674l-17 -60h-652q17 -158 83 -298q74 -157 193 -236q102 -68 216 -69q186 3 256 91q74 91 74 185h48v-143q0 -70 -111 -127q-105 -54 -267 -56q-181 0 -325.5 98t-223.5 274q-62 135 -76 281h-108z" />
<glyph unicode="&#x2122;" horiz-adv-x="1942" d="M105 1335q0 41 29 70q28 28 69 28q-2 0 7 0h678q10 0 7 0q41 0 70 -28q28 -29 28 -70q0 -40 -28 -69q-29 -29 -70 -29h-1h-247v-539v-1v-1q0 -40 -28 -69q-29 -28 -69 -28q-41 0 -69 28q-29 29 -29 69v541h-248h-2q-40 1 -69 29q-28 29 -28 69zM1042 703l1 728h685 q49 0 99 -24q99 -49 99 -170v-533q0 -25 -12 -50q-25 -50 -87 -50t-87 50q-12 25 -12 50v461q0 28 -20 49q-20 20 -49 20h-75v-383q0 -25 -13 -50q-24 -50 -85 -50q-60 0 -85 50q-12 25 -11 50v383h-147v-530q0 -26 -13 -51q-25 -50 -87 -50q-63 0 -88 50q-13 25 -13 50z " />
<glyph unicode="&#xe000;" horiz-adv-x="1435" d="M0 0v1435h1435v-1435h-1435z" />
</font>
</defs>
</svg>
