<?xml version="1.0" standalone="no"?>
<!DOCTYPE svg PUBLIC "-//W3C//DTD SVG 1.1//EN" "http://www.w3.org/Graphics/SVG/1.1/DTD/svg11.dtd" >
<svg xmlns="http://www.w3.org/2000/svg">
<metadata></metadata>
<defs>
<font id="roundregular" horiz-adv-x="1014" >
<font-face units-per-em="2048" ascent="1638" descent="-410" />
<missing-glyph horiz-adv-x="508" />
<glyph horiz-adv-x="2048" />
<glyph horiz-adv-x="2048" />
<glyph unicode="&#xd;" horiz-adv-x="508" />
<glyph unicode=" "  horiz-adv-x="508" />
<glyph unicode="&#x09;" horiz-adv-x="508" />
<glyph unicode="&#xa0;" horiz-adv-x="508" />
<glyph unicode="!" horiz-adv-x="389" d="M43 15v113q2 15 15 15h272q15 -2 15 -15v-113q0 -15 -15 -15h-272q-15 0 -15 15zM43 309v1109q2 15 15 15h272q15 -2 15 -15v-1109q0 -15 -15 -15h-272q-15 0 -15 15z" />
<glyph unicode="&#x22;" horiz-adv-x="850" d="M73 1216v215q2 2 15 2h255q15 0 15 -2v-215q0 -2 -15 -2h-255q-15 0 -15 2zM503 1216v215q2 2 15 2h255q15 0 15 -2v-215q0 -2 -15 -2h-255q-15 0 -15 2z" />
<glyph unicode="#" horiz-adv-x="989" d="M36 135v216q2 12 12 12h332v172h-332q-12 0 -12 12v216q2 12 12 12h332v646q2 12 13 12h215q12 -2 12 -12v-646h332q13 -2 13 -12v-216q0 -12 -13 -12h-332v-172h332q13 -2 13 -12v-216q0 -12 -13 -12h-332v-516q0 -13 -12 -13h-215q-13 0 -13 13v516h-332q-12 0 -12 12z " />
<glyph unicode="$" horiz-adv-x="1063" d="M49 -77v211q2 13 12 13h342v230h-99q-186 0 -236 143q-19 39 -19 99v249q0 164 194 217q31 6 61 6h99v330q2 12 13 12h218q12 -2 12 -12v-330h342q12 -2 12 -12v-218q0 -12 -13 -12h-341v-230h118q176 0 223 -175q7 -23 7 -49v-273q0 -181 -218 -211h126l-216 -36 l-40 -288q0 -12 -13 -12h-217q-13 0 -13 12v324h-342q-12 0 -12 12zM49 809q242 28 242 -66v-18q0 -89 112 -106v190h-354zM646 147q90 0 112 118q-24 112 -112 112v-230z" />
<glyph unicode="%" horiz-adv-x="1610" d="M62 1080q0 100 52 190.5t144.5 139.5t190.5 49t190.5 -49t144.5 -139.5t52 -190.5q0 -99 -50.5 -188.5t-143 -140t-193.5 -50.5q-100 0 -192.5 50.5t-143.5 140t-51 188.5zM202 1128q0 -31 4 -62q13 -92 55.5 -173.5t106.5 -124.5q57 -40 114 -40q7 0 13 1q63 3 115 53 t73 136q13 54 13 111q0 32 -4 65q-12 93 -56 175.5t-107 124.5q-58 38 -115 38h-12q-60 -3 -112 -51.5t-73 -135.5q-15 -59 -15 -117zM297 -29l940 1461h84l-938 -1461h-86zM774 359q0 99 52 189.5t144.5 140t190.5 49.5q97 0 190 -49.5t145 -140t52 -189.5 q0 -100 -50.5 -189.5t-143 -139.5t-193.5 -50t-193 50t-143 139.5t-51 189.5zM914 406q0 -31 4 -62q13 -92 55.5 -173.5t106.5 -124.5q59 -39 116 -39h12q62 3 114 53t73 136q13 54 13 111q0 32 -4 65q-12 93 -56 175.5t-107 124.5q-58 38 -115 38h-12q-60 -3 -112 -51.5 t-73 -135.5q-15 -59 -15 -117z" />
<glyph unicode="&#x26;" horiz-adv-x="1573" d="M66 293v571q0 177 150 248q67 30 143 30h586q240 0 271 -301v-413q0 -15 -16 -15h-841q0 -109 158 -120h683q16 0 16 -23q0 -232 -286 -270h-601q-186 0 -248 195q-15 34 -15 98zM359 721h524q40 105 -96 128h-308q-96 0 -120 -128zM651 869v287h419v-287h-419zM691 909 v207h339v-207h-339zM932 13v1426h275v-1426h-275zM1070 869v287h418v-287h-418z" />
<glyph unicode="'" horiz-adv-x="346" d="M0 1216v215q2 2 15 2h255q15 0 15 -2v-215q0 -2 -15 -2h-255q-15 0 -15 2z" />
<glyph unicode="(" horiz-adv-x="534" d="M36 1189q0 159 191 229q29 15 83 15h145q15 -2 15 -15v-145q0 -40 8 -130q-145 -12 -145 -114v-617q0 -109 130 -122l7 -16v-259q0 -15 -15 -15h-137q-189 0 -252 198q-15 34 -15 99v84q0 23 9 23l-9 30q0 134 -15 755z" />
<glyph unicode=")" horiz-adv-x="529" d="M61 15v259q1 11 99 39q46 47 46 129v557q0 129 -84 129q-61 11 -61 23v267q2 15 15 15h137q226 0 282 -213q8 -80 8 -92q-23 -534 -23 -884q0 -157 -198 -236q-29 -8 -61 -8h-145q-15 0 -15 15z" />
<glyph unicode="*" horiz-adv-x="1024" d="M218 1333q0 17 6 36q11 35 36 53q17 12 34 12q9 0 18 -3q20 -6 74 -62q47 -49 112 -75q-4 71 -37 130q-37 66 -37 84q0 32 23.5 51.5t62.5 19.5q37 0 61.5 -18t24.5 -47q0 -21 -36 -89q-33 -61 -37 -129q66 24 113 74q51 55 69 61q11 3 21 3q18 0 36 -10q25 -17 37 -53 q6 -19 6 -36q0 -15 -4 -28q-10 -30 -38 -38q-6 -2 -19 -2q-25 0 -75 9q-29 5 -56 5q-40 0 -81 -10q44 -56 105 -84q68 -32 79 -47q13 -18 13 -38q0 -8 -2 -17q-8 -30 -39 -53q-29 -22 -59 -22q-1 0 -1 1q-31 0 -48 23q-12 17 -22 94q-10 67 -47 124q-38 -57 -46 -123 q-9 -75 -20 -90q-19 -25 -49 -27h-5q-28 0 -57 21q-30 21 -39 51q-4 10 -4 20q0 17 11 32q13 17 83 51q60 29 107 83q-44 10 -82 10q-27 0 -53 -5q-54 -11 -78 -11q-9 0 -14 2q-30 9 -41 38q-6 13 -6 29z" />
<glyph unicode="+" d="M-10 640q0 15 11 15l1010 7q11 -3 11 -15l2 -255q-2 -15 -11 -15l-1010 -7q-11 0 -11 15zM364 11v1010q3 11 15 11h255q15 -2 15 -11v-1010q0 -11 -15 -11h-255q-15 0 -15 11z" />
<glyph unicode="," horiz-adv-x="455" d="M-103 -253l257 264v229q2 15 13 15h237q14 -3 14 -14v-230h13v-7q-241 -263 -250 -263h-284v6z" />
<glyph unicode="-" horiz-adv-x="670" d="M-10 640q0 15 7 15l675 7q7 -3 7 -15l1 -255q-1 -15 -7 -15l-675 -7q-7 0 -7 15z" />
<glyph unicode="." horiz-adv-x="407" d="M86 6v230q2 13 13 13h237q13 -2 13 -13v-230q0 -13 -13 -13h-237q-13 0 -13 13z" />
<glyph unicode="/" horiz-adv-x="569" d="M13 -50l541 1484h80l-541 -1484h-80z" />
<glyph unicode="0" horiz-adv-x="1251" d="M49 279v393q27 53 36 53v8q-21 0 -36 37v401q0 171 174 241q49 23 121 23h581q242 0 272 -295v-339q0 -63 -36 -66v-10q15 0 36 -38v-423q0 -264 -370 -264h-385q-288 0 -340 113q-53 80 -53 166zM336 974q0 -204 8 -574q0 -74 120 -98h318q106 0 120 129v604 q0 99 -166 113h-226q-126 0 -166 -98l-8 -54v-22z" />
<glyph unicode="1" horiz-adv-x="711" d="M55 1142v7q0 10 284 284h276q15 -2 15 -15v-1403q0 -15 -15 -15h-261q-15 0 -15 15v1119l-90 8h-194z" />
<glyph unicode="2" horiz-adv-x="1226" d="M36 15v559q0 207 189 279q34 16 98 16h408q158 0 158 128v23q-16 128 -128 128h-710q-15 0 -15 15v257q2 15 15 15h838q205 0 280 -174q15 -29 15 -83v-332q0 -193 -211 -264q-65 -8 -106 -8h-536v-279h838q15 -3 15 -16v-264q0 -15 -15 -15h-1118q-15 0 -15 15z" />
<glyph unicode="3" horiz-adv-x="1251" d="M43 15v272q2 15 15 15h709q128 15 128 128v15q-14 128 -128 128h-422q-15 0 -15 15v264q2 15 15 15h384q166 0 166 136v23q0 128 -166 128h-671q-15 0 -15 15v249q2 15 15 15h845q225 0 279 -211q7 -39 7 -91v-256q-14 -151 -98 -151q98 -53 98 -158v-242 q0 -324 -339 -324h-792q-15 0 -15 15z" />
<glyph unicode="4" horiz-adv-x="1263" d="M55 573v845q2 15 15 15h272q15 -2 15 -15v-709q0 -121 151 -121h392v830q2 15 15 15h271q15 -2 15 -15v-1403q0 -15 -15 -15h-271q-15 0 -15 15v272h-566q-249 0 -279 286z" />
<glyph unicode="5" horiz-adv-x="1257" d="M49 15v266q2 15 15 15h721q113 0 130 144q-15 129 -130 129h-721q-15 0 -15 16v835q2 15 15 15h1124q15 -2 15 -15v-266q0 -15 -15 -15h-850v-273h546q237 0 304 -175q15 -30 15 -84v-326q-30 -281 -258 -281h-881q-15 0 -15 15z" />
<glyph unicode="6" horiz-adv-x="1263" d="M49 288v880q0 231 273 265h864q15 -2 15 -15v-258q0 -15 -15 -15h-667q-174 0 -174 -137v-7q14 -129 121 -129h402q242 0 311 -167q22 -68 22 -114v-326q0 -227 -272 -265h-615q-224 0 -265 288zM345 425q0 -129 174 -129h220q167 0 167 129v22q0 129 -175 129h-204 q-182 0 -182 -136v-15z" />
<glyph unicode="7" horiz-adv-x="1282" d="M49 1160v258q2 15 15 15h1137q-4 -30 -523 -887q-281 -471 -333 -546h-288q0 24 682 1145h-675q-15 0 -15 15z" />
<glyph unicode="8" horiz-adv-x="1263" d="M55 293v165q0 184 195 255q13 7 -10 7v18q-177 45 -177 260v172q0 182 210 255q74 8 112 8h563q172 0 240 -173q22 -48 22 -120v-150q0 -191 -342 -295h157v33q95 0 178 -218q7 -51 7 -82v-135q0 -208 -210 -278q-56 -15 -105 -15h-547q-230 0 -285 233q-8 29 -8 60z M348 428q18 -128 127 -128h270q158 0 158 120v30q0 128 -173 128h-202q-180 0 -180 -150zM348 990q0 -120 180 -120h195q180 0 180 128v22q0 110 -143 128h-255q-157 0 -157 -158z" />
<glyph unicode="9" horiz-adv-x="1239" d="M43 284l15 7h695q134 16 134 120v149h-523q-225 0 -299 165q-22 84 -22 134v284q0 209 202 269q33 15 97 15h568q235 0 269 -291v-875q0 -185 -195 -246q-59 -15 -142 -15h-508q-291 27 -291 284zM334 986q25 -127 120 -127h321q94 0 112 120v30q0 105 -127 119h-291 q-123 0 -135 -142z" />
<glyph unicode=":" horiz-adv-x="401" d="M61 13v230q2 13 13 13h237q13 -2 13 -13v-230q0 -13 -13 -13h-237q-13 0 -13 13zM68 789v230q2 13 13 13h235q15 -2 15 -13v-230q0 -13 -14 -13h-236q-13 0 -13 13z" />
<glyph unicode=";" horiz-adv-x="438" d="M-139 -253l257 264v229q2 15 13 15h237q14 -3 14 -14v-230h13v-7q-241 -263 -250 -263h-284v6zM125 789v228q2 15 13 15h237q13 -2 13 -14v-229q0 -14 -13 -14h-237q-13 0 -13 14z" />
<glyph unicode="&#x3c;" d="M87 674v83l840 484v-167l-625 -359l625 -355v-167z" />
<glyph unicode="=" d="M87 491v140h840v-140h-840zM87 803v140h840v-140h-840z" />
<glyph unicode="&#x3e;" d="M87 193v167l625 355l-625 359v167l840 -484v-83z" />
<glyph unicode="?" horiz-adv-x="1245" d="M49 1149v263q2 15 15 15h856q263 -35 263 -263v-481q0 -226 -308 -262q-101 0 -112 -121l-16 -7h-262q-15 0 -15 15v143q0 216 247 270q181 0 181 135v143q0 135 -181 135h-653q-15 0 -15 15zM462 15v113q2 15 15 15h270q16 -3 16 -15v-113q0 -15 -16 -15h-270 q-15 0 -15 15z" />
<glyph unicode="@" horiz-adv-x="2078" d="M91 -158v1399q0 209 254 241h1393q171 0 234 -167q14 -47 14 -81v-1426q0 -194 -235 -227h-1432q-150 0 -208 154q-20 43 -20 107zM345 1094q7 -596 7 -924v-214q13 -114 114 -114h1151q114 0 114 167v1058q0 147 -87 147q0 13 -67 14h-1078q-140 -10 -140 -94 q-8 0 -14 -40zM533 270v569q0 136 180 201q31 14 88 14h495q182 0 241 -174q14 -47 14 -81v-756q0 -14 -14 -14h-556q-334 0 -334 40q-114 74 -114 201zM794 411q17 -114 100 -114h389v382q-17 107 -101 107h-281q-107 0 -107 -134v-241z" />
<glyph unicode="A" horiz-adv-x="1263" d="M71 15v1118q0 242 240 300h623q285 -35 285 -270v-1148q0 -15 -15 -15h-278q-15 0 -15 15v270h-540v-270q0 -15 -15 -15h-270q-15 0 -15 15zM379 578h532v420q0 135 -172 135h-188q-172 0 -172 -135v-420z" />
<glyph unicode="B" horiz-adv-x="1257" d="M49 15v1401q2 15 15 15h854q206 0 270 -202q15 -57 15 -105v-187q0 -172 -132 -207v-18q69 0 117 -187v-263q0 -174 -195 -247q-75 -15 -150 -15h-779q-15 0 -15 15zM341 300h427q135 19 135 135q-21 135 -150 135h-412v-270zM341 869h427q135 19 135 135 q-21 135 -150 135h-412v-270z" />
<glyph unicode="C" horiz-adv-x="1257" d="M49 278v862q0 197 188 278q33 15 97 15h848q15 -2 15 -15v-270q0 -15 -15 -15h-690q-143 0 -143 -128v-555q0 -106 83 -142h750q15 -3 15 -15v-278q0 -15 -15 -15h-780q-287 0 -338 195q-15 29 -15 83z" />
<glyph unicode="D" horiz-adv-x="1251" d="M49 15v1403q2 15 15 15h852q199 0 264 -181q15 -57 15 -106v-867q0 -224 -241 -279h-890q-15 0 -15 15zM343 294h438q120 19 120 113v611q-28 113 -135 113h-423v-837z" />
<glyph unicode="E" horiz-adv-x="1239" d="M49 15v1406q0 15 23 15q1048 -8 1104 -8l8 -15v-263q0 -15 -15 -15h-819v-271h548q15 -2 15 -15v-270q0 -15 -15 -15h-548v-271h819q15 -2 15 -15v-263q0 -15 -15 -15h-1105q-15 0 -15 15z" />
<glyph unicode="F" horiz-adv-x="1233" d="M49 15v1403q0 15 23 15q1046 -8 1102 -8l8 -15v-262q0 -15 -15 -15h-818v-270h548q15 -3 15 -15v-270q0 -15 -15 -15h-548v-548q0 -15 -15 -15h-270q-15 0 -15 15z" />
<glyph unicode="G" horiz-adv-x="1263" d="M55 278v862q0 197 188 278q33 15 97 15h848q15 -2 15 -15v-270q0 -15 -15 -15h-690q-143 0 -143 -128v-555q0 -122 98 -142q294 -8 442 -8v255q3 15 15 15h278q15 -2 15 -15v-540q0 -15 -15 -15h-780q-287 0 -338 195q-15 29 -15 83z" />
<glyph unicode="H" horiz-adv-x="1251" d="M49 15v1403q2 15 15 15h270q15 -2 15 -15v-555h555v555q3 15 15 15h263q15 -2 15 -15v-1403q0 -15 -15 -15h-263q-15 0 -15 15v548h-555v-548q0 -15 -15 -15h-270q-15 0 -15 15z" />
<glyph unicode="I" horiz-adv-x="401" d="M55 15v1403q2 15 15 15h255q15 -2 15 -15v-1403q0 -15 -15 -15h-255q-15 0 -15 15z" />
<glyph unicode="J" horiz-adv-x="693" d="M55 15v256q2 15 15 15h136q143 0 143 189v949q2 15 15 15h264q15 -2 15 -15v-1160q0 -187 -196 -249q-60 -15 -143 -15h-234q-15 0 -15 15z" />
<glyph unicode="K" horiz-adv-x="1239" d="M55 30v1388q2 15 15 15h254q15 -2 15 -15v-560l567 560h283v-7l-694 -702q338 -328 702 -702l-15 -7h-284l-567 560v-530q0 -15 -15 -15h-246q-15 0 -15 15z" />
<glyph unicode="L" horiz-adv-x="1251" d="M55 15v1403q2 15 15 15h255q15 -2 15 -15v-1125h848q15 -3 15 -15v-263q0 -15 -15 -15h-1118q-15 0 -15 15z" />
<glyph unicode="M" horiz-adv-x="1543" d="M49 15v1403q2 15 15 15h270q20 0 410 -804q61 27 445 804h278q15 -2 15 -15v-1403q0 -15 -15 -15h-263q-15 0 -15 15v785h-27q-252 -515 -265 -515h-255q-21 7 -273 515h-27v-785q0 -15 -15 -15h-263q-15 0 -15 15z" />
<glyph unicode="N" horiz-adv-x="1269" d="M55 15v1403q2 15 15 15h294l514 -910h29v895q3 15 15 15h272q15 -2 15 -15v-1403q0 -15 -15 -15h-279q-13 10 -528 910h-30v-895q0 -15 -15 -15h-272q-15 0 -15 15z" />
<glyph unicode="O" horiz-adv-x="1276" d="M49 297v868q0 235 289 274h587q289 0 289 -358v-746q0 -240 -152 -312q-83 -23 -99 -23h-655q-170 0 -236 175q-23 50 -23 122zM338 1005q8 -236 8 -373v-206q19 -129 114 -129h343q100 0 114 167v526q0 160 -183 160h-221q-167 0 -167 -137q32 0 -8 -8z" />
<glyph unicode="P" horiz-adv-x="1245" d="M49 15v1403q2 15 15 15h833q189 0 270 -158q30 -46 30 -202v-158q0 -284 -210 -345h-638q-7 -300 -7 -450v-105q0 -15 -15 -15h-263q-15 0 -15 15zM342 870h427q135 19 135 135q-17 135 -120 135h-442v-270z" />
<glyph unicode="Q" horiz-adv-x="1251" d="M55 295v857q0 184 165 255q71 23 128 23h564q199 0 263 -180q15 -34 15 -98v-880q-28 -270 -271 -270l271 -278v-8h-338l-293 286h-226q-250 0 -278 293zM341 430q0 -111 126 -143h302q135 19 135 136v578q0 116 -142 136h-286q-88 0 -128 -105v-8q-7 -306 -7 -458v-136z " />
<glyph unicode="R" horiz-adv-x="1257" d="M55 15v1403q2 15 15 15q742 -8 863 -8q180 0 247 -187q15 -34 15 -98v-165q0 -182 -195 -255h18v-7q79 0 162 -180q23 -76 23 -173v-345q0 -15 -15 -15h-263q-15 0 -15 15v398q0 157 -150 157h-420v-555q0 -15 -15 -15h-255q-15 0 -15 15zM340 870q140 -7 203 -7h240 q127 0 127 142q0 95 -127 135h-443v-270z" />
<glyph unicode="S" horiz-adv-x="1288" d="M67 15v257q2 15 15 15h671q174 0 174 143q0 114 -143 136h-363q-354 0 -354 294v301q0 235 294 272h845q15 -2 15 -15v-264q0 -15 -15 -15h-717q-128 -15 -128 -121v-30q0 -128 166 -128h415q271 -28 271 -272v-332q0 -229 -286 -256h-845q-15 0 -15 15z" />
<glyph unicode="T" horiz-adv-x="1244" d="M36 1152v264q2 15 15 15h1130q15 -2 15 -15v-264q0 -15 -15 -15h-422v-1122q0 -15 -15 -15h-256q-15 0 -15 15v1122h-422q-15 0 -15 15z" />
<glyph unicode="U" horiz-adv-x="1275" d="M61 288v1130q2 15 15 15h273q15 -2 15 -15v-61q0 -346 -7 -932q0 -137 174 -137h220q174 0 174 182v948q3 15 15 15h266q15 -2 15 -15v-1153q0 -202 -243 -265h-636q-248 0 -281 288z" />
<glyph unicode="V" horiz-adv-x="1257" d="M55 1425l15 8h272q17 0 143 -475q113 -357 134 -458h28q260 930 275 933h272q15 -2 15 -15q-407 -1399 -422 -1418h-288q-28 7 -142 437q-15 33 -302 988z" />
<glyph unicode="W" horiz-adv-x="1846" d="M55 1425l15 8h272q17 0 143 -475q75 -234 132 -458h31q124 430 124 443l-144 482l15 8h551q15 -2 15 -15l-143 -490q37 -111 124 -428h31q244 878 267 933h279l15 -8q-392 -1357 -422 -1425h-294q-38 58 -126 390q-39 0 -138 -375l-23 -15h-287q-22 15 -301 989 q-15 28 -136 436z" />
<glyph unicode="X" horiz-adv-x="1282" d="M49 0v15q285 467 402 667h1q3 0 2 4q0 52 -405 732v15h281q74 -97 264 -423h55q256 423 264 423h273q15 -2 15 -15l-424 -698l424 -712l-15 -8h-280q-38 38 -257 415h-55q-242 -400 -264 -415h-281z" />
<glyph unicode="Y" horiz-adv-x="1251" d="M55 1412v15h279q32 -24 264 -428h60q149 266 258 428h287q0 -21 -386 -649q-37 -49 -37 -76v-687q0 -15 -15 -15h-272q-15 0 -15 15v687q-8 38 -423 710z" />
<glyph unicode="Z" horiz-adv-x="1276" d="M49 1160v258q2 15 15 15h1145q0 -20 -607 -1031q-13 -20 -13 -99h612q16 -2 16 -15v-273q0 -15 -16 -15h-1144q0 25 642 1072v73h-635q-15 0 -15 15z" />
<glyph unicode="[" horiz-adv-x="758" />
<glyph unicode="\" horiz-adv-x="569" />
<glyph unicode="]" horiz-adv-x="758" />
<glyph unicode="^" />
<glyph unicode="_" horiz-adv-x="1024" d="M0 -100h1024v-60h-1024v60z" />
<glyph unicode="`" horiz-adv-x="1024" d="M61 1750v6h300q6 0 238 -244v-6h-294q-8 0 -244 244z" />
<glyph unicode="a" horiz-adv-x="1166" d="M49 279v597q0 237 267 272h540q205 0 259 -234v-899q0 -15 -14 -15h-813q-205 0 -239 279zM323 453q0 -158 119 -158h400v400q0 158 -176 158h-154q-182 0 -182 -120q-7 0 -7 -46v-234z" />
<glyph unicode="b" horiz-adv-x="1245" d="M49 15v1405q2 15 15 15h264q16 -2 16 -15v-272h589q227 0 264 -272v-612q0 -180 -210 -256q-77 -8 -115 -8h-808q-15 0 -15 15zM351 295h370q181 0 181 128v310q0 128 -151 128h-400v-566z" />
<glyph unicode="c" horiz-adv-x="1239" d="M49 295v574q0 177 151 249q67 30 144 30h589q241 0 272 -302v-121q0 -15 -16 -15h-264q-10 10 -45 98q-53 45 -106 45h-310q-120 0 -120 -158v-249q0 -151 158 -151h272q136 23 136 143h279q16 -2 16 -15v-128q0 -214 -197 -280q-52 -15 -90 -15h-605q-187 0 -249 196 q-15 34 -15 99z" />
<glyph unicode="d" horiz-adv-x="1257" d="M49 281v569q0 226 220 289h638v273q2 15 15 15h266q15 -2 15 -15v-1397q0 -15 -15 -15h-858q-174 0 -258 159q-23 50 -23 122zM345 425q18 -129 129 -129h433l-40 547v-25l-302 40q-212 0 -212 -107q-8 0 -8 -30v-296z" />
<glyph unicode="e" horiz-adv-x="1270" d="M54 293v571q0 177 150 248q67 30 143 30h586q240 0 271 -301v-413q0 -15 -16 -15h-841q0 -109 158 -120h683q16 0 16 -23q0 -232 -286 -270h-601q-186 0 -248 195q-15 34 -15 98zM347 721h524q9 24 9 43q0 67 -105 85h-308q-96 0 -120 -128z" />
<glyph unicode="f" horiz-adv-x="705" d="M55 15v1131q0 212 204 272q34 15 98 15h264q15 -2 15 -15v-272q0 -15 -15 -15h-144q-128 0 -128 -173v-98h272q15 -3 15 -15v-264q0 -15 -15 -15h-272v-551q0 -15 -15 -15h-264q-15 0 -15 15z" />
<glyph unicode="g" horiz-adv-x="1336" d="M49 264v588q0 233 228 286q31 8 74 8h620q318 -28 318 -279v-1002q0 -302 -343 -302h-579q-16 0 -16 15v271q2 16 16 16h449q155 16 155 135h-620q-302 36 -302 264zM367 445q0 -151 171 -151h262q163 0 163 128v309q0 121 -188 121h-212q-196 0 -196 -158v-249z" />
<glyph unicode="h" horiz-adv-x="1251" d="M49 15v1409q2 15 15 15h265q15 -2 15 -15v-265h515q262 0 318 -182q23 -49 23 -121v-841q0 -15 -15 -15h-273q-15 0 -15 15v712q0 129 -174 129h-246l-100 -33l-40 -808q0 -15 -15 -15h-258q-15 0 -15 15z" />
<glyph unicode="i" horiz-adv-x="395" d="M49 15v1110q2 15 15 15h255q15 -2 15 -15v-1110q0 -15 -15 -15h-255q-15 0 -15 15zM49 1275v143q2 15 15 15h255q15 -2 15 -15v-143q0 -15 -15 -15h-255q-15 0 -15 15z" />
<glyph unicode="j" horiz-adv-x="446" d="M-195 -153q2 15 15 15h128q143 0 143 211v1053q2 15 15 15h256q15 -2 15 -15v-1279q0 -207 -203 -270q-28 -8 -68 -8h-286q-15 0 -15 15v263zM83 1269v143q3 15 15 15h256q15 -2 15 -15v-143q0 -15 -15 -15h-256q-15 0 -15 15z" />
<glyph unicode="k" horiz-adv-x="1251" d="M55 15v1409q2 15 15 15h279q15 -2 15 -15v-558l407 287h422v-15l-767 -516v-63q661 -476 774 -544v-15h-377q-34 0 -415 291h-59v-276q0 -15 -15 -15h-264q-15 0 -15 15z" />
<glyph unicode="l" horiz-adv-x="413" d="M49 15v1403q2 15 15 15h263q15 -2 15 -15v-1403q0 -15 -15 -15h-263q-15 0 -15 15z" />
<glyph unicode="m" horiz-adv-x="1506" d="M55 15v1092q2 15 15 15h645l-4 3h70q2 4 51 4h345q205 0 264 -198q14 -33 14 -95v-821q0 -15 -14 -15h-264q-15 0 -15 15v623q0 205 -132 205q-139 0 -139 -154v-674q0 -15 -15 -15h-249q-15 0 -15 15v615q0 198 -117 198q0 8 -44 8h-110v-821q0 -15 -15 -15h-256 q-15 0 -15 15z" />
<glyph unicode="n" horiz-adv-x="1251" d="M61 0v1142h868q182 0 252 -141q33 -66 33 -132v-8v-861h-292v714q0 92 -73 127q-35 17 -69 17h-4h-426v-858h-289z" />
<glyph unicode="o" horiz-adv-x="1233" d="M49 297v571q0 186 200 252q34 15 97 15h564q217 0 274 -230v-653q0 -213 -267 -252h-631q-150 0 -222 200q-15 34 -15 97zM338 430q16 -133 119 -133h304q134 0 134 156v222q0 171 -178 171h-208q-171 0 -171 -134v-282z" />
<glyph unicode="p" horiz-adv-x="1270" d="M61 -415v1542q2 15 15 15h843q200 0 281 -175q16 -52 16 -91v-607q-39 -274 -274 -274h-585v-410q0 -15 -15 -15h-266q-15 0 -15 15zM365 284h395q159 0 159 129v304q-18 129 -136 129h-418v-562z" />
<glyph unicode="q" horiz-adv-x="1237" d="M54 285v575q0 233 284 269h837q15 -2 15 -15v-1524q0 -15 -15 -15h-262q-15 0 -15 15v403h-560q-201 0 -269 187q-15 56 -15 105zM345 412q0 -135 172 -135l341 40l40 521h-388q-165 0 -165 -135v-291z" />
<glyph unicode="r" horiz-adv-x="687" d="M55 15v1099q2 15 15 15h542q15 -2 15 -15v-260q0 -15 -15 -15h-134q-117 0 -133 -141v-683q0 -15 -15 -15h-260q-15 0 -15 15z" />
<glyph unicode="s" horiz-adv-x="1221" d="M49 269v7q2 15 15 15h747q74 0 74 60v37q-18 38 -59 38h-478q-299 0 -299 328v112q47 269 269 269h575q211 0 276 -194q8 -51 8 -82q0 -15 -15 -15h-755q-67 0 -67 -60q0 -56 75 -67h470q299 0 299 -329v-82q0 -208 -164 -284q-49 -22 -120 -22h-552q-299 28 -299 269z " />
<glyph unicode="t" horiz-adv-x="954" d="M62 863v287h419v-287h-419zM343 7v1426h275v-1426h-275zM344 0v1439h268v-1439h-268zM481 863v287h418v-287h-418z" />
<glyph unicode="u" horiz-adv-x="1263" d="M55 293v819q2 15 15 15h278l-7 -37v-639q0 -165 157 -165h249q165 0 165 127v707q2 15 15 15h271l15 -8q-8 -502 -8 -729v-142q0 -219 -278 -256h-594q-250 0 -278 293z" />
<glyph unicode="v" horiz-adv-x="1239" d="M43 1135l15 7h269q18 0 261 -639h46q245 639 260 639h269l15 -7q-336 -912 -426 -1135h-276q-35 46 -268 702z" />
<glyph unicode="w" horiz-adv-x="1512" d="M55 22v1098q2 15 15 15h257q15 -2 15 -15v-818q74 -7 111 -7q162 0 162 191v634q2 15 15 15h250q15 -2 15 -15v-678q0 -147 118 -147h44q111 0 111 199v626q2 15 15 15h265q15 -2 15 -15v-825q0 -238 -236 -295h-376q-49 0 -96 52q0 -36 -59 -45h-626q-15 0 -15 15z" />
<glyph unicode="x" horiz-adv-x="1227" d="M49 0v7q319 462 338 495v133q-280 391 -338 500h349q6 0 222 -304q210 304 215 304h334v-15l-344 -516q-5 0 -5 -6q0 -55 349 -583v-15h-348q-14 4 -216 290q-174 -266 -207 -290h-349z" />
<glyph unicode="y" horiz-adv-x="1249" d="M54 284v836q2 15 15 15h261q15 -2 15 -15v-657q14 -171 127 -171h433v828q2 15 15 15h261q15 -2 15 -15v-1246q-30 -299 -261 -299h-575q-15 0 -15 15v261q2 15 15 15h411q134 17 134 134h-560q-207 0 -276 186q-15 35 -15 98z" />
<glyph unicode="z" horiz-adv-x="1227" d="M55 0v7l535 771v65h-520q-15 0 -15 15v269q2 15 15 15h1112v-7l-552 -844h537q15 -2 15 -15v-261q0 -15 -15 -15h-1112z" />
<glyph unicode="{" horiz-adv-x="583" d="M2 577q43 -3 85 -26q86 -46 86 -145v-117q0 -70 35 -141q71 -142 248 -142h129v283q-35 -2 -70 14q-71 33 -71 128v583q-6 36 9 73q29 72 136 72l-4 287h-144q-71 2 -142 -32q-143 -69 -143 -253v-142q0 -38 -20 -77q-39 -77 -134 -77v-288z" />
<glyph unicode="|" d="M427 -418v1995h160v-1995h-160z" />
<glyph unicode="}" horiz-adv-x="583" d="M0 15v258q1 11 99 38q45 48 45 129v554q0 129 -83 129q-61 11 -61 23v266q2 15 15 15h137q288 0 288 -334v-99q0 -121 152 -144v-273l-114 -61q-68 0 -68 -326q-81 -190 -251 -190h-144q-15 0 -15 15z" />
<glyph unicode="~" d="M94 556v156q64 73 123 99t114 26q64 0 181.5 -49.5t172.5 -49.5q52 0 108.5 28t129.5 112v-156q-63 -72 -122 -97.5t-116 -25.5q-60 0 -177.5 48.5t-176.5 48.5q-51 0 -107.5 -28t-129.5 -112z" />
<glyph unicode="&#xa1;" horiz-adv-x="401" d="M47 16l3 1108q0 15 16 15l271 -1q15 0 15 -15l-3 -1108q-3 -15 -15 -15h-272q-15 3 -15 16zM51 1305v113q0 15 15 15h272q15 0 15 -16v-113q-3 -15 -15 -15l-272 1q-15 3 -15 15z" />
<glyph unicode="&#xa2;" horiz-adv-x="1139" />
<glyph unicode="&#xa3;" horiz-adv-x="1142" d="M0 15v1403q2 15 15 15h255q15 -2 15 -15v-1125h848q15 -3 15 -15v-263q0 -15 -15 -15h-1118q-15 0 -15 15zM20 944q0 15 11 15l1010 7q11 -3 11 -15l2 -255q-2 -15 -11 -15l-1010 -7q-11 0 -11 15z" />
<glyph unicode="&#xa4;" d="M122 413l118 117q-32 46 -48 104q-12 41 -12 83q0 44 13 87q16 55 47 99l-118 118l80 81l118 -118q44 30 99 46q44 14 89 14q41 0 83 -12q57 -17 102 -48l118 118l80 -81l-117 -117q31 -46 48 -102q12 -42 12 -85q0 -42 -12 -86q-17 -55 -48 -101l117 -117l-80 -81 l-118 118q-45 -32 -101 -48q-42 -12 -85 -12q-41 0 -85 12q-57 16 -103 48l-117 -118zM284 716q0 -28 9 -56q16 -59 57 -100q41 -40 99 -57q29 -8 58 -8t58 8q58 17 99 57q40 41 57 99q9 29 9 58t-9 58q-17 58 -57 99q-41 40 -100 57q-29 8 -58 8t-58 -9q-58 -17 -98 -56 q-39 -40 -56 -98q-10 -30 -10 -60z" />
<glyph unicode="&#xa5;" horiz-adv-x="1172" d="M0 1412v15h279q32 -24 264 -428h60q149 266 258 428h287q0 -21 -386 -649q-37 -49 -37 -76v-687q0 -15 -15 -15h-272q-15 0 -15 15v687q-8 38 -423 710zM50 640q0 15 10 15l1011 7q11 -3 11 -15l1 -255q-1 -15 -10 -15l-1011 -7q-11 0 -11 15z" />
<glyph unicode="&#xa6;" d="M427 371h160v-789h-160v789zM427 789v789h160v-789h-160z" />
<glyph unicode="&#xa7;" horiz-adv-x="1478" d="M55 -168q2 15 15 15h671q174 0 174 143q0 114 -143 136h-363q-354 0 -354 294v301q0 235 294 272h845q15 -2 15 -15v-264q0 -15 -15 -15h-717q-128 -15 -128 -121v-30q0 -128 166 -128h415q271 -28 271 -272v-332q0 -229 -286 -256h-845q-15 0 -15 15v257zM265 155v257 q2 15 15 15h671q174 0 174 143q0 114 -143 136h-363q-354 0 -354 294v301q0 235 294 272h845q15 -2 15 -15v-264q0 -15 -15 -15h-717q-128 -15 -128 -121v-30q0 -128 166 -128h415q271 -28 271 -272v-332q0 -229 -286 -256h-845q-15 0 -15 15z" />
<glyph unicode="&#xa8;" horiz-adv-x="1024" />
<glyph unicode="&#xa9;" horiz-adv-x="1674" d="M0 -158v1399q0 209 254 241h1393q171 0 234 -167q14 -47 14 -81v-1426q0 -194 -235 -227h-1432q-150 0 -208 154q-20 43 -20 107zM254 1094q7 -596 7 -924v-214q13 -114 114 -114h1151q114 0 114 167v1058q0 147 -87 147q0 13 -67 14h-1078q-140 -10 -140 -94 q-8 0 -14 -40zM370 245v574q0 177 151 249q67 30 144 30h589q241 0 272 -302v-121q0 -15 -16 -15h-264q-10 10 -45 98q-53 45 -106 45h-310q-120 0 -120 -158v-249q0 -151 158 -151h272q136 23 136 143h279q16 -2 16 -15v-128q0 -214 -197 -280q-52 -15 -90 -15h-605 q-187 0 -249 196q-15 34 -15 99z" />
<glyph unicode="&#xaa;" horiz-adv-x="648" />
<glyph unicode="&#xab;" horiz-adv-x="944" d="M174 479l342 303h14v-37l-205 -266l205 -266v-37h-14zM487 479l342 303h14v-37l-205 -266l205 -266v-37h-14z" />
<glyph unicode="&#xac;" horiz-adv-x="1124" d="M45 640q0 15 11 15l1010 7q11 -3 11 -15l2 -255q-2 -15 -11 -15l-1010 -7q-11 0 -11 15zM770 43l3 600q0 6 15 6h255q15 0 15 -7l-3 -600q-2 -6 -15 -6h-255q-15 1 -15 7z" />
<glyph unicode="&#xad;" horiz-adv-x="670" d="M-10 640q0 15 7 15l675 7q7 -3 7 -15l1 -255q-1 -15 -7 -15l-675 -7q-7 0 -7 15z" />
<glyph unicode="&#xae;" horiz-adv-x="1674" d="M0 -188v1399q0 209 254 241h1393q171 0 234 -167q14 -47 14 -81v-1426q0 -194 -235 -227h-1432q-150 0 -208 154q-20 43 -20 107zM254 1064q7 -596 7 -924v-214q13 -114 114 -114h1151q114 0 114 167v1058q0 147 -87 147q0 13 -67 14h-1078q-140 -10 -140 -94 q-8 0 -14 -40zM700 -65v1099q2 15 15 15h542q15 -2 15 -15v-260q0 -15 -15 -15h-134q-117 0 -133 -141v-683q0 -15 -15 -15h-260q-15 0 -15 15z" />
<glyph unicode="&#xaf;" horiz-adv-x="670" />
<glyph unicode="&#xb0;" horiz-adv-x="674" d="M60 1164q0 116 81.5 197t197.5 81q115 0 196 -81.5t81 -196.5q0 -114 -82 -196t-197 -82q-117 0 -197 81t-80 197zM130 1163q0 -87 61 -147t148 -60t147 60t60 147t-60.5 148t-146.5 61t-147.5 -61t-61.5 -148z" />
<glyph unicode="&#xb1;" d="M-10 -160q0 15 11 15l1010 7q11 -3 11 -15l2 -255q-2 -15 -11 -15l-1010 -7q-11 0 -11 15zM-10 640q0 15 11 15l1010 7q11 -3 11 -15l2 -255q-2 -15 -11 -15l-1010 -7q-11 0 -11 15zM364 11v1010q3 11 15 11h255q15 -2 15 -11v-1010q0 -11 -15 -11h-255q-15 0 -15 11z " />
<glyph unicode="&#xb2;" />
<glyph unicode="&#xb3;" />
<glyph unicode="&#xb4;" horiz-adv-x="1024" d="M583 1500l256 261h316l-261 -261h-311z" />
<glyph unicode="&#xb5;" horiz-adv-x="1278" d="M49 293v819q2 15 15 15h278l-7 -37v-639q0 -165 157 -165h249q165 0 165 127v707q2 15 15 15h271l15 -8q-8 -502 -8 -729v-142q0 -219 -278 -256h-594q-250 0 -278 293zM49 -427v1534q2 16 15 16h263q15 -3 15 -16v-1534q0 -16 -15 -16h-263q-15 0 -15 16z" />
<glyph unicode="&#xb6;" horiz-adv-x="1024" d="M93 1086q0 157 107.5 253t285.5 96h443v-70h-127v-1365h-82v1365h-166v-1365h-84v738q-174 8 -275.5 102.5t-101.5 245.5z" />
<glyph unicode="&#xb7;" horiz-adv-x="508" d="M105 419v230q2 13 13 13h237q13 -2 13 -13v-230q0 -13 -13 -13h-237q-13 0 -13 13z" />
<glyph unicode="&#xb8;" horiz-adv-x="1024" d="M360 -290q85 -52 152 -52q66 0 94.5 21.5t28.5 66.5t-49 64q-40 16 -102 16q-16 0 -34 -2l48 176h63l13 38q0 -137 12 -137q86 0 134 -40.5t48 -113.5q0 -76 -58.5 -120.5t-160.5 -44.5q-109 0 -189 32v96z" />
<glyph unicode="&#xb9;" />
<glyph unicode="&#xba;" horiz-adv-x="718" />
<glyph unicode="&#xbb;" horiz-adv-x="944" d="M101 176v37l205 266l-205 266v37h14l342 -303l-342 -303h-14zM414 176v37l205 266l-205 266v37h14l342 -303l-342 -303h-14z" />
<glyph unicode="&#xbc;" horiz-adv-x="1708" />
<glyph unicode="&#xbd;" horiz-adv-x="1964" />
<glyph unicode="&#xbe;" horiz-adv-x="1708" />
<glyph unicode="&#xbf;" horiz-adv-x="1251" d="M53 265l2 481q1 227 309 262q101 -1 113 119l15 8l263 -1q15 0 15 -15l-1 -143q-1 -217 -249 -269q-180 0 -181 -135v-143q-1 -135 180 -136l653 -2q15 0 15 -15l-1 -263q-2 -15 -15 -15l-856 3q-263 36 -262 264zM477 1300l1 113q0 15 15 15l270 -1q15 0 15 -15v-113 q-3 -15 -15 -15l-271 1q-15 2 -15 15z" />
<glyph unicode="&#xc0;" horiz-adv-x="1281" d="M66 15v1118q0 242 240 300h623q285 -35 285 -270v-1148q0 -15 -15 -15h-278q-15 0 -15 15v270h-540v-270q0 -15 -15 -15h-270q-15 0 -15 15zM117 1750v6h300q6 0 238 -244v-6h-294q-8 0 -244 244zM374 578h532v420q0 135 -172 135h-188q-172 0 -172 -135v-420z" />
<glyph unicode="&#xc1;" horiz-adv-x="1271" d="M53 15v1118q0 242 240 300h623q285 -35 285 -270v-1148q0 -15 -15 -15h-278q-15 0 -15 15v270h-540v-270q0 -15 -15 -15h-270q-15 0 -15 15zM361 578h532v420q0 135 -172 135h-188q-172 0 -172 -135v-420zM626 1500l256 261h316l-261 -261h-311z" />
<glyph unicode="&#xc2;" horiz-adv-x="1288" d="M66 15v1118q0 242 239 300h624q285 -35 285 -270v-1148q0 -15 -15 -15h-278q-15 0 -15 15v270h-540v-270q0 -15 -15 -15h-270q-15 0 -15 15zM76 1506l255 261h317l-261 -261h-311zM374 578h532v420q0 135 -172 135h-188q-172 0 -172 -135v-420zM635 1763v6h300 q5 0 238 -244v-6h-294q-9 0 -244 244z" />
<glyph unicode="&#xc3;" horiz-adv-x="1286" d="M73 15v1118q0 242 240 300h623q285 -35 285 -270v-1148q0 -15 -15 -15h-278q-15 0 -15 15v270h-540v-270q0 -15 -15 -15h-270q-15 0 -15 15zM264 1765q0 15 8 15l746 7q8 -3 8 -15l1 -255q-1 -15 -8 -15l-746 -7q-8 0 -8 15zM381 578h532v420q0 135 -172 135h-188 q-172 0 -172 -135v-420z" />
<glyph unicode="&#xc4;" horiz-adv-x="1269" d="M60 15v1118q0 242 240 300h623q285 -35 285 -270v-1148q0 -15 -15 -15h-278q-15 0 -15 15v270h-540v-270q0 -15 -15 -15h-270q-15 0 -15 15zM258 1536v230q2 13 13 13h237q13 -2 13 -13v-230q0 -13 -13 -13h-237q-13 0 -13 13zM368 578h532v420q0 135 -172 135h-188 q-172 0 -172 -135v-420zM728 1536v230q2 13 13 13h237q13 -2 13 -13v-230q0 -13 -13 -13h-237q-13 0 -13 13z" />
<glyph unicode="&#xc5;" horiz-adv-x="1279" d="M73 15v1118q0 242 240 300h623q285 -35 285 -270v-1148q0 -15 -15 -15h-278q-15 0 -15 15v270h-540v-270q0 -15 -15 -15h-270q-15 0 -15 15zM381 578h532v420q0 135 -172 135h-188q-172 0 -172 -135v-420zM524 1542v230q2 13 13 13h237q13 -2 13 -13v-230q0 -13 -13 -13 h-237q-13 0 -13 13z" />
<glyph unicode="&#xc6;" horiz-adv-x="2118" />
<glyph unicode="&#xc7;" horiz-adv-x="1399" />
<glyph unicode="&#xc8;" horiz-adv-x="1256" d="M56 15v1406q0 15 23 15q1048 -8 1104 -8l8 -15v-263q0 -15 -15 -15h-819v-271h548q15 -2 15 -15v-270q0 -15 -15 -15h-548v-271h819q15 -2 15 -15v-263q0 -15 -15 -15h-1105q-15 0 -15 15zM117 1750v6h300q6 0 238 -244v-6h-294q-8 0 -244 244z" />
<glyph unicode="&#xc9;" horiz-adv-x="1240" d="M50 15v1406q0 15 23 15q1048 -8 1104 -8l8 -15v-263q0 -15 -15 -15h-819v-271h548q15 -2 15 -15v-270q0 -15 -15 -15h-548v-271h819q15 -2 15 -15v-263q0 -15 -15 -15h-1105q-15 0 -15 15zM633 1500l256 261h316l-261 -261h-311z" />
<glyph unicode="&#xca;" horiz-adv-x="1254" d="M56 15v1406q0 15 23 15q1048 -8 1104 -8l8 -15v-263q0 -15 -15 -15h-819v-271h548q15 -2 15 -15v-270q0 -15 -15 -15h-548v-271h819q15 -2 15 -15v-263q0 -15 -15 -15h-1105q-15 0 -15 15zM257 1765q0 15 8 15l746 7q8 -3 8 -15l1 -255q-1 -15 -8 -15l-746 -7q-8 0 -8 15 z" />
<glyph unicode="&#xcb;" horiz-adv-x="1250" d="M50 15v1406q0 15 23 15q1048 -8 1104 -8l8 -15v-263q0 -15 -15 -15h-819v-271h548q15 -2 15 -15v-270q0 -15 -15 -15h-548v-271h819q15 -2 15 -15v-263q0 -15 -15 -15h-1105q-15 0 -15 15zM258 1536v230q2 13 13 13h237q13 -2 13 -13v-230q0 -13 -13 -13h-237 q-13 0 -13 13zM728 1536v230q2 13 13 13h237q13 -2 13 -13v-230q0 -13 -13 -13h-237q-13 0 -13 13z" />
<glyph unicode="&#xcc;" horiz-adv-x="395" d="M-175 1750v6h300q6 0 238 -244v-6h-294q-8 0 -244 244zM49 15v1403q2 15 15 15h255q15 -2 15 -15v-1403q0 -15 -15 -15h-255q-15 0 -15 15z" />
<glyph unicode="&#xcd;" horiz-adv-x="404" d="M44 1506l256 261h316l-261 -261h-311zM50 15v1403q2 15 15 15h255q15 -2 15 -15v-1403q0 -15 -15 -15h-255q-15 0 -15 15z" />
<glyph unicode="&#xce;" horiz-adv-x="392" d="M-370 1506l256 261h316l-261 -261h-311zM50 15v1403q2 15 15 15h255q15 -2 15 -15v-1403q0 -15 -15 -15h-255q-15 0 -15 15zM189 1763v6h300q6 0 238 -244v-6h-294q-8 0 -244 244z" />
<glyph unicode="&#xcf;" horiz-adv-x="407" d="M-173 1542v230q2 13 13 13h237q13 -2 13 -13v-230q0 -13 -13 -13h-237q-13 0 -13 13zM56 15v1403q2 15 15 15h255q15 -2 15 -15v-1403q0 -15 -15 -15h-255q-15 0 -15 15zM297 1542v230q2 13 13 13h237q13 -2 13 -13v-230q0 -13 -13 -13h-237q-13 0 -13 13z" />
<glyph unicode="&#xd0;" horiz-adv-x="1257" d="M49 15v1403q2 15 15 15h852q199 0 264 -181q15 -57 15 -106v-867q0 -224 -241 -279h-890q-15 0 -15 15zM99 800l41 -255q0 25 -35 -15l498 47q-35 0 5 -24l-1 254q0 -34 -81 14l-422 -46q35 0 -5 25zM343 294h438q120 19 120 113v611q-28 113 -135 113h-423v-837z" />
<glyph unicode="&#xd1;" horiz-adv-x="1273" d="M50 15v1403q2 15 15 15h294l514 -910h29v895q3 15 15 15h272q15 -2 15 -15v-1403q0 -15 -15 -15h-279q-13 10 -528 910h-30v-895q0 -15 -15 -15h-272q-15 0 -15 15zM251 1765q0 15 8 15l746 7q8 -3 8 -15l1 -255q-1 -15 -8 -15l-746 -7q-8 0 -8 15z" />
<glyph unicode="&#xd2;" horiz-adv-x="1268" d="M49 297v868q0 235 289 274h587q289 0 289 -358v-746q0 -240 -152 -312q-83 -23 -99 -23h-655q-170 0 -236 175q-23 50 -23 122zM110 1750v6h300q6 0 238 -244v-6h-294q-8 0 -244 244zM338 1005q8 -236 8 -373v-206q19 -129 114 -129h343q100 0 114 167v526 q0 160 -183 160h-221q-167 0 -167 -137q32 0 -8 -8z" />
<glyph unicode="&#xd3;" horiz-adv-x="1265" d="M50 297v868q0 235 289 274h587q289 0 289 -358v-746q0 -240 -152 -312q-83 -23 -99 -23h-655q-170 0 -236 175q-23 50 -23 122zM339 1005q8 -236 8 -373v-206q19 -129 114 -129h343q100 0 114 167v526q0 160 -183 160h-221q-167 0 -167 -137q32 0 -8 -8zM633 1500 l256 261h316l-261 -261h-311z" />
<glyph unicode="&#xd4;" horiz-adv-x="1264" d="M50 297v868q0 235 288 274h588q289 0 289 -358v-746q0 -240 -152 -312q-84 -23 -99 -23h-655q-170 0 -236 175q-23 50 -23 122zM70 1506l255 261h317l-261 -261h-311zM339 1005q8 -236 8 -373v-206q19 -129 114 -129h343q99 0 114 167v526q0 160 -183 160h-221 q-167 0 -167 -137q32 0 -8 -8zM629 1763v6h300q5 0 238 -244v-6h-294q-9 0 -244 244z" />
<glyph unicode="&#xd5;" horiz-adv-x="1279" d="M56 297v868q0 235 289 274h587q289 0 289 -358v-746q0 -240 -152 -312q-83 -23 -99 -23h-655q-170 0 -236 175q-23 50 -23 122zM257 1765q0 15 8 15l746 7q8 -3 8 -15l1 -255q-1 -15 -8 -15l-746 -7q-8 0 -8 15zM345 1005q8 -236 8 -373v-206q19 -129 114 -129h343 q100 0 114 167v526q0 160 -183 160h-221q-167 0 -167 -137q32 0 -8 -8z" />
<glyph unicode="&#xd6;" horiz-adv-x="1269" d="M50 297v868q0 235 289 274h587q289 0 289 -358v-746q0 -240 -152 -312q-83 -23 -99 -23h-655q-170 0 -236 175q-23 50 -23 122zM258 1536v230q2 13 13 13h237q13 -2 13 -13v-230q0 -13 -13 -13h-237q-13 0 -13 13zM339 1005q8 -236 8 -373v-206q19 -129 114 -129h343 q100 0 114 167v526q0 160 -183 160h-221q-167 0 -167 -137q32 0 -8 -8zM728 1536v230q2 13 13 13h237q13 -2 13 -13v-230q0 -13 -13 -13h-237q-13 0 -13 13z" />
<glyph unicode="&#xd7;" d="M161 470l247 247l-247 248l99 98l247 -247l248 247l98 -99l-247 -247l247 -247l-99 -99l-247 247l-247 -247z" />
<glyph unicode="&#xd8;" horiz-adv-x="1614" />
<glyph unicode="&#xd9;" horiz-adv-x="1274" d="M49 288v1130q2 15 15 15h273q15 -2 15 -15v-61q0 -346 -7 -932q0 -137 174 -137h220q174 0 174 182v948q3 15 15 15h266q15 -2 15 -15v-1153q0 -202 -243 -265h-636q-248 0 -281 288zM110 1750v6h300q6 0 238 -244v-6h-294q-8 0 -244 244z" />
<glyph unicode="&#xda;" horiz-adv-x="1264" d="M43 288v1130q2 15 15 15h273q15 -2 15 -15v-61q0 -346 -7 -932q0 -137 174 -137h220q174 0 174 182v948q3 15 15 15h266q15 -2 15 -15v-1153q0 -202 -243 -265h-636q-248 0 -281 288zM626 1500l256 261h316l-261 -261h-311z" />
<glyph unicode="&#xdb;" horiz-adv-x="1257" d="M37 288v1130q2 15 15 15h273q15 -2 15 -15v-61q0 -346 -7 -932q0 -137 174 -137h220q174 0 174 182v948q3 15 15 15h266q15 -2 15 -15v-1153q0 -202 -244 -265h-635q-248 0 -281 288zM57 1506l255 261h317l-261 -261h-311zM616 1763v6h300q5 0 238 -244v-6h-294 q-9 0 -244 244z" />
<glyph unicode="&#xdc;" horiz-adv-x="1263" d="M50 288v1130q2 15 15 15h273q15 -2 15 -15v-61q0 -346 -7 -932q0 -137 174 -137h220q174 0 174 182v948q3 15 15 15h266q15 -2 15 -15v-1153q0 -202 -243 -265h-636q-248 0 -281 288zM258 1536v230q2 13 13 13h237q13 -2 13 -13v-230q0 -13 -13 -13h-237q-13 0 -13 13z M728 1536v230q2 13 13 13h237q13 -2 13 -13v-230q0 -13 -13 -13h-237q-13 0 -13 13z" />
<glyph unicode="&#xdd;" horiz-adv-x="1252" d="M43 1412v15h279q32 -24 264 -428h60q149 266 258 428h287q0 -21 -386 -649q-37 -49 -37 -76v-687q0 -15 -15 -15h-272q-15 0 -15 15v687q-8 38 -423 710zM626 1500l256 261h316l-261 -261h-311z" />
<glyph unicode="&#xde;" horiz-adv-x="1120" />
<glyph unicode="&#xdf;" horiz-adv-x="1251" />
<glyph unicode="&#xe0;" horiz-adv-x="1172" d="M49 279v597q0 237 267 272h540q205 0 259 -234v-899q0 -15 -14 -15h-813q-205 0 -239 279zM110 1520v6h300q6 0 238 -244v-6h-294q-8 0 -244 244zM323 453q0 -158 119 -158h400v400q0 158 -176 158h-154q-182 0 -182 -120q-7 0 -7 -46v-234z" />
<glyph unicode="&#xe1;" horiz-adv-x="1184" d="M49 279v597q0 237 267 272h540q205 0 259 -234v-899q0 -15 -14 -15h-813q-205 0 -239 279zM323 453q0 -158 119 -158h400v400q0 158 -176 158h-154q-182 0 -182 -120q-7 0 -7 -46v-234zM592 1280l256 261h316l-261 -261h-311z" />
<glyph unicode="&#xe2;" horiz-adv-x="1184" d="M50 1270l256 261h316l-261 -261h-311zM55 279v597q0 237 267 272h540q205 0 259 -234v-899q0 -15 -14 -15h-813q-205 0 -239 279zM329 453q0 -158 119 -158h400v400q0 158 -176 158h-154q-182 0 -182 -120q-7 0 -7 -46v-234zM609 1527v6h300q6 0 238 -244v-6h-294 q-8 0 -244 244z" />
<glyph unicode="&#xe3;" horiz-adv-x="1190" d="M55 279v597q0 237 267 272h540q205 0 259 -234v-899q0 -15 -14 -15h-813q-205 0 -239 279zM256 1515q0 15 8 15l746 7q8 -3 8 -15l1 -255q-1 -15 -8 -15l-746 -7q-8 0 -8 15zM329 453q0 -158 119 -158h400v400q0 158 -176 158h-154q-182 0 -182 -120q-7 0 -7 -46v-234z " />
<glyph unicode="&#xe4;" horiz-adv-x="1160" d="M43 279v597q0 237 267 272h540q205 0 259 -234v-899q0 -15 -14 -15h-813q-205 0 -239 279zM251 1266v230q2 13 13 13h237q13 -2 13 -13v-230q0 -13 -13 -13h-237q-13 0 -13 13zM317 453q0 -158 119 -158h400v400q0 158 -176 158h-154q-182 0 -182 -120q-7 0 -7 -46v-234z M721 1266v230q2 13 13 13h237q13 -2 13 -13v-230q0 -13 -13 -13h-237q-13 0 -13 13z" />
<glyph unicode="&#xe5;" horiz-adv-x="1166" d="M43 279v597q0 237 267 272h540q205 0 259 -234v-899q0 -15 -14 -15h-813q-205 0 -239 279zM317 453q0 -158 119 -158h400v400q0 158 -176 158h-154q-182 0 -182 -120q-7 0 -7 -46v-234zM431 1266v230q2 13 13 13h237q13 -2 13 -13v-230q0 -13 -13 -13h-237q-13 0 -13 13z " />
<glyph unicode="&#xe6;" horiz-adv-x="1454" />
<glyph unicode="&#xe7;" horiz-adv-x="905" />
<glyph unicode="&#xe8;" horiz-adv-x="1269" d="M60 293v571q0 177 150 248q67 30 143 30h586q240 0 271 -301v-413q0 -15 -16 -15h-841q0 -109 158 -120h683q16 0 16 -23q0 -232 -286 -270h-601q-186 0 -248 195q-15 34 -15 98zM116 1520v6h300q6 0 238 -244v-6h-294q-8 0 -244 244zM353 721h524q40 105 -96 128h-308 q-96 0 -120 -128z" />
<glyph unicode="&#xe9;" horiz-adv-x="1269" d="M60 293v571q0 177 150 248q67 30 143 30h586q240 0 271 -301v-413q0 -15 -16 -15h-841q0 -109 158 -120h683q16 0 16 -23q0 -232 -286 -270h-601q-186 0 -248 195q-15 34 -15 98zM353 721h524q40 105 -96 128h-308q-96 0 -120 -128zM598 1280l256 261h316l-261 -261h-311 z" />
<glyph unicode="&#xea;" horiz-adv-x="1251" d="M60 293v571q0 177 149 248q67 30 144 30h586q240 0 271 -301v-413q0 -15 -16 -15h-841q0 -109 157 -120h684q16 0 16 -23q0 -232 -286 -270h-601q-186 0 -248 195q-15 34 -15 98zM69 1244l255 261h317l-261 -261h-311zM353 721h524q40 105 -96 128h-308q-97 0 -120 -128z M628 1501v6h300q5 0 238 -244v-6h-294q-9 0 -244 244z" />
<glyph unicode="&#xeb;" horiz-adv-x="1263" d="M54 293v571q0 177 150 248q67 30 143 30h586q240 0 271 -301v-413q0 -15 -16 -15h-841q0 -109 158 -120h683q16 0 16 -23q0 -232 -286 -270h-601q-186 0 -248 195q-15 34 -15 98zM257 1266v230q2 13 13 13h237q13 -2 13 -13v-230q0 -13 -13 -13h-237q-13 0 -13 13z M347 721h524q40 105 -96 128h-308q-96 0 -120 -128zM727 1266v230q2 13 13 13h237q13 -2 13 -13v-230q0 -13 -13 -13h-237q-13 0 -13 13z" />
<glyph unicode="&#xec;" horiz-adv-x="395" d="M-194 1520v6h300q6 0 238 -244v-6h-294q-8 0 -244 244zM55 15v1110q2 15 15 15h255q15 -2 15 -15v-1110q0 -15 -15 -15h-255q-15 0 -15 15z" />
<glyph unicode="&#xed;" horiz-adv-x="389" d="M42 1280l256 261h316l-261 -261h-311zM49 15v1110q2 15 15 15h255q15 -2 15 -15v-1110q0 -15 -15 -15h-255q-15 0 -15 15z" />
<glyph unicode="&#xee;" horiz-adv-x="389" d="M-350 1245l256 261h316l-261 -261h-311zM49 15v1110q2 15 15 15h255q15 -2 15 -15v-1110q0 -15 -15 -15h-255q-15 0 -15 15zM209 1502v6h300q6 0 238 -244v-6h-294q-8 0 -244 244z" />
<glyph unicode="&#xef;" horiz-adv-x="407" d="M-177 1266v230q2 13 13 13h237q13 -2 13 -13v-230q0 -13 -13 -13h-237q-13 0 -13 13zM55 15v1110q2 15 15 15h255q15 -2 15 -15v-1110q0 -15 -15 -15h-255q-15 0 -15 15zM293 1266v230q2 13 13 13h237q13 -2 13 -13v-230q0 -13 -13 -13h-237q-13 0 -13 13z" />
<glyph unicode="&#xf0;" horiz-adv-x="1245" d="M43 281v569q0 226 220 289h638v273q2 15 15 15h266q15 -2 15 -15v-1397q0 -15 -15 -15h-858q-174 0 -258 159q-23 50 -23 122zM339 425q18 -129 129 -129h433l-40 547v-25l-302 40q-212 0 -212 -107q-8 0 -8 -30v-296zM676 1538q0 15 5 15l498 7q5 -3 5 -15l1 -255 q-1 -15 -5 -15l-498 -7q-5 0 -5 15z" />
<glyph unicode="&#xf1;" horiz-adv-x="1251" d="M49 0v1142h868q182 0 252 -141q35 -70 33 -140v-861h-292v714q0 92 -73 127q-37 18 -73 17h-426v-858h-289zM250 1515q0 15 8 15l746 7q8 -3 8 -15l1 -255q-1 -15 -8 -15l-746 -7q-8 0 -8 15z" />
<glyph unicode="&#xf2;" horiz-adv-x="1245" d="M49 297v571q0 186 200 252q34 15 97 15h564q217 0 274 -230v-653q0 -213 -267 -252h-631q-150 0 -222 200q-15 34 -15 97zM110 1520v6h300q6 0 238 -244v-6h-294q-8 0 -244 244zM338 430q16 -133 119 -133h304q134 0 134 156v222q0 171 -178 171h-208q-171 0 -171 -134 v-282z" />
<glyph unicode="&#xf3;" horiz-adv-x="1227" d="M49 297v571q0 186 200 252q34 15 97 15h564q217 0 274 -230v-653q0 -213 -267 -252h-631q-150 0 -222 200q-15 34 -15 97zM338 430q16 -133 119 -133h304q134 0 134 156v222q0 171 -178 171h-208q-171 0 -171 -134v-282zM592 1280l256 261h316l-261 -261h-311z" />
<glyph unicode="&#xf4;" horiz-adv-x="1010" />
<glyph unicode="&#xf5;" horiz-adv-x="1251" d="M55 297v571q0 186 200 252q34 15 97 15h564q217 0 274 -230v-653q0 -213 -267 -252h-631q-150 0 -222 200q-15 34 -15 97zM256 1515q0 15 8 15l746 7q8 -3 8 -15l1 -255q-1 -15 -8 -15l-746 -7q-8 0 -8 15zM344 430q16 -133 119 -133h304q134 0 134 156v222 q0 171 -178 171h-208q-171 0 -171 -134v-282z" />
<glyph unicode="&#xf6;" horiz-adv-x="1245" d="M49 297v571q0 186 200 252q34 15 97 15h564q217 0 274 -230v-653q0 -213 -267 -252h-631q-150 0 -222 200q-15 34 -15 97zM257 1266v230q2 13 13 13h237q13 -2 13 -13v-230q0 -13 -13 -13h-237q-13 0 -13 13zM338 430q16 -133 119 -133h304q134 0 134 156v222 q0 171 -178 171h-208q-171 0 -171 -134v-282zM727 1266v230q2 13 13 13h237q13 -2 13 -13v-230q0 -13 -13 -13h-237q-13 0 -13 13z" />
<glyph unicode="&#xf7;" d="M87 647v140h839l1 -1v-139h-840zM382 377q0 15 16 31l82 84q15 14 29 14q13 0 31 -16l80 -86q12 -16 12 -29q0 -15 -14 -31l-80 -88q-20 -20 -29 -20q-16 0 -29 14l-88 101q-10 13 -10 26zM382 1070q0 15 16 31l82 84q15 14 29 14q13 0 31 -16l80 -86q12 -16 12 -29 q0 -15 -14 -31l-80 -88q-20 -20 -29 -20q-16 0 -29 14l-88 101q-10 13 -10 26z" />
<glyph unicode="&#xf8;" horiz-adv-x="1010" />
<glyph unicode="&#xf9;" horiz-adv-x="1263" d="M55 293v819q2 15 15 15h278l-7 -37v-639q0 -165 157 -165h249q165 0 165 127v707q2 15 15 15h271l15 -8q-8 -502 -8 -729v-142q0 -219 -278 -256h-594q-250 0 -278 293zM116 1520v6h300q6 0 238 -244v-6h-294q-8 0 -244 244z" />
<glyph unicode="&#xfa;" horiz-adv-x="1264" d="M43 293v819q2 15 15 15h278l-7 -37v-639q0 -165 157 -165h249q165 0 165 127v707q2 15 15 15h271l15 -8q-8 -502 -8 -729v-142q0 -219 -278 -256h-594q-250 0 -278 293zM586 1280l256 261h316l-261 -261h-311z" />
<glyph unicode="&#xfb;" horiz-adv-x="1257" d="M49 293v819q2 15 15 15h278l-7 -37v-639q0 -165 157 -165h249q165 0 165 127v707q2 15 15 15h271l15 -8q-8 -502 -8 -729v-142q0 -219 -278 -256h-594q-251 0 -278 293zM57 1288l255 261h317l-261 -261h-311zM616 1545v6h300q5 0 238 -244v-6h-294q-9 0 -244 244z" />
<glyph unicode="&#xfc;" horiz-adv-x="1282" d="M55 293v819q2 15 15 15h278l-7 -37v-639q0 -165 157 -165h249q165 0 165 127v707q2 15 15 15h271l15 -8q-8 -502 -8 -729v-142q0 -219 -278 -256h-594q-250 0 -278 293zM263 1266v230q2 13 13 13h237q13 -2 13 -13v-230q0 -13 -13 -13h-237q-13 0 -13 13zM733 1266v230 q2 13 13 13h237q13 -2 13 -13v-230q0 -13 -13 -13h-237q-13 0 -13 13z" />
<glyph unicode="&#xfd;" horiz-adv-x="1243" d="M48 284v836q2 15 15 15h261q15 -2 15 -15v-657q14 -171 127 -171h433v828q2 15 15 15h261q15 -2 15 -15v-1246q-30 -299 -261 -299h-575q-15 0 -15 15v261q2 15 15 15h411q134 17 134 134h-560q-207 0 -276 186q-15 35 -15 98zM592 1280l256 261h316l-261 -261h-311z" />
<glyph unicode="&#xfe;" horiz-adv-x="1010" />
<glyph unicode="&#xff;" horiz-adv-x="1237" d="M48 284v836q2 15 15 15h261q15 -2 15 -15v-657q14 -171 127 -171h433v828q2 15 15 15h261q15 -2 15 -15v-1246q-30 -299 -261 -299h-575q-15 0 -15 15v261q2 15 15 15h411q134 17 134 134h-560q-207 0 -276 186q-15 35 -15 98zM257 1266v230q2 13 13 13h237q13 -2 13 -13 v-230q0 -13 -13 -13h-237q-13 0 -13 13zM727 1266v230q2 13 13 13h237q13 -2 13 -13v-230q0 -13 -13 -13h-237q-13 0 -13 13z" />
<glyph unicode="&#x2c6;" horiz-adv-x="1024" d="M221 1079l232 355h118l232 -355h-58l-233 216l-233 -216h-58z" />
<glyph unicode="&#x2dc;" horiz-adv-x="1024" d="M234 1132q19 106 68 158.5t129 52.5q46 -1 113 -24q64 -23 112 -23h4q36 0 58 20t36 66h54q-20 -103 -68.5 -154t-126.5 -51h-4q-50 0 -113 23q-66 24 -114 24q-39 0 -60.5 -20.5t-33.5 -71.5h-54z" />
<glyph unicode="&#x2000;" horiz-adv-x="893" />
<glyph unicode="&#x2001;" horiz-adv-x="1787" />
<glyph unicode="&#x2002;" horiz-adv-x="893" />
<glyph unicode="&#x2003;" horiz-adv-x="1787" />
<glyph unicode="&#x2004;" horiz-adv-x="595" />
<glyph unicode="&#x2005;" horiz-adv-x="446" />
<glyph unicode="&#x2006;" horiz-adv-x="297" />
<glyph unicode="&#x2007;" horiz-adv-x="297" />
<glyph unicode="&#x2008;" horiz-adv-x="223" />
<glyph unicode="&#x2009;" horiz-adv-x="357" />
<glyph unicode="&#x200a;" horiz-adv-x="99" />
<glyph unicode="&#x2010;" horiz-adv-x="670" d="M-10 640q0 15 7 15l675 7q7 -3 7 -15l1 -255q-1 -15 -7 -15l-675 -7q-7 0 -7 15z" />
<glyph unicode="&#x2011;" horiz-adv-x="670" d="M-10 640q0 15 7 15l675 7q7 -3 7 -15l1 -255q-1 -15 -7 -15l-675 -7q-7 0 -7 15z" />
<glyph unicode="&#x2012;" horiz-adv-x="670" d="M-10 640q0 15 7 15l675 7q7 -3 7 -15l1 -255q-1 -15 -7 -15l-675 -7q-7 0 -7 15z" />
<glyph unicode="&#x2013;" horiz-adv-x="1108" d="M56 419v120h996v-120h-996z" />
<glyph unicode="&#x2014;" horiz-adv-x="2048" d="M0 419v120h2048v-120h-2048z" />
<glyph unicode="&#x2018;" horiz-adv-x="557" d="M-7 1280l256 261h316l-261 -261h-311z" />
<glyph unicode="&#x2019;" horiz-adv-x="613" d="M61 1520v6h300q6 0 238 -244v-6h-294q-8 0 -244 244z" />
<glyph unicode="&#x201a;" horiz-adv-x="557" d="M-7 -100l256 261h316l-261 -261h-311z" />
<glyph unicode="&#x201c;" horiz-adv-x="1087" d="M-7 1280l256 261h316l-261 -261h-311zM493 1280l256 261h316l-261 -261h-311z" />
<glyph unicode="&#x201d;" horiz-adv-x="1111" d="M61 1520v6h300q6 0 238 -244v-6h-294q-8 0 -244 244zM511 1520v6h300q6 0 238 -244v-6h-294q-8 0 -244 244z" />
<glyph unicode="&#x201e;" horiz-adv-x="1075" d="M-7 -99l256 261h316l-261 -261h-311zM493 -99l256 261h316l-261 -261h-311z" />
<glyph unicode="&#x2022;" horiz-adv-x="1024" d="M216 718q0 123 87 209t210 86q122 0 208.5 -86.5t86.5 -208.5t-87.5 -209.5t-209.5 -87.5q-123 0 -209 87t-86 210z" />
<glyph unicode="&#x2026;" horiz-adv-x="2048" d="M1 6v230q2 13 13 13h237q13 -2 13 -13v-230q0 -13 -13 -13h-237q-13 0 -13 13zM711 6v230q2 13 13 13h237q13 -2 13 -13v-230q0 -13 -13 -13h-237q-13 0 -13 13zM1400 -2v230q2 13 13 13h237q13 -2 13 -13v-230q0 -13 -13 -13h-237q-13 0 -13 13z" />
<glyph unicode="&#x202f;" horiz-adv-x="357" />
<glyph unicode="&#x2039;" horiz-adv-x="631" d="M174 479l342 303h14v-37l-205 -266l205 -266v-37h-14z" />
<glyph unicode="&#x203a;" horiz-adv-x="631" d="M101 176v37l205 266l-205 266v37h14l342 -303l-342 -303h-14z" />
<glyph unicode="&#x205f;" horiz-adv-x="446" />
<glyph unicode="&#x20ac;" d="M-44 613h124q12 -116 76 -257q84 -186 238 -291t348 -105q171 2 286 60q131 69 131 163v183h-128q0 -120 -64 -199q-58 -74 -226 -77q-100 1 -193 63q-110 73 -179 220q-63 133 -74 240h638l39 140h-690v-20h684l39 140h-716q3 59 35 159q47 162 144 255.5t205 103.5 q15 2 28 2q45 0 61 -5v-4q64 -18 103 -38q75 -36 130 -182l120 3l-108 359h-99q-14 -45 -6 -45h6q-50 23 -94 35q-50 8 -97 8q-165 0 -319 -102t-241 -292q-64 -142 -76 -257h-52l-39 -140h122l-40 9v11h-77z" />
<glyph unicode="&#x2122;" horiz-adv-x="1497" />
<glyph unicode="&#xe000;" horiz-adv-x="1135" d="M0 0v1135h1135v-1135h-1135z" />
</font>
</defs>
</svg>
